<?xml version="1.0" standalone="no"?>
<!DOCTYPE svg PUBLIC "-//W3C//DTD SVG 20010904//EN"
 "http://www.w3.org/TR/2001/REC-SVG-20010904/DTD/svg10.dtd">
<svg version="1.0" xmlns="http://www.w3.org/2000/svg"
 width="203.000000pt" height="64.000000pt" viewBox="0 0 203.000000 64.000000"
 preserveAspectRatio="xMidYMid meet">

<g transform="translate(0.000000,64.000000) scale(0.100000,-0.100000)"
fill="#000000" stroke="none">
<path d="M313 423 c9 -2 23 -2 30 0 6 3 -1 5 -18 5 -16 0 -22 -2 -12 -5z"/>
<path d="M222 399 c-53 -27 -109 -91 -123 -142 -21 -78 30 -148 108 -146 l38
1 -35 8 c-47 11 -90 61 -90 103 1 73 56 145 140 181 19 8 28 15 20 16 -8 0
-34 -10 -58 -21z"/>
<path d="M495 408 c-2 -7 -9 -30 -15 -50 -6 -21 -15 -38 -20 -38 -4 0 -8 -6
-7 -12 1 -37 -5 -59 -28 -92 l-25 -37 22 6 c52 16 66 34 97 127 17 51 31 96
31 101 0 12 -50 8 -55 -5z"/>
<path d="M567 307 c-20 -62 -37 -116 -37 -121 0 -4 12 -6 27 -4 23 3 29 11 46
61 20 60 49 89 70 68 11 -11 3 -59 -19 -114 -6 -16 -2 -18 21 -15 25 3 31 11
51 71 13 37 21 74 18 82 -9 23 -42 28 -76 11 -17 -9 -32 -16 -34 -16 -2 0 3
20 10 45 l14 45 -27 0 c-25 0 -29 -6 -64 -113z"/>
<path d="M253 345 c-18 -8 -33 -19 -33 -25 0 -14 36 -13 59 2 21 13 51 5 51
-15 0 -9 -22 -19 -57 -26 -66 -15 -93 -34 -93 -67 0 -28 33 -40 72 -25 14 5
43 7 65 4 l39 -5 17 61 c20 70 21 85 7 76 -5 -3 -7 0 -4 8 10 28 -70 35 -123
12z m67 -85 c0 -17 -39 -50 -59 -50 -43 0 -33 44 12 53 39 8 47 7 47 -3z"/>
<path d="M782 287 c-11 -38 -18 -75 -15 -83 8 -22 41 -26 73 -10 17 8 30 10
30 5 0 -5 13 -9 29 -9 27 0 31 5 49 63 38 118 37 109 7 105 -24 -3 -31 -12
-49 -62 -23 -64 -47 -89 -68 -68 -12 12 -5 56 17 115 6 15 2 17 -23 15 -28 -2
-31 -7 -50 -71z"/>
<path d="M1063 346 c-18 -8 -33 -20 -33 -27 0 -7 11 -9 33 -5 60 12 71 11 75
-6 2 -13 -9 -19 -55 -28 -66 -14 -93 -33 -93 -66 0 -17 7 -24 29 -29 17 -3 38
-2 48 4 11 5 37 7 60 4 l40 -5 18 66 c16 60 17 69 3 82 -22 22 -87 27 -125 10z
m67 -86 c0 -18 -39 -50 -61 -50 -30 0 -22 42 11 51 37 10 50 10 50 -1z"/>
<path d="M258 113 c6 -2 18 -2 25 0 6 3 1 5 -13 5 -14 0 -19 -2 -12 -5z"/>
</g>
</svg>
