<?xml version="1.0" encoding="UTF-8"?>
<svg id="Layer_2" data-name="Layer 2" xmlns="http://www.w3.org/2000/svg" viewBox="0 0 346.66 73.69">
  <defs>
    <style>
      .cls-1 {
        opacity: .85;
      }

      .cls-1, .cls-2 {
        fill: #fff;
      }
    </style>
  </defs>
  <g id="Layer_1-2" data-name="Layer 1">
    <g>
      <g>
        <g>
          <path class="cls-2" d="M79.73,49.82v-.07c.02-7.12,5.4-12.95,13.1-12.93,4.73.01,7.55,1.59,9.87,3.89l-3.52,4.04c-1.93-1.76-3.9-2.84-6.4-2.85-4.22-.01-7.28,3.49-7.29,7.79v.07c-.01,4.29,2.95,7.88,7.25,7.89,2.86,0,4.62-1.14,6.59-2.92l3.5,3.55c-2.59,2.75-5.45,4.46-10.29,4.45-7.38-.02-12.83-5.72-12.82-12.92Z"/>
          <path class="cls-2" d="M107.29,37.29h5.51s-.03,9.93-.03,9.93l10.17.03.03-9.92h5.51s-.07,25.07-.07,25.07h-5.51s.03-10.07.03-10.07l-10.17-.03-.03,10.06h-5.51s.07-25.07.07-25.07Z"/>
          <path class="cls-2" d="M135.16,37.36l18.9.05v4.91s-13.44-.04-13.44-.04v5.08s11.8.03,11.8.03v4.9s-11.83-.03-11.83-.03v5.26s13.59.04,13.59.04v4.91s-19.09-.05-19.09-.05l.07-25.06Z"/>
          <path class="cls-2" d="M158,50.02v-.07c.02-7.12,5.4-12.95,13.1-12.93,4.72.01,7.55,1.59,9.87,3.89l-3.52,4.04c-1.93-1.76-3.9-2.84-6.4-2.85-4.22-.01-7.27,3.49-7.28,7.79v.07c-.01,4.29,2.95,7.88,7.24,7.89,2.86,0,4.62-1.14,6.6-2.92l3.5,3.55c-2.59,2.75-5.45,4.46-10.28,4.45-7.37-.02-12.83-5.72-12.82-12.92Z"/>
          <path class="cls-2" d="M185.24,37.49h5.51s-.03,10.97-.03,10.97l10.19-10.93,6.66.02-10.23,10.6,10.64,14.46-6.62-.02-7.74-10.69-2.91,3-.02,7.66h-5.51s.07-25.07.07-25.07Z"/>
          <path class="cls-2" d="M220.23,37.58l10.23.03c5.98.02,9.59,3.57,9.57,8.69v.07c-.02,5.8-4.53,8.79-10.16,8.78h-4.19s-.02,7.51-.02,7.51h-5.51s.07-25.07.07-25.07ZM230.08,50.24c2.75,0,4.37-1.64,4.37-3.78v-.07c0-2.47-1.71-3.8-4.46-3.81h-4.26s-.02,7.65-.02,7.65h4.37Z"/>
          <path class="cls-2" d="M243.6,50.24v-.07c.02-7.12,5.65-12.94,13.39-12.92,7.73.02,13.26,5.8,13.25,12.92v.07c-.02,7.12-5.65,12.94-13.39,12.92-7.73-.02-13.27-5.79-13.25-12.92ZM264.48,50.3v-.07c.01-4.3-3.14-7.89-7.57-7.9-4.44-.01-7.53,3.49-7.54,7.79v.07c-.01,4.29,3.13,7.88,7.57,7.89,4.44.01,7.53-3.49,7.54-7.78Z"/>
          <path class="cls-2" d="M275.64,37.72h5.51s-.07,25.07-.07,25.07h-5.51s.07-25.07.07-25.07Z"/>
          <path class="cls-2" d="M288.07,37.76h5.08s11.7,15.47,11.7,15.47l.04-15.43h5.44s-.07,25.07-.07,25.07h-4.69s-12.1-15.97-12.1-15.97l-.04,15.93h-5.44s.07-25.07.07-25.07Z"/>
          <path class="cls-2" d="M322.83,42.93l-7.62-.02v-5.08s20.78.05,20.78.05v5.08s-7.63-.02-7.63-.02l-.05,19.98h-5.52s.05-19.99.05-19.99Z"/>
        </g>
        <path class="cls-2" d="M59.91,36.28c-3.15,1.45-6.92,1.42-10.16-.42l-8.95,11.88c1.12,1.3,1.73,2.93,1.8,4.6.06,1.49-.32,3.01-1.19,4.35-2.24,3.47-6.89,4.46-10.35,2.22-1.2-.77-2.09-1.83-2.67-3.03-1.01-2.09-1.02-4.6.12-6.77l-7.2-5.42-2.24,2.97-8.24-6.2,6.2-8.24,8.24,6.2-2.24,2.97,7.28,5.48c2.27-1.9,5.52-2.32,8.23-.92l8.91-11.83c-3.56-3.48-4.46-9.05-1.83-13.55.52-.89,1.14-1.67,1.84-2.35-4.85-3.31-10.7-5.25-17.02-5.27C13.67,12.91.04,26.47,0,43.24c-.04,16.77,13.52,30.4,30.29,30.45,16.77.04,30.4-13.52,30.45-30.29,0-2.45-.29-4.83-.83-7.12Z"/>
        <polygon class="cls-2" points="47.46 18.22 47.46 18.22 47.47 18.22 47.46 18.22"/>
        <polygon class="cls-2" points="59.91 36.28 59.91 36.28 59.91 36.28 59.91 36.28"/>
        <path class="cls-1" d="M42.6,52.34c.06,1.49-.32,3.01-1.19,4.35-2.24,3.47-6.89,4.46-10.35,2.22-1.2-.77-2.09-1.83-2.67-3.03C12.39,54.78,1.46,36.31,1.26,43.34c-.39,13.82,11.86,28.32,28.63,28.37,16.77.04,28.51-14.04,28.54-28.22.01-5.21-6.13,3.55-15.83,8.85Z"/>
        <path class="cls-2" d="M75.26,18.5c-3.94,4.89-11.1,5.68-15.99,1.74-4.89-3.94-5.67-11.1-1.73-16,3.94-4.89,11.1-5.67,15.99-1.73,4.9,3.93,5.67,11.1,1.73,15.99Z"/>
        <g>
          <path class="cls-2" d="M45.62,20.57c.15-.27.34-.5.51-.75-5.35-3.64-12.61-5.6-19.35-4.58-7.23.93-13.99,5.09-17.94,9.67-4.12,4.46-5.72,8.55-5.79,8.76,25.91-15.83,31.12-.3,42.18,3.4l2.22-2.95c-3.56-3.48-4.46-9.05-1.83-13.55Z"/>
          <path class="cls-2" d="M48.32,37.76c1.73.18,3.63.05,5.76-.51-1.48-.15-2.95-.61-4.33-1.39l-1.43,1.9Z"/>
        </g>
        <path class="cls-2" d="M31.06,58.91c-3.29-2.13-4.35-6.4-2.55-9.8l-7.2-5.42-2.24,2.97-8.24-6.2,6.2-8.24,8.24,6.2-2.24,2.97,7.28,5.48c2.27-1.9,5.52-2.32,8.23-.92l8.91-11.83c-3.56-3.48-4.46-9.05-1.83-13.55.52-.89,1.14-1.67,1.84-2.35-4.85-3.31-10.7-5.25-17.02-5.27C13.67,12.91.04,26.47,0,43.24c-.04,16.77,13.52,30.4,30.29,30.45l.77-14.78Z"/>
      </g>
      <g>
        <path class="cls-2" d="M341.21,41.36h-.61s0-2.9,0-2.9h-1.1s0-.57,0-.57h2.81s0,.57,0,.57h-1.1s0,2.9,0,2.9Z"/>
        <path class="cls-2" d="M344.96,40.52h-.02s-1.08-1.63-1.08-1.63v2.47s-.61,0-.61,0v-3.46s.66,0,.66,0l1.05,1.64,1.06-1.64h.65s0,3.47,0,3.47h-.6s0-2.49,0-2.49l-1.1,1.63Z"/>
      </g>
    </g>
  </g>
</svg>