<?xml version="1.0" encoding="UTF-8"?>
<svg id="Layer_2" data-name="Layer 2" xmlns="http://www.w3.org/2000/svg" viewBox="0 0 251.32 82.94">
  <defs>
    <style>
      .cls-1 {
        fill: #fff;
      }
    </style>
  </defs>
  <g id="Layer_1-2" data-name="Layer 1">
    <g id="H9tkeb">
      <g>
        <path class="cls-1" d="M0,71.14c.53-1.73,1.12-3.44,2.34-4.84,2.86-3.28,6.51-4.33,10.67-3.53,3.83.74,6.4,3.08,7.75,6.73.46,1.23.38,1.3-.89,1.31-.63,0-1.26-.05-1.88.01-1.55.14-2.7-.13-3.79-1.56-1.75-2.29-5.13-2.12-7.08,0-2.01,2.2-1.74,5.68.6,7.51,2.3,1.81,5.32,1.3,6.99-1.21.3-.45.61-.69,1.17-.68,1.32.03,2.65.03,3.98,0,.73-.01,1.02.16.74.97-1.27,3.77-5.21,6.81-9.2,7.03-5.84.31-9.64-2.43-11.26-8.12-.03-.1-.09-.19-.13-.28,0-1.12,0-2.23,0-3.35Z"/>
        <path class="cls-1" d="M167.32,53.99c-12.91,0-25.83,0-38.74,0-1.79,0-1.96-.16-2.13-1.91-.92-9.85,6.5-18.75,16.36-19.58.9-.08,1.08-.34.98-1.21-.62-5.23,1.15-9.51,5.5-12.5,4.4-3.02,9.02-2.91,13.65-.42,1.11.59,1.1.61,1.56-.55C169.19,6.22,180.58-.85,193.07.08c12.1.9,22.44,9.81,25.23,21.7.13.55.04,1.03-.15,1.52-.66,1.72-1.33,3.45-2,5.17-2.47,6.34-7.83,10.1-14.66,10.21-4.95.08-9.91.06-14.87.12-8.72.1-17.45.23-26.17.35-.28,0-.57,0-.83.06-.48.13-.82.49-.83.96,0,.55.53.56.93.64.24.04.49.02.73.03,8.55.09,17.1.17,25.65.26,5.3.06,10.61.11,15.91.2,4.02.07,6.85,2.59,7.1,6.35.14,2.03-.78,3.87-1.28,5.78-.11.41-.55.51-.94.54-.42.03-.84.03-1.26.03-12.77,0-25.55,0-38.32,0Z"/>
        <path class="cls-1" d="M227.85,53.4c-5.2,0-10.4,0-15.6,0-1.43,0-1.47-.06-1.17-1.41,1.17-5.29,6.1-9.7,12.01-10.72,1.93-.33,3.89-.26,5.84-.41,1.43-.11,2.86-.16,4.28-.23.53-.02.93-.24,1.19-.72.23-.43.14-.77-.31-.91-.39-.13-.81-.21-1.23-.23-2.72-.16-5.43-.3-8.15-.44-4.65-.24-7.53-4.25-6.24-8.7.54-1.87,1.11-3.74,1.64-5.62.23-.83.7-1.16,1.58-1.18,12.28-.27,22.78,9.01,23.99,21.15.28,2.83-.13,5.54-.72,8.28-.19.9-.62,1.16-1.51,1.16-5.2-.03-10.4-.02-15.6-.01Z"/>
        <path class="cls-1" d="M58.2,62.32c6.04,0,10.51,4.29,10.51,10.08,0,5.79-4.56,10.16-10.39,10.33-5.9.16-10.81-4.31-10.79-10.2.03-6.34,5.35-10.52,10.67-10.2ZM58.77,77.42c2.59.05,4.3-1.9,4.38-5.01.08-2.79-2.06-5.16-4.72-5.23-2.71-.07-4.98,2.13-5.05,4.89-.08,3.1,2.12,5.29,5.39,5.35Z"/>
        <path class="cls-1" d="M102.01,72.66c0-2.85.03-5.71-.02-8.56-.02-.97.23-1.38,1.28-1.33,3.13.15,6.28-.27,9.39.36,5.14,1.04,8.14,4.61,8.05,9.54-.09,5.01-3.39,8.76-8.51,9.56-3.15.5-6.34.15-9.5.23-.76.02-.68-.55-.68-1.02,0-2.92,0-5.85,0-8.77ZM107.4,72.54h0v2.19q0,2.71,2.7,2.66c2.5-.05,4.51-1.87,4.81-4.35.28-2.32-1.25-4.56-3.55-5.24-1.03-.3-2.08-.11-3.11-.18-.65-.04-.86.25-.85.86.02,1.35,0,2.71,0,4.06Z"/>
        <path class="cls-1" d="M201.42,72.61c0-2.89.02-5.78-.02-8.67-.01-.82.19-1.18,1.1-1.17,3,.04,6-.02,9,.01,3.52.04,6.42,2.17,7.17,5.17.68,2.73-.4,5.51-2.86,7.05-.77.48-.7.81-.25,1.44,1.19,1.68,2.33,3.39,3.48,5.09.15.22.44.46.32.73-.16.35-.55.2-.84.2-1.43.02-2.86-.02-4.29.02-.63.02-1.03-.2-1.37-.73-.96-1.5-1.96-2.96-2.95-4.44-.45-.66-1.89-1.03-2.6-.69-.42.2-.32.58-.32.91-.01,1.36-.03,2.72,0,4.08.02.72-.32.89-.95.87-1.22-.03-2.44-.04-3.66,0-.75.03-.95-.28-.95-.98.03-2.96.01-5.92.01-8.88ZM209.23,67.85c-.52,0-1.04.01-1.56,0-.48-.02-.71.18-.7.67.01,1.08,0,2.15,0,3.23,0,.35.1.62.51.65,1.57.09,3.13.08,4.59-.6.82-.38,1.31-1.05,1.21-2-.1-.93-.69-1.48-1.57-1.74-.81-.25-1.65-.22-2.48-.2Z"/>
        <path class="cls-1" d="M226.42,72.67c0-2.86.03-5.71-.02-8.57-.02-.96.22-1.35,1.28-1.34,4.5.05,9,.05,13.5,0,1.03-.01,1.37.35,1.29,1.33-.06.76-.04,1.53,0,2.3.04.77-.29,1.03-1.05,1.02-2.76-.03-5.51.02-8.27-.03-.88-.02-1.22.27-1.11,1.13.03.24.03.49,0,.73-.09.77.21,1.04,1,1.02,2.37-.04,4.75.04,7.12-.04,1.1-.04,1.43.35,1.32,1.37-.07.62-.08,1.26,0,1.88.14,1.11-.36,1.35-1.38,1.32-2.34-.07-4.67.01-7.01-.04-.85-.02-1.14.28-1.05,1.09.03.27.03.56,0,.83-.08.74.25.96.97.96,2.83-.03,5.65.03,8.48-.03.98-.02,1.31.31,1.24,1.26-.07.9-.03,1.81-.01,2.72.01.59-.17.9-.83.89-4.88-.02-9.77-.02-14.65,0-.8,0-.8-.48-.8-1.03,0-2.93,0-5.85,0-8.78Z"/>
        <path class="cls-1" d="M191.09,82.47c-1.9.62-3.12-.39-3.62-2.53-.18-.75-.69-.92-1.41-.91-1.85.03-3.7.04-5.55,0-.77-.02-1.31.2-1.47.99-.43,2.16-1.77,2.83-3.83,2.47-.61-.1-1.25-.01-1.88-.02-1.12-.01-1.15-.05-.7-1.12,1.22-2.89,2.45-5.77,3.68-8.65,1.31-3.08,2.64-6.14,3.92-9.23.29-.69.67-.95,1.41-.92,1.22.05,2.44.04,3.66,0,.61-.02.94.19,1.18.77,2.57,6.1,5.17,12.19,7.77,18.27.3.7.15.94-.61.9-.73-.04-1.47,0-2.56,0ZM183.38,69.45c-.7,1.73-1.3,3.19-1.9,4.65-.18.44.07.56.45.56.97,0,1.95,0,2.92,0,.41,0,.61-.13.43-.55-.6-1.47-1.2-2.93-1.91-4.66Z"/>
        <path class="cls-1" d="M93.76,70.02c-.03,1.8.16,4.04-.27,6.24-.76,3.89-3.25,6.17-7.2,6.59-2,.21-3.97.07-5.87-.65-3.24-1.23-4.87-3.71-5.03-7.03-.17-3.82-.06-7.66-.09-11.49,0-.7.29-.91.94-.9,1.19.02,2.37.04,3.56,0,.83-.04,1.08.28,1.07,1.09-.04,3.2-.01,6.41-.01,9.61,0,.59.02,1.18.18,1.76.55,2,2.09,2.92,4.37,2.59,1.67-.25,2.76-1.64,2.76-3.51,0-3.45.02-6.9-.03-10.34-.01-.91.26-1.25,1.19-1.2,1.11.07,2.23.06,3.35,0,.81-.04,1.12.26,1.11,1.08-.04,1.91-.01,3.83-.01,6.17Z"/>
        <path class="cls-1" d="M128.33,72.64c0-2.92.02-5.85-.02-8.77-.01-.8.22-1.1,1.06-1.1,4.53.03,9.07.03,13.6,0,.89,0,1.16.33,1.11,1.17-.05.83-.06,1.67,0,2.5.06.89-.22,1.23-1.17,1.21-2.65-.06-5.3.01-7.95-.04-.87-.02-1.15.24-1.12,1.11.09,2.32-.3,1.96,2.01,1.99,2.06.02,4.11.03,6.17,0,.75-.01,1.09.2,1.04,1-.05.87-.05,1.74,0,2.61.05.79-.28,1.03-1.04,1.02-2.37-.03-4.74.02-7.11-.02-.81-.01-1.1.23-1.07,1.07.06,1.7,0,3.41.03,5.12.01.7-.18,1.02-.94.99-1.22-.05-2.44-.05-3.66,0-.73.03-.97-.24-.96-.96.03-2.96.01-5.92.01-8.88Z"/>
        <path class="cls-1" d="M151.59,72.63c0-2.93.02-5.85-.02-8.78-.01-.83.27-1.12,1.09-1.08,1.11.05,2.24.06,3.35,0,.93-.06,1.21.3,1.2,1.2-.03,4.04-.02,8.08-.01,12.12q0,1.54,1.55,1.54c2.23,0,4.47.03,6.7-.01.88-.02,1.18.3,1.13,1.15-.06.94-.03,1.88,0,2.82.01.59-.17.89-.83.89-4.43-.02-8.86-.02-13.29,0-.73,0-.87-.35-.86-.97.02-2.96,0-5.92,0-8.88Z"/>
        <path class="cls-1" d="M26.97,72.57c0-2.93.02-5.85-.02-8.78-.01-.79.26-1.05,1.03-1.02,1.15.04,2.3.05,3.45,0,.82-.04,1.09.24,1.08,1.07-.04,4.18.02,8.36-.04,12.54-.01,1.04.32,1.29,1.31,1.26,2.37-.06,4.74,0,7.12-.03.76-.01,1.08.22,1.03,1.01-.06,1.01-.03,2.02,0,3.03.01.57-.18.82-.78.81-4.47-.01-8.93-.02-13.4,0-.8,0-.78-.47-.78-1.02,0-2.96,0-5.92,0-8.88Z"/>
        <path class="cls-1" d="M246.82,65.08c0-1.24,1.01-2.27,2.23-2.28,1.26,0,2.31,1.07,2.28,2.35-.03,1.23-1.07,2.25-2.29,2.22-1.23-.02-2.22-1.05-2.21-2.29ZM250.04,66.33c.77-.74.87-1.69.25-2.37-.61-.67-1.68-.71-2.35-.09-.68.63-.7,1.4,0,2.19.02-.51.03-.96.07-1.4.1-.97.85-.65,1.37-.61.6.05.91.51.59,1.04-.31.5-.08.84.09,1.25-.35.05-.6-.09-.81-.37-.12-.17-.32-.34-.52-.14-.16.16-.33.42-.32.62.03.31.36.25.6.26.4.02.77-.05,1.03-.39Z"/>
      </g>
    </g>
  </g>
</svg>