<?xml version="1.0" encoding="UTF-8"?>
<svg id="Layer_2" data-name="Layer 2" xmlns="http://www.w3.org/2000/svg" xmlns:xlink="http://www.w3.org/1999/xlink" viewBox="0 0 510.9 52.68">
  <defs>
    <style>
      .cls-1 {
        clip-path: url(#clippath-1);
      }

      .cls-2 {
        fill: #fff;
      }

      .cls-3 {
        clip-path: url(#clippath);
      }
    </style>
    <clipPath id="clippath">
      <path class="cls-2" d="M369.75,45.08s.01.02.02.03c0,0-.01-.02-.02-.03Z"/>
    </clipPath>
    <clipPath id="clippath-1">
      <path class="cls-2" d="M324.79,52.68h11.07c2.14-9.34,9.64-16.24,18.57-16.24.26,0,.52,0,.78.02.09,0,.17.01.25.02.18.01.35.02.52.04.1,0,.2.02.3.03.16.02.32.04.47.06.1.01.21.03.31.05.15.02.3.05.46.08.1.02.2.04.31.06.15.03.3.07.46.1.1.02.2.04.29.07.16.04.33.09.49.13.08.02.16.04.24.07.24.07.47.15.71.23.07.02.13.05.19.07.17.06.34.12.51.19.1.04.19.08.29.12.14.06.27.11.41.17.1.05.21.09.31.14.12.06.25.12.37.18.11.05.21.11.32.16.12.06.24.13.35.19.1.06.21.11.31.18.11.07.23.13.34.2.1.06.21.12.31.19.11.07.23.15.34.22.1.06.2.13.29.19.2.13.39.27.58.41.11.08.21.16.31.24.09.07.19.15.28.22.11.09.21.18.32.27.09.07.17.15.26.22.11.09.21.19.32.28.08.07.16.15.24.23.11.1.21.2.31.3.08.08.15.15.23.23.1.11.21.21.31.32.07.07.14.15.2.22.11.12.21.23.32.35.04.05.09.1.13.15.39.45.76.93,1.12,1.42.05.07.09.13.14.19.1.14.19.28.29.42,0,0,0,0,0,.01,0,0,.01.02.02.03,0,0,0,0,0,0-4.49-6.97-12.14-11.57-20.83-11.57-11.55,0-21.26,8.11-24.15,19.13"/>
    </clipPath>
  </defs>
  <g id="Layer_1-2" data-name="Layer 1">
    <g>
      <g>
        <path class="cls-2" d="M385.43,52.68L355.75,1.35c-.48-.81-1.37-1.35-2.39-1.35s-1.92.54-2.4,1.35l-7.38,12.92s12.49,7.35,22.16,22.72c-4.48-4.38-10.51-7.07-17.16-7.07-16.34,0-27.31,22.75-27.31,22.75h14.58c2.14-9.34,9.64-16.24,18.57-16.24.26,0,.52,0,.78.02.09,0,.17.01.25.02.18.01.35.02.52.04.1,0,.2.02.3.03.16.02.32.04.47.06.1.01.21.03.31.05.15.02.3.05.46.08.1.02.2.04.31.06.15.03.3.07.46.1.1.02.2.04.29.07.16.04.33.09.49.13.08.02.16.04.24.07.24.07.47.15.71.23.07.02.13.05.19.07.17.06.34.12.51.19.1.04.19.08.29.12.14.06.27.11.41.17.1.05.21.09.31.14.12.06.25.12.37.18.11.05.21.11.32.16.12.06.24.13.35.19.1.06.21.11.31.18.11.07.23.13.34.2.1.06.21.12.31.19.11.07.23.15.34.22.1.06.2.13.29.19.2.13.39.27.58.41.11.08.21.16.31.24.09.07.19.15.28.22.11.09.21.18.32.27.09.07.17.15.26.22.11.09.21.19.32.28.08.07.16.15.24.23.11.1.21.2.31.3.08.08.15.15.23.23.1.11.21.21.31.32.07.07.14.15.2.22.11.12.21.23.32.35.04.05.09.1.13.15.39.45.76.93,1.12,1.42.05.07.09.13.14.19.1.14.19.28.29.42.05.07.1.15.15.23.09.14.18.28.27.42.05.08.1.16.14.24.09.14.17.29.26.44.04.08.09.15.13.23.08.15.17.31.25.47.03.07.07.13.1.2.3.6.58,1.21.84,1.84,0,.02.02.04.02.06h0c.41,1.04.76,2.11,1.03,3.22.03.1.05.19.07.27h12.43Z"/>
        <g>
          <path class="cls-2" d="M369.75,45.08s.01.02.02.03c0,0-.01-.02-.02-.03Z"/>
          <g class="cls-3">
            <rect class="cls-2" x="369.75" y="45.08" width=".02" height=".03"/>
          </g>
        </g>
        <g>
          <path class="cls-2" d="M324.79,52.68h11.07c2.14-9.34,9.64-16.24,18.57-16.24.26,0,.52,0,.78.02.09,0,.17.01.25.02.18.01.35.02.52.04.1,0,.2.02.3.03.16.02.32.04.47.06.1.01.21.03.31.05.15.02.3.05.46.08.1.02.2.04.31.06.15.03.3.07.46.1.1.02.2.04.29.07.16.04.33.09.49.13.08.02.16.04.24.07.24.07.47.15.71.23.07.02.13.05.19.07.17.06.34.12.51.19.1.04.19.08.29.12.14.06.27.11.41.17.1.05.21.09.31.14.12.06.25.12.37.18.11.05.21.11.32.16.12.06.24.13.35.19.1.06.21.11.31.18.11.07.23.13.34.2.1.06.21.12.31.19.11.07.23.15.34.22.1.06.2.13.29.19.2.13.39.27.58.41.11.08.21.16.31.24.09.07.19.15.28.22.11.09.21.18.32.27.09.07.17.15.26.22.11.09.21.19.32.28.08.07.16.15.24.23.11.1.21.2.31.3.08.08.15.15.23.23.1.11.21.21.31.32.07.07.14.15.2.22.11.12.21.23.32.35.04.05.09.1.13.15.39.45.76.93,1.12,1.42.05.07.09.13.14.19.1.14.19.28.29.42,0,0,0,0,0,.01,0,0,.01.02.02.03,0,0,0,0,0,0-4.49-6.97-12.14-11.57-20.83-11.57-11.55,0-21.26,8.11-24.15,19.13"/>
          <g class="cls-1">
            <rect class="cls-2" x="324.79" y="33.55" width="44.98" height="19.13"/>
          </g>
        </g>
        <path class="cls-2" d="M398.69,52.68c-8.09,0-12.73-5.55-12.73-13.8s4.53-14.41,12.62-14.41c2.14,0,4.28.41,5.35.82v-13.08h3v38.59c-1.48.92-4.94,1.88-8.25,1.88M403.93,27.73c-.91-.35-3.31-.76-5.19-.76-6.41,0-9.77,5.04-9.77,11.86s3.41,11.35,9.67,11.35c1.93,0,4.43-.56,5.29-1.07v-21.38Z"/>
        <path class="cls-2" d="M416.77,18.62c-1.17,0-2.14-.92-2.14-2.09s.97-2.09,2.14-2.09,2.09.92,2.09,2.09-.91,2.09-2.09,2.09M415.24,24.73h3v27.44h-3v-27.44Z"/>
        <path class="cls-2" d="M432.75,52.68c-2.75,0-5.91-.76-7.84-1.88l1.17-2.34c1.53.92,4.38,1.73,6.62,1.73,4.02,0,6.72-1.99,6.72-5.09,0-3.31-2.65-4.53-6.21-5.86-4.07-1.53-7.58-3.21-7.58-7.94,0-3.97,3.16-7.08,8.7-7.08,2.9,0,5.5.81,7.23,1.88l-1.17,2.24c-1.27-.87-3.61-1.68-5.85-1.68-3.72,0-5.86,2.09-5.86,4.63,0,3.31,2.49,4.38,5.86,5.65,4.28,1.63,7.99,3.21,7.99,8.2,0,4.53-3.72,7.53-9.77,7.53"/>
        <path class="cls-2" d="M458.05,52.42c-4.07,0-6.97-2.24-6.97-6.87v-18.53h-4.27v-2.29h4.27v-6.82l2.9-1.12v7.94h6.21v2.29h-6.21v18.43c0,3.05,2.09,4.33,4.53,4.33.61,0,1.27-.1,1.68-.25v2.6c-.46.2-1.17.31-2.14.31"/>
        <path class="cls-2" d="M486.87,37.2l-19.24,2.85c.41,6.72,4.18,10.13,9.98,10.13,2.75,0,5.7-.71,7.43-1.73l1.02,2.34c-1.83,1.07-5.09,1.88-8.55,1.88-7.84,0-12.78-4.94-12.78-14.25,0-8.45,4.43-14.2,11.61-14.2,6.36,0,10.59,4.12,10.59,11.35,0,.51,0,1.02-.05,1.63M476.33,26.61c-5.39,0-8.71,4.43-8.86,11.15l16.54-2.39c-.05-5.96-3.1-8.76-7.69-8.76"/>
        <path class="cls-2" d="M504.38,52.68c-5.55,0-11.56-4.02-11.56-14.25s6.01-14.2,11.56-14.2c2.54,0,4.94.81,6.52,1.88l-1.07,2.24c-1.32-.92-3.31-1.58-5.24-1.58-4.18,0-8.7,3.05-8.7,11.66s4.58,11.66,8.7,11.66c1.93,0,3.92-.66,5.24-1.58l1.07,2.29c-1.68,1.12-3.97,1.88-6.52,1.88"/>
      </g>
      <path class="cls-2" d="M272.89,40.52c-.35,0-.65-.11-.88-.35-.23-.23-.35-.52-.35-.88v-11.05h-10.89c-.35,0-.65-.11-.88-.35-.23-.23-.35-.52-.35-.88v-1.7c0-.35.11-.65.35-.88s.52-.35.88-.35h10.89v-10.73c0-.35.11-.65.35-.88.23-.23.52-.35.88-.35h1.86c.35,0,.65.12.88.35.23.23.35.52.35.88v10.73h10.95c.35,0,.65.12.88.35.23.23.35.52.35.88v1.7c0,.35-.12.65-.35.88s-.52.35-.88.35h-10.95v11.05c0,.35-.12.65-.35.88s-.52.35-.88.35h-1.86Z"/>
      <g>
        <path class="cls-2" d="M28.74,35.79c-.05-.25-.21-.46-.43-.58l-3.21-1.76c-.4-.22-.89-.1-1.15.28-.79,1.18-1.87,2.15-3.21,2.89-1.32.74-2.79,1.11-4.35,1.11s-2.97-.28-4.27-.84c-1.3-.55-2.44-1.34-3.4-2.33-.96-1-1.72-2.21-2.26-3.6-.54-1.4-.82-2.95-.82-4.61s.28-3.25.82-4.63c.54-1.38,1.3-2.59,2.26-3.58.95-1,2.1-1.78,3.4-2.34,1.3-.55,2.74-.83,4.27-.83s3.02.38,4.34,1.13c1.34.76,2.42,1.73,3.22,2.88.26.37.75.49,1.15.27l3.17-1.76c.22-.12.37-.33.43-.57.05-.24,0-.5-.14-.7-.64-.89-1.37-1.72-2.17-2.48-.81-.77-1.74-1.45-2.75-2.02-1.01-.58-2.13-1.03-3.33-1.35-1.2-.32-2.52-.48-3.91-.48-2.27,0-4.43.4-6.41,1.19-1.98.79-3.74,1.93-5.22,3.38-1.48,1.45-2.66,3.2-3.5,5.22-.84,2.01-1.27,4.27-1.27,6.69s.43,4.68,1.27,6.69c.84,2.01,2.02,3.77,3.5,5.22,1.48,1.45,3.24,2.58,5.22,3.38,1.98.79,4.14,1.19,6.41,1.19,2.83,0,5.28-.61,7.27-1.82,1.94-1.19,3.6-2.7,4.93-4.5.15-.2.2-.46.15-.71"/>
        <path class="cls-2" d="M47.32,37.72c-1.56,0-2.98-.29-4.23-.85-1.25-.56-2.33-1.36-3.21-2.36-.89-1.01-1.57-2.22-2.05-3.6-.48-1.39-.72-2.93-.72-4.58s.24-3.2.72-4.6c.47-1.39,1.16-2.6,2.04-3.59.88-.99,1.96-1.77,3.21-2.34,1.25-.56,2.68-.85,4.23-.85s2.97.29,4.21.85c1.24.56,2.31,1.35,3.19,2.34.88.99,1.58,2.21,2.07,3.6.49,1.41.74,2.96.74,4.6s-.25,3.18-.74,4.57c-.49,1.38-1.19,2.59-2.07,3.61-.88,1-1.95,1.8-3.19,2.36-1.24.56-2.65.85-4.21.85M58.8,14.59c-1.39-1.48-3.08-2.66-5.02-3.49-1.94-.83-4.11-1.25-6.45-1.25s-4.51.42-6.45,1.25c-1.94.83-3.63,2-5.02,3.49-1.38,1.48-2.47,3.24-3.23,5.24-.76,1.99-1.14,4.18-1.14,6.51s.38,4.52,1.14,6.51c.76,2,1.85,3.76,3.23,5.24,1.39,1.49,3.08,2.66,5.02,3.49,1.94.83,4.11,1.25,6.45,1.25s4.51-.42,6.45-1.25c1.94-.83,3.63-2,5.02-3.49,1.38-1.48,2.47-3.24,3.23-5.24.76-1.99,1.14-4.18,1.14-6.51s-.38-4.52-1.14-6.51c-.76-2-1.85-3.76-3.23-5.24"/>
        <path class="cls-2" d="M93.27,10.35h-3.76c-.48,0-.87.39-.87.87v12.11h-15.89v-12.11c0-.48-.39-.87-.88-.87h-3.76c-.48,0-.87.39-.87.87v30.17c0,.48.39.87.87.87h3.76c.48,0,.88-.39.88-.87v-12.97h15.89v12.97c0,.48.39.87.87.87h3.76c.48,0,.87-.39.87-.87V11.23c0-.48-.39-.87-.87-.87"/>
        <path class="cls-2" d="M121.29,15.45c.48,0,.87-.39.87-.87v-3.35c0-.48-.39-.87-.87-.87h-21.17c-.48,0-.87.39-.87.87v30.17c0,.48.39.87.87.87h21.17c.48,0,.87-.39.87-.87v-3.35c0-.48-.39-.87-.87-.87h-16.54v-8.66h15.52c.48,0,.87-.39.87-.88v-3.35c0-.48-.39-.87-.87-.87h-15.52v-7.98h16.54"/>
        <path class="cls-2" d="M162.82,10.35h-3.75c-.48,0-.87.39-.87.88v30.17c0,.48.39.87.87.87h3.75c.48,0,.88-.39.88-.87V11.23c0-.48-.39-.88-.88-.88"/>
        <path class="cls-2" d="M193.09,10.35h-24.24c-.48,0-.87.39-.87.87v3.35c0,.48.39.87.87.87h9.37v25.95c0,.48.39.87.87.87h3.76c.48,0,.87-.39.87-.87V15.45h9.37c.48,0,.87-.39.87-.87v-3.35c0-.48-.39-.87-.87-.87"/>
        <path class="cls-2" d="M225.9,10.82c-.15-.29-.45-.47-.77-.47h-4.39c-.29,0-.57.15-.73.39l-8.64,12.93-8.64-12.93c-.16-.24-.44-.39-.73-.39h-4.39c-.32,0-.62.18-.77.47-.15.29-.13.63.05.9l11.7,17.19v12.49c0,.48.39.87.87.87h3.8c.48,0,.87-.39.87-.87v-12.49l11.7-17.19c.18-.27.2-.62.05-.9"/>
        <path class="cls-2" d="M150.34,10.35h-12.58c-6.81,0-12.31,5.58-11.77,12.37.47,5.88,5.41,10.53,11.41,10.53h4.36c1.15,0,2.21-.78,2.43-1.91.3-1.52-.87-2.86-2.34-2.86h-4.19c-3.57,0-6.71-2.69-6.93-6.25-.24-3.88,2.84-7.11,6.67-7.11l11.93-.02c.41,0,.77-.27.89-.67l.9-3.04c.15-.52-.23-1.04-.77-1.04"/>
        <path class="cls-2" d="M141.97,19.38h-4.39c-1.14,0-2.17.77-2.4,1.88-.31,1.53.85,2.88,2.33,2.88h4.22c3.56,0,6.67,2.68,6.9,6.22.26,3.89-2.83,7.14-6.67,7.14h-12.07c-.34,0-.64.22-.73.55l-.94,3.21c-.15.5.23,1,.75,1h12.69c6.41,0,11.86-5.24,11.75-11.65-.11-6.22-5.2-11.25-11.45-11.25"/>
      </g>
    </g>
  </g>
</svg>