<?xml version="1.0" encoding="UTF-8" standalone="no" ?>
<!DOCTYPE svg PUBLIC "-//W3C//DTD SVG 1.1//EN" "http://www.w3.org/Graphics/SVG/1.1/DTD/svg11.dtd">
<svg xmlns="http://www.w3.org/2000/svg" xmlns:xlink="http://www.w3.org/1999/xlink" version="1.1" width="700" height="300" viewBox="0 0 700 300" xml:space="preserve">
<desc>Created with Fabric.js 5.2.4</desc>
<defs>
</defs>
<rect x="0" y="0" width="100%" height="100%" fill="transparent"></rect>
<g transform="matrix(1 0 0 1 350 150)" id="79d0f1a2-a4b3-477c-94a1-d4ce2089ce10"  >
<rect style="stroke: none; stroke-width: 1; stroke-dasharray: none; stroke-linecap: butt; stroke-dashoffset: 0; stroke-linejoin: miter; stroke-miterlimit: 4; fill: rgb(255,255,255); fill-rule: nonzero; opacity: 1; visibility: hidden;" vector-effect="non-scaling-stroke"  x="-350" y="-150" rx="0" ry="0" width="700" height="300" />
</g>
<g transform="matrix(Infinity NaN NaN Infinity 0 0)" id="df99b686-d254-43a4-bc3c-383850a77888"  >
</g>
<g transform="matrix(1.16 0 0 1.16 350 150)"  >
<g style="" vector-effect="non-scaling-stroke"   >
		<g transform="matrix(1 0 0 1 -169.45 -0.25)"  >
<polygon style="stroke: none; stroke-width: 1; stroke-dasharray: none; stroke-linecap: butt; stroke-dashoffset: 0; stroke-linejoin: miter; stroke-miterlimit: 4; fill: rgb(0,0,0); fill-rule: nonzero; opacity: 1;" vector-effect="non-scaling-stroke"  points="94.5,11.35 125.4,-84.65 89.3,-84.65 71,-27.75 70.8,-29.95 70.7,-32.05 70.4,-34.05 70.1,-36.15 69.7,-38.15 69.2,-40.25 68.7,-42.25 68.1,-44.25 67.4,-46.25 66.8,-48.15 65.9,-50.15 65.1,-52.05 64.1,-53.85 63.1,-55.75 62,-57.65 60.9,-59.45 58.5,-62.65 55.9,-65.65 53.3,-68.45 50.2,-71.15 47.2,-73.65 44,-75.85 40.5,-77.85 36.9,-79.75 33.2,-81.45 29.4,-82.95 25.5,-84.15 21.5,-85.25 17.3,-86.05 13,-86.85 8.7,-87.25 4.3,-87.45 -0.3,-87.65 -4.9,-87.45 -9.5,-87.15 -14.2,-86.65 -18.8,-85.95 -23.5,-85.05 -28.3,-83.95 -33,-82.55 -37.8,-81.05 -42.6,-79.35 -47.3,-77.35 -52.1,-75.15 -56.9,-72.85 -61.5,-70.25 -66.1,-67.55 -70.7,-64.55 -75.2,-61.45 -79.4,-58.25 -83.5,-54.85 -87.5,-51.35 -91.3,-47.85 -94.9,-44.15 -98.3,-40.35 -101.4,-36.45 -104.5,-32.45 -107.4,-28.55 -109.9,-24.45 -112.4,-20.45 -114.6,-16.25 -116.6,-12.05 -118.5,-7.85 -120.1,-3.65 -121.6,0.45 -122.8,4.75 -123.7,8.95 -124.4,13.15 -125,17.35 -125.2,21.55 -125.4,25.55 -125.2,29.55 -124.8,33.55 -124.1,37.45 -123.4,41.45 -122.3,45.15 -120.8,48.75 -119.2,52.45 -117.3,55.95 -115.2,59.35 -113,62.45 -110.5,65.35 -107.9,68.15 -105.1,70.65 -102.2,73.05 -99.2,75.25 -96,77.25 -92.6,79.15 -89.1,80.85 -85.6,82.35 -81.8,83.65 -78,84.75 -74.1,85.65 -70,86.45 -66,87.15 -61.8,87.45 -57.5,87.65 -53.3,87.65 -48.9,87.55 -44.4,87.25 -40,86.75 -35.5,85.95 -31,85.25 -26.4,84.15 -21.9,82.85 -17.4,81.45 -12.8,79.85 -8.2,77.95 -3.8,76.05 0.7,73.85 5.2,71.45 9.7,68.95 9.7,61.75 5.9,63.75 2.2,65.55 -1.6,67.25 -5.4,68.75 -9.3,70.15 -13.1,71.35 -16.9,72.45 -20.7,73.35 -24.6,74.15 -28.3,74.75 -32,75.25 -35.8,75.55 -39.5,75.75 -43.1,75.75 -46.8,75.65 -50.3,75.25 -53.8,74.85 -57.2,74.25 -60.5,73.55 -63.8,72.75 -67,71.55 -70.1,70.45 -73.1,69.15 -76.1,67.65 -78.9,66.05 -81.5,64.35 -84.2,62.45 -86.7,60.25 -89,58.05 -91.2,55.75 -93.3,53.25 -95.2,50.55 -97.1,47.65 -98.7,44.55 -100.1,41.45 -101.3,38.15 -102.3,34.85 -103.1,31.45 -103.7,27.95 -104,24.55 -104.2,20.95 -104.2,17.35 -104,13.75 -103.6,10.05 -102.9,6.55 -102.1,2.85 -101.1,-0.85 -100,-4.55 -98.5,-8.15 -97.1,-11.85 -95.3,-15.45 -93.4,-18.95 -91.4,-22.55 -89,-26.05 -86.7,-29.45 -84.1,-32.85 -81.3,-36.15 -78.4,-39.45 -75.3,-42.65 -72,-45.85 -68.7,-48.85 -65.1,-51.75 -61.4,-54.55 -57.6,-57.15 -53.7,-59.75 -49.7,-62.15 -45.7,-64.35 -41.5,-66.35 -37.5,-68.15 -33.4,-69.85 -29.2,-71.25 -25.1,-72.65 -21,-73.75 -16.8,-74.75 -12.8,-75.45 -8.7,-76.05 -4.6,-76.55 -0.6,-76.75 3.3,-76.75 7.2,-76.65 11,-76.45 14.8,-75.95 18.5,-75.35 22.1,-74.55 25.7,-73.55 29,-72.45 32.4,-71.05 35.6,-69.65 38.7,-67.85 41.6,-66.15 44.4,-64.15 47.2,-61.85 49.7,-59.55 52.1,-57.15 54.4,-54.45 56.4,-51.45 58.1,-48.95 59.5,-46.35 60.8,-43.75 61.9,-40.95 62.8,-38.35 63.5,-35.55 64.1,-32.55 64.6,-29.65 65,-26.65 65.1,-23.65 65.2,-20.55 65.1,-17.45 64.9,-14.15 64.5,-10.95 64.1,-7.65 63.5,-4.35 62.8,-0.75 61.7,2.85 60.6,6.35 59.4,9.65 58.1,12.95 56.5,16.15 54.8,19.25 53,22.45 51,25.45 48.9,28.45 46.7,31.35 44.2,34.25 41.5,37.05 38.7,39.85 35.8,42.55 32.7,45.15 34.1,45.55 35.6,45.75 37,45.95 38.6,46.25 40.3,46.45 42,46.65 43.7,46.65 45.3,46.65 47.8,46.65 50.1,46.55 52.6,46.35 54.9,45.85 56.6,45.55 58.4,45.15 60.1,44.75 61.7,44.15 63.3,43.65 65,42.95 66.5,42.35 68.1,41.55 69.7,40.75 71.1,39.95 72.6,39.05 74.1,38.05 75.5,37.15 76.8,36.15 78.2,35.05 79.5,33.95 80.7,32.75 82,31.55 83.2,30.35 84.3,29.15 85.4,27.75 86.6,26.45 87.6,25.05 88.4,23.65 89.5,22.15 90.3,20.65 91.1,19.25 91.9,17.75 92.6,16.15 93.3,14.55 93.9,12.95 " />
</g>
		<g transform="matrix(1 0 0 1 118.55 -2.45)"  >
<polygon style="stroke: none; stroke-width: 1; stroke-dasharray: none; stroke-linecap: butt; stroke-dashoffset: 0; stroke-linejoin: miter; stroke-miterlimit: 4; fill: rgb(0,0,0); fill-rule: nonzero; opacity: 1;" vector-effect="non-scaling-stroke"  points="-39,48.85 -38.7,48.85 -38.6,48.85 -38.2,48.85 -35.6,48.85 -32.9,48.65 -30.3,48.35 -27.7,47.75 -25.2,47.15 -22.7,46.55 -20.2,45.55 -17.8,44.75 -15.4,43.65 -13.2,42.45 -11,41.15 -8.7,39.85 -6.7,38.35 -4.7,36.85 -2.7,35.15 -0.9,33.35 -5,46.35 30.7,46.35 61.7,-48.85 25.4,-48.85 8.7,2.95 8.5,3.55 7.8,5.85 7.1,7.45 6.4,9.05 5.5,10.55 4.4,11.95 3.3,13.35 2.1,14.55 0.9,15.75 -0.5,16.75 -1.9,17.85 -3.5,18.65 -5,19.35 -6.7,20.05 -8.4,20.55 -10.1,21.05 -11.9,21.25 -13.8,21.45 -14.6,21.35 -15.3,21.15 -16.1,20.95 -16.9,20.55 -17.6,20.25 -18.2,19.75 -18.8,19.35 -19.4,18.85 -19.9,18.05 -20.4,17.55 -20.7,16.75 -21,16.05 -21.4,15.35 -21.5,14.45 -21.6,13.65 -21.7,12.75 -21.5,11.35 -21.1,9.85 -2.4,-48.85 -38.5,-48.85 -60,18.05 -60.4,19.15 -60.6,20.25 -60.8,21.25 -60.9,22.35 -61.3,23.75 -61.5,25.05 -61.7,26.25 -61.7,27.65 -61.6,29.75 -61.3,31.75 -60.8,33.75 -60.2,35.65 -59.4,37.45 -58.4,39.25 -57.1,40.85 -55.9,42.25 -54.5,43.65 -52.9,44.85 -51.2,45.95 -49.4,46.85 -47.5,47.55 -45.6,48.05 -43.6,48.55 -41.5,48.65 -40.6,48.85 -39.5,48.85 -39.3,48.85 " />
</g>
		<g transform="matrix(1 0 0 1 -5.95 -19.4)"  >
<polygon style="stroke: none; stroke-width: 1; stroke-dasharray: none; stroke-linecap: butt; stroke-dashoffset: 0; stroke-linejoin: miter; stroke-miterlimit: 4; fill: rgb(0,0,0); fill-rule: nonzero; opacity: 1;" vector-effect="non-scaling-stroke"  points="38.5,-31.9 38.3,-31.9 38.1,-31.9 35.3,-31.8 32.6,-31.6 30,-31.2 27.4,-30.8 24.8,-30.2 22.3,-29.4 19.9,-28.7 17.4,-27.7 15.1,-26.5 12.8,-25.4 10.6,-24.1 8.5,-22.7 6.3,-21.2 4.4,-19.6 2.5,-17.8 0.7,-16 16.3,-65.8 -19.8,-65.8 -61.6,65.8 -25.5,65.8 -9.2,14.1 -9,13.8 -9,13.6 -8.2,11.1 -7.5,9.6 -6.6,8 -5.7,6.6 -4.7,5.1 -3.7,3.7 -2.5,2.5 -1.2,1.4 0.2,0.3 1.5,-0.7 3.1,-1.6 4.6,-2.3 6.2,-2.9 7.9,-3.5 9.7,-4 11.5,-4.3 13.3,-4.4 14.2,-4.3 14.9,-4.1 15.7,-3.8 16.5,-3.5 17.2,-3.1 17.8,-2.6 18.5,-2.2 19.1,-1.6 19.6,-0.9 20.1,-0.4 20.5,0.4 20.9,1.1 21.1,1.8 21.3,2.7 21.4,3.4 21.4,4.2 21.3,5.8 21,7.2 2,65.8 38.3,65.8 59.8,-0.9 60.1,-1.9 60.4,-2.9 60.6,-4.1 60.8,-5.2 61.1,-6.4 61.3,-7.8 61.4,-9.2 61.6,-10.5 61.4,-12.7 61.1,-14.8 60.6,-16.7 60,-18.6 59.1,-20.4 58.1,-22 56.8,-23.7 55.5,-25.2 54.2,-26.5 52.6,-27.8 50.9,-28.8 49.2,-29.8 47.2,-30.4 45.3,-31 43.3,-31.5 41.2,-31.7 40.2,-31.7 39.3,-31.9 38.9,-31.9 " />
</g>
		<g transform="matrix(1 0 0 1 -16.9 75.35)"  >
<path style="stroke: none; stroke-width: 1; stroke-dasharray: none; stroke-linecap: butt; stroke-dashoffset: 0; stroke-linejoin: miter; stroke-miterlimit: 4; fill: rgb(0,0,0); fill-rule: nonzero; opacity: 1;" vector-effect="non-scaling-stroke"  transform=" translate(-289.25, -174.95)" d="M 375.5 178.2 L 375.5 174.1 L 385.8 174.1 L 385.8 182.79999999999998 L 385.8 183.79999999999998 L 385.8 187.2 L 382 187.2 L 382 185.7 L 380.6 186.39999999999998 L 379 187 L 378.2 187.2 L 377.3 187.29999999999998 L 376.5 187.39999999999998 L 375.7 187.39999999999998 L 373.8 187.29999999999998 L 372.1 187.1 L 371.3 186.9 L 370.5 186.6 L 369.8 186.29999999999998 L 369.1 185.99999999999997 L 368.40000000000003 185.59999999999997 L 367.70000000000005 185.09999999999997 L 367.1 184.69999999999996 L 366.6 184.09999999999997 L 366.20000000000005 183.39999999999998 L 365.70000000000005 182.89999999999998 L 365.30000000000007 182.2 L 365.00000000000006 181.5 L 364.30000000000007 180 L 363.80000000000007 178.3 L 363.6000000000001 176.70000000000002 L 363.50000000000006 174.9 L 363.6000000000001 173.1 L 364.00000000000006 171.29999999999998 L 364.40000000000003 169.7 L 365.1 168.1 L 365.5 167.4 L 365.9 166.70000000000002 L 366.4 166.10000000000002 L 367 165.50000000000003 L 367.6 164.90000000000003 L 368.3 164.30000000000004 L 369 163.90000000000003 L 369.8 163.60000000000002 L 370.90000000000003 163.10000000000002 L 372.3 162.60000000000002 L 373.8 162.40000000000003 L 375.40000000000003 162.40000000000003 L 376.50000000000006 162.40000000000003 L 377.50000000000006 162.50000000000003 L 378.40000000000003 162.60000000000002 L 379.3 162.8 L 380.2 163 L 381 163.3 L 381.7 163.8 L 382.4 164.20000000000002 L 383 164.60000000000002 L 383.5 165.20000000000002 L 384 165.70000000000002 L 384.4 166.4 L 384.7 167.1 L 385 167.79999999999998 L 385.2 168.6 L 385.4 169.5 L 381.4 170.3 L 381 169.4 L 380.6 168.6 L 380.1 168 L 379.40000000000003 167.4 L 378.50000000000006 167 L 377.6000000000001 166.7 L 376.6000000000001 166.5 L 375.30000000000007 166.5 L 374.50000000000006 166.5 L 373.80000000000007 166.6 L 373.00000000000006 166.79999999999998 L 372.30000000000007 166.99999999999997 L 371.6000000000001 167.29999999999998 L 371.00000000000006 167.6 L 370.40000000000003 168 L 369.90000000000003 168.5 L 369.3 169.2 L 369 169.79999999999998 L 368.7 170.49999999999997 L 368.4 171.29999999999998 L 368.2 172.2 L 368.09999999999997 173 L 367.99999999999994 173.9 L 367.99999999999994 174.9 L 367.99999999999994 175.8 L 368.09999999999997 176.70000000000002 L 368.2 177.50000000000003 L 368.4 178.40000000000003 L 368.7 179.20000000000005 L 369 179.90000000000003 L 369.5 180.60000000000002 L 369.9 181.3 L 370.4 181.70000000000002 L 371 182.10000000000002 L 371.6 182.40000000000003 L 372.3 182.80000000000004 L 373 183.00000000000003 L 373.8 183.20000000000002 L 374.5 183.3 L 375.3 183.3 L 376.6 183.20000000000002 L 377.6 183.10000000000002 L 378.5 183.00000000000003 L 379.4 182.80000000000004 L 380.09999999999997 182.40000000000003 L 380.7 182.10000000000002 L 381.3 181.70000000000002 L 381.90000000000003 181.3 L 381.90000000000003 178.3 L 375.5 178.3 z M 335.8 175.1 L 335.8 174.29999999999998 L 335.90000000000003 173.39999999999998 L 336.1 172.59999999999997 L 336.20000000000005 171.69999999999996 L 336.90000000000003 169.89999999999995 L 337.70000000000005 168.19999999999996 L 338.1 167.39999999999995 L 338.6 166.59999999999994 L 339.1 165.89999999999995 L 339.8 165.19999999999996 L 340.5 164.59999999999997 L 341.2 164.09999999999997 L 342 163.59999999999997 L 342.6 163.19999999999996 L 343.90000000000003 162.89999999999995 L 345.1 162.59999999999994 L 346.3 162.39999999999995 L 347.8 162.39999999999995 L 349.1 162.39999999999995 L 350.3 162.59999999999994 L 351.5 162.89999999999995 L 352.6 163.29999999999995 L 353.6 163.79999999999995 L 354.6 164.49999999999994 L 355.5 165.19999999999993 L 356.4 166.09999999999994 L 357.09999999999997 166.99999999999994 L 357.79999999999995 167.89999999999995 L 358.29999999999995 168.89999999999995 L 358.9 169.99999999999994 L 359.2 171.29999999999995 L 359.4 172.49999999999994 L 359.59999999999997 173.69999999999993 L 359.59999999999997 174.99999999999994 L 359.59999999999997 176.29999999999995 L 359.4 177.49999999999994 L 359.2 178.69999999999993 L 358.9 179.79999999999993 L 358.29999999999995 180.89999999999992 L 357.79999999999995 181.89999999999992 L 357.19999999999993 182.89999999999992 L 356.3999999999999 183.79999999999993 L 355.5999999999999 184.59999999999994 L 354.5999999999999 185.29999999999993 L 353.69999999999993 185.99999999999991 L 352.5999999999999 186.5999999999999 L 351.4999999999999 186.89999999999992 L 350.2999999999999 187.19999999999993 L 349.0999999999999 187.39999999999992 L 347.7999999999999 187.39999999999992 L 346.5999999999999 187.39999999999992 L 345.3999999999999 187.19999999999993 L 344.19999999999993 186.89999999999992 L 343.0999999999999 186.5999999999999 L 341.9999999999999 185.99999999999991 L 340.9999999999999 185.49999999999991 L 340.0999999999999 184.6999999999999 L 339.2999999999999 183.8999999999999 L 338.4999999999999 182.9999999999999 L 337.7999999999999 182.09999999999988 L 337.1999999999999 181.09999999999988 L 336.7999999999999 179.9999999999999 L 336.4999999999999 178.8999999999999 L 336.1999999999999 177.6999999999999 L 336.09999999999985 176.3999999999999 L 335.8 175.1 z M 340.7 175 L 340.8 176.6 L 341.1 178 L 341.3 178.8 L 341.6 179.5 L 341.90000000000003 180.2 L 342.3 180.7 L 342.8 181.29999999999998 L 343.40000000000003 181.89999999999998 L 344.00000000000006 182.29999999999998 L 344.70000000000005 182.7 L 345.40000000000003 183 L 346.1 183.2 L 347 183.29999999999998 L 347.8 183.39999999999998 L 348.7 183.29999999999998 L 349.5 183.2 L 350.3 183 L 351 182.7 L 351.7 182.29999999999998 L 352.3 181.89999999999998 L 352.7 181.29999999999998 L 353.3 180.7 L 353.6 180.1 L 353.90000000000003 179.4 L 354.20000000000005 178.70000000000002 L 354.40000000000003 178.00000000000003 L 354.70000000000005 176.40000000000003 L 354.80000000000007 174.90000000000003 L 354.70000000000005 173.30000000000004 L 354.40000000000003 171.90000000000003 L 354.20000000000005 171.10000000000002 L 353.90000000000003 170.40000000000003 L 353.6 169.90000000000003 L 353.3 169.20000000000005 L 352.90000000000003 168.70000000000005 L 352.3 168.20000000000005 L 351.7 167.80000000000004 L 351 167.50000000000003 L 350.3 167.20000000000002 L 349.5 167.00000000000003 L 348.7 166.90000000000003 L 347.8 166.80000000000004 L 346.90000000000003 166.90000000000003 L 346.1 167.00000000000003 L 345.3 167.20000000000002 L 344.6 167.50000000000003 L 344 167.80000000000004 L 343.3 168.20000000000005 L 342.90000000000003 168.80000000000004 L 342.40000000000003 169.40000000000003 L 342.00000000000006 170.00000000000003 L 341.70000000000005 170.70000000000002 L 341.40000000000003 171.3 L 341.20000000000005 172 L 340.90000000000003 173.5 L 340.7 175 z M 266.7 187.1 L 266.7 162.7 L 270.9 162.7 L 282.09999999999997 179 L 282.09999999999997 162.7 L 286.59999999999997 162.7 L 286.59999999999997 187.1 L 282.2 187.1 L 271.2 171.29999999999998 L 271.2 187.1 L 266.7 187.1 z M 240.6 187.1 L 240.6 162.7 L 245.4 162.7 L 245.4 172.29999999999998 L 256.2 172.29999999999998 L 256.2 162.7 L 260.9 162.7 L 260.9 187.1 L 256.2 187.1 L 256.2 176.5 L 245.39999999999998 176.5 L 245.39999999999998 187.1 L 240.6 187.1 z M 192.9 187.1 L 192.9 162.7 L 210.5 162.7 L 210.5 166.79999999999998 L 197.8 166.79999999999998 L 197.8 172.2 L 209.60000000000002 172.2 L 209.60000000000002 176.29999999999998 L 197.8 176.29999999999998 L 197.8 182.89999999999998 L 211 182.89999999999998 L 211 186.99999999999997 L 192.9 186.99999999999997 z M 395.6 187.1 L 395.6 176.79999999999998 L 387 162.7 L 392.6 162.7 L 398.1 172.29999999999998 L 403.6 162.7 L 409.1 162.7 L 400.5 176.89999999999998 L 400.5 187.09999999999997 L 395.6 187.09999999999997 z M 318.9 187.1 L 318.9 163 L 323.7 163 L 323.7 183 L 334.4 183 L 334.4 187.1 L 318.9 187.1 z M 291.2 175.1 L 291.2 174.29999999999998 L 291.3 173.39999999999998 L 291.40000000000003 172.59999999999997 L 291.6 171.69999999999996 L 292.20000000000005 169.89999999999995 L 293.00000000000006 168.19999999999996 L 293.6000000000001 167.39999999999995 L 294.00000000000006 166.59999999999994 L 294.50000000000006 165.89999999999995 L 295.20000000000005 165.19999999999996 L 295.80000000000007 164.59999999999997 L 296.6000000000001 164.09999999999997 L 297.30000000000007 163.59999999999997 L 298.1000000000001 163.19999999999996 L 299.2000000000001 162.89999999999995 L 300.4000000000001 162.59999999999994 L 301.80000000000007 162.39999999999995 L 303.30000000000007 162.39999999999995 L 304.6000000000001 162.39999999999995 L 305.80000000000007 162.59999999999994 L 307.00000000000006 162.89999999999995 L 308.1000000000001 163.29999999999995 L 309.1000000000001 163.79999999999995 L 310.1000000000001 164.49999999999994 L 311.00000000000006 165.19999999999993 L 311.90000000000003 166.09999999999994 L 312.6 166.99999999999994 L 313.20000000000005 167.89999999999995 L 313.80000000000007 168.89999999999995 L 314.20000000000005 169.99999999999994 L 314.70000000000005 171.29999999999995 L 314.90000000000003 172.49999999999994 L 315.1 173.69999999999993 L 315.1 174.99999999999994 L 315.1 176.29999999999995 L 314.90000000000003 177.49999999999994 L 314.70000000000005 178.69999999999993 L 314.20000000000005 179.79999999999993 L 313.80000000000007 180.89999999999992 L 313.20000000000005 181.89999999999992 L 312.6 182.89999999999992 L 311.90000000000003 183.79999999999993 L 311.00000000000006 184.59999999999994 L 310.1000000000001 185.29999999999993 L 309.1000000000001 185.99999999999991 L 308.1000000000001 186.5999999999999 L 307.00000000000006 186.89999999999992 L 305.80000000000007 187.19999999999993 L 304.6000000000001 187.39999999999992 L 303.30000000000007 187.39999999999992 L 302 187.39999999999992 L 300.6 187.19999999999993 L 299.5 186.89999999999992 L 298.4 186.5999999999999 L 297.29999999999995 185.99999999999991 L 296.29999999999995 185.49999999999991 L 295.4 184.6999999999999 L 294.59999999999997 183.8999999999999 L 293.79999999999995 182.9999999999999 L 293.19999999999993 182.09999999999988 L 292.5999999999999 181.09999999999988 L 292.19999999999993 179.9999999999999 L 291.69999999999993 178.8999999999999 L 291.49999999999994 177.6999999999999 L 291.29999999999995 176.3999999999999 L 291.29999999999995 175.1 z M 296.1 175 L 296.20000000000005 176.6 L 296.50000000000006 178 L 296.70000000000005 178.8 L 297.00000000000006 179.5 L 297.30000000000007 180.2 L 297.80000000000007 180.7 L 298.20000000000005 181.29999999999998 L 298.80000000000007 181.89999999999998 L 299.4000000000001 182.29999999999998 L 299.9000000000001 182.7 L 300.7000000000001 183 L 301.4000000000001 183.2 L 302.30000000000007 183.29999999999998 L 303.1000000000001 183.39999999999998 L 304.00000000000006 183.29999999999998 L 304.80000000000007 183.2 L 305.6000000000001 183 L 306.2000000000001 182.7 L 306.9000000000001 182.29999999999998 L 307.5000000000001 181.89999999999998 L 307.9000000000001 181.29999999999998 L 308.30000000000007 180.7 L 308.70000000000005 180.1 L 309.00000000000006 179.4 L 309.30000000000007 178.70000000000002 L 309.50000000000006 178.00000000000003 L 309.80000000000007 176.40000000000003 L 309.9000000000001 174.90000000000003 L 309.80000000000007 173.30000000000004 L 309.50000000000006 171.90000000000003 L 309.30000000000007 171.10000000000002 L 309.00000000000006 170.40000000000003 L 308.70000000000005 169.90000000000003 L 308.40000000000003 169.20000000000005 L 307.8 168.70000000000005 L 307.40000000000003 168.20000000000005 L 306.8 167.80000000000004 L 306.1 167.50000000000003 L 305.5 167.20000000000002 L 304.7 167.00000000000003 L 303.9 166.90000000000003 L 303 166.80000000000004 L 302.1 166.90000000000003 L 301.3 167.00000000000003 L 300.5 167.20000000000002 L 299.8 167.50000000000003 L 299.1 167.80000000000004 L 298.5 168.20000000000005 L 298.1 168.80000000000004 L 297.5 169.40000000000003 L 297.2 170.00000000000003 L 296.9 170.70000000000002 L 296.59999999999997 171.3 L 296.4 172 L 296.09999999999997 173.5 L 296.1 175 z M 231 178.2 L 235.9 179.7 L 235.70000000000002 180.7 L 235.3 181.6 L 234.9 182.4 L 234.4 183.20000000000002 L 233.8 184.00000000000003 L 233.3 184.50000000000003 L 232.70000000000002 185.10000000000002 L 232.00000000000003 185.70000000000002 L 231.30000000000004 186.10000000000002 L 230.50000000000003 186.50000000000003 L 229.70000000000002 186.90000000000003 L 228.9 187.10000000000002 L 228 187.3 L 227.1 187.4 L 226.2 187.5 L 225.2 187.5 L 224 187.5 L 222.9 187.4 L 221.8 187.1 L 220.70000000000002 186.79999999999998 L 219.70000000000002 186.39999999999998 L 218.70000000000002 185.79999999999998 L 217.8 185.1 L 217 184.4 L 216.2 183.5 L 215.5 182.5 L 214.9 181.4 L 214.3 180.3 L 214 179.10000000000002 L 213.8 177.8 L 213.60000000000002 176.60000000000002 L 213.60000000000002 175 L 213.70000000000002 173.7 L 213.8 172.39999999999998 L 214 171.2 L 214.5 170 L 214.9 168.9 L 215.5 167.8 L 216.2 166.8 L 217 165.9 L 217.9 165.1 L 218.8 164.4 L 219.8 163.8 L 220.8 163.20000000000002 L 222 162.9 L 223.2 162.70000000000002 L 224.39999999999998 162.50000000000003 L 225.59999999999997 162.50000000000003 L 226.79999999999995 162.50000000000003 L 227.79999999999995 162.60000000000002 L 228.89999999999995 162.8 L 229.79999999999995 163.10000000000002 L 230.79999999999995 163.40000000000003 L 231.59999999999997 163.90000000000003 L 232.49999999999997 164.50000000000003 L 233.19999999999996 165.10000000000002 L 234.09999999999997 166.00000000000003 L 234.79999999999995 167.00000000000003 L 235.39999999999995 168.20000000000002 L 235.99999999999994 169.50000000000003 L 230.89999999999995 170.70000000000002 L 230.69999999999996 169.8 L 230.29999999999995 169 L 229.69999999999996 168.2 L 228.99999999999997 167.6 L 228.19999999999996 167.2 L 227.39999999999995 166.89999999999998 L 226.49999999999994 166.7 L 225.49999999999994 166.6 L 224.79999999999995 166.7 L 224 166.7 L 223.3 166.89999999999998 L 222.70000000000002 167.09999999999997 L 222.10000000000002 167.29999999999995 L 221.50000000000003 167.59999999999997 L 221.10000000000002 167.99999999999997 L 220.60000000000002 168.59999999999997 L 220.10000000000002 169.29999999999995 L 219.70000000000002 169.89999999999995 L 219.4 170.69999999999996 L 219.1 171.59999999999997 L 218.9 172.39999999999998 L 218.70000000000002 173.29999999999998 L 218.60000000000002 174.2 L 218.60000000000002 175.1 L 218.60000000000002 176 L 218.70000000000002 176.9 L 218.9 177.70000000000002 L 219.1 178.60000000000002 L 219.4 179.40000000000003 L 219.70000000000002 180.10000000000002 L 220.10000000000002 180.90000000000003 L 220.60000000000002 181.50000000000003 L 221.10000000000002 181.90000000000003 L 221.50000000000003 182.30000000000004 L 222.10000000000002 182.70000000000005 L 222.70000000000002 182.90000000000003 L 223.3 183.10000000000002 L 223.9 183.3 L 224.6 183.4 L 225.2 183.4 L 226.2 183.3 L 227.1 183.10000000000002 L 228 182.8 L 228.8 182.20000000000002 L 229.5 181.50000000000003 L 230.1 180.60000000000002 L 230.5 179.60000000000002 L 231 178.2 z M 176.3 187.1 L 176.3 166.9 L 169.4 166.9 L 169.4 162.8 L 188.20000000000002 162.8 L 188.20000000000002 166.9 L 181.20000000000002 166.9 L 181.20000000000002 187.1 L 176.3 187.1 z" stroke-linecap="round" />
</g>
		<g transform="matrix(1 0 0 1 -191.55 -2.45)"  >
<path style="stroke: none; stroke-width: 1; stroke-dasharray: none; stroke-linecap: butt; stroke-dashoffset: 0; stroke-linejoin: miter; stroke-miterlimit: 4; fill: rgb(0,0,0); fill-rule: nonzero; opacity: 1;" vector-effect="non-scaling-stroke"  transform=" translate(-114.6, -97.15)" d="M 130.5 99.3 L 128.5 100 L 126.4 100.5 L 124.4 101.2 L 122.30000000000001 101.8 L 120.20000000000002 102.2 L 118.10000000000002 102.8 L 116.00000000000003 103.3 L 113.90000000000003 103.8 L 112.60000000000004 104.1 L 111.50000000000004 104.39999999999999 L 106.90000000000005 105.69999999999999 L 103.10000000000005 106.89999999999999 L 101.50000000000006 107.6 L 100.00000000000006 108.19999999999999 L 98.80000000000005 108.89999999999999 L 97.80000000000005 109.39999999999999 L 96.90000000000005 110.1 L 96.10000000000005 110.8 L 95.30000000000005 111.6 L 94.50000000000006 112.39999999999999 L 93.90000000000006 113.3 L 93.30000000000007 114.1 L 92.70000000000007 115 L 92.40000000000008 115.9 L 92.10000000000008 117 L 91.90000000000008 118 L 91.90000000000008 118.9 L 92.00000000000007 119.9 L 92.20000000000007 120.80000000000001 L 92.50000000000007 121.60000000000001 L 92.90000000000008 122.4 L 93.30000000000008 123.10000000000001 L 94.10000000000008 123.9 L 94.80000000000008 124.60000000000001 L 95.60000000000008 125.00000000000001 L 96.50000000000009 125.30000000000001 L 97.50000000000009 125.50000000000001 L 98.60000000000008 125.70000000000002 L 99.90000000000008 125.80000000000001 L 101.20000000000007 125.80000000000001 L 103.70000000000007 125.60000000000001 L 106.30000000000007 125.2 L 107.50000000000007 125 L 108.70000000000007 124.7 L 109.90000000000008 124.4 L 111.10000000000008 123.9 L 112.20000000000007 123.5 L 113.30000000000007 123 L 114.80000000000007 122.2 L 116.30000000000007 121.4 L 117.70000000000007 120.60000000000001 L 118.80000000000007 119.7 L 119.90000000000006 118.7 L 121.00000000000006 117.8 L 121.90000000000006 116.8 L 122.80000000000007 115.8 L 123.70000000000007 114.8 L 124.60000000000008 113.6 L 125.40000000000008 112.39999999999999 L 126.20000000000007 110.99999999999999 L 126.90000000000008 109.59999999999998 L 127.60000000000008 108.19999999999997 L 128.30000000000007 106.69999999999997 L 128.90000000000006 105.09999999999998 L 130.5 99.3 z M 111.3 87.9 L 114.8 87.2 L 117.8 86.5 L 120.2 85.8 L 122.10000000000001 85.39999999999999 L 125.4 84.6 L 128.8 83.69999999999999 L 132.3 82.69999999999999 L 135.8 81.49999999999999 L 136.20000000000002 80.49999999999999 L 136.70000000000002 79.49999999999999 L 137.00000000000003 78.49999999999999 L 137.20000000000002 77.39999999999999 L 137.3 76.3 L 137.4 75.2 L 137.3 74.10000000000001 L 137.20000000000002 73.00000000000001 L 136.10000000000002 72.50000000000001 L 134.8 72.00000000000001 L 133.60000000000002 71.40000000000002 L 132.40000000000003 71.00000000000001 L 131.20000000000005 70.50000000000001 L 130.10000000000005 70.30000000000001 L 129.00000000000006 70.00000000000001 L 127.90000000000006 69.90000000000002 L 126.00000000000006 69.80000000000003 L 124.00000000000006 69.80000000000003 L 122.10000000000005 70.00000000000003 L 120.30000000000005 70.30000000000003 L 118.50000000000006 70.80000000000003 L 116.70000000000006 71.30000000000003 L 115.00000000000006 72.00000000000003 L 113.50000000000006 72.80000000000003 L 112.40000000000006 73.60000000000002 L 111.30000000000007 74.30000000000003 L 109.90000000000006 75.50000000000003 L 108.30000000000007 77.00000000000003 L 106.80000000000007 78.80000000000003 L 105.40000000000006 80.80000000000003 L 71.20000000000006 77.10000000000002 L 72.60000000000007 75.00000000000003 L 73.90000000000006 73.00000000000003 L 75.20000000000006 71.20000000000003 L 76.50000000000006 69.50000000000003 L 77.90000000000006 67.90000000000003 L 79.10000000000007 66.50000000000003 L 80.40000000000006 65.10000000000002 L 81.90000000000006 63.90000000000002 L 83.20000000000006 62.60000000000002 L 84.80000000000005 61.40000000000002 L 86.30000000000005 60.20000000000002 L 87.90000000000005 59.100000000000016 L 89.60000000000005 58.000000000000014 L 91.30000000000005 56.90000000000001 L 93.00000000000006 55.90000000000001 L 94.80000000000005 55.000000000000014 L 96.60000000000005 54.000000000000014 L 98.50000000000006 53.20000000000002 L 100.40000000000006 52.40000000000002 L 102.30000000000007 51.70000000000002 L 104.30000000000007 51.000000000000014 L 106.40000000000006 50.30000000000001 L 108.60000000000007 49.90000000000001 L 110.70000000000006 49.500000000000014 L 113.00000000000006 49.000000000000014 L 115.30000000000005 48.80000000000001 L 117.70000000000006 48.500000000000014 L 120.10000000000007 48.30000000000001 L 122.50000000000007 48.20000000000001 L 124.90000000000008 48.10000000000001 L 127.40000000000008 48.10000000000001 L 129.70000000000007 48.10000000000001 L 133.00000000000009 48.10000000000001 L 136.3000000000001 48.20000000000001 L 139.4000000000001 48.30000000000001 L 142.4000000000001 48.500000000000014 L 145.3000000000001 48.70000000000002 L 148.1000000000001 49.000000000000014 L 150.6000000000001 49.30000000000001 L 152.8000000000001 49.70000000000001 L 155.1000000000001 50.10000000000001 L 157.3000000000001 50.70000000000001 L 159.4000000000001 51.50000000000001 L 161.4000000000001 52.400000000000006 L 163.3000000000001 53.50000000000001 L 165.1000000000001 54.900000000000006 L 166.8000000000001 56.300000000000004 L 168.4000000000001 58.00000000000001 L 169.9000000000001 59.70000000000001 L 171.10000000000008 61.50000000000001 L 172.20000000000007 63.50000000000001 L 173.10000000000008 65.5 L 173.9000000000001 67.6 L 174.3000000000001 69.89999999999999 L 174.7000000000001 72.19999999999999 L 174.8000000000001 74.49999999999999 L 174.8000000000001 75.69999999999999 L 174.7000000000001 77.6 L 174.6000000000001 78.69999999999999 L 174.40000000000012 79.79999999999998 L 174.20000000000013 80.79999999999998 L 173.90000000000012 81.89999999999998 L 172.70000000000013 85.89999999999998 L 171.10000000000014 90.59999999999998 L 169.40000000000015 95.99999999999999 L 167.40000000000015 102.09999999999998 L 165.20000000000016 108.99999999999999 L 162.60000000000016 116.89999999999999 L 159.80000000000015 125.69999999999999 L 156.70000000000016 135.7 L 156.40000000000015 136.79999999999998 L 156.30000000000015 137.89999999999998 L 156.20000000000016 138.99999999999997 L 156.30000000000015 140.09999999999997 L 156.40000000000015 141.09999999999997 L 156.60000000000014 142.09999999999997 L 156.80000000000013 142.99999999999997 L 157.10000000000014 143.79999999999998 L 153.90000000000015 143.79999999999998 L 146.50000000000014 143.79999999999998 L 128.70000000000013 143.79999999999998 L 122.20000000000013 143.79999999999998 L 122.20000000000013 143.6 L 121.80000000000013 142.79999999999998 L 121.50000000000013 141.99999999999997 L 121 141 L 120.8 140.2 L 120.5 138.39999999999998 L 120.5 136.59999999999997 L 120.5 135.49999999999997 L 120.6 134.49999999999997 L 120.8 133.49999999999997 L 121.1 132.39999999999998 L 118.6 134.39999999999998 L 116.1 136.09999999999997 L 113.69999999999999 137.59999999999997 L 111.19999999999999 138.89999999999998 L 109.49999999999999 139.79999999999998 L 107.89999999999999 140.6 L 106.49999999999999 141.29999999999998 L 104.89999999999999 141.79999999999998 L 102.3 142.79999999999998 L 99.5 143.7 L 96.6 144.5 L 93.69999999999999 145.1 L 90.69999999999999 145.7 L 87.6 146.1 L 84.6 146.2 L 81.39999999999999 146.2 L 79.1 146.2 L 76.89999999999999 146.1 L 74.8 145.9 L 72.89999999999999 145.70000000000002 L 71.19999999999999 145.4 L 69.49999999999999 145.1 L 67.99999999999999 144.7 L 66.69999999999999 144.1 L 65.49999999999999 143.6 L 64.29999999999998 142.9 L 63.29999999999998 142.3 L 62.29999999999998 141.5 L 61.29999999999998 140.7 L 60.399999999999984 139.79999999999998 L 59.59999999999999 138.89999999999998 L 58.79999999999999 137.99999999999997 L 58.09999999999999 136.99999999999997 L 57.399999999999984 136.09999999999997 L 56.79999999999998 135.09999999999997 L 56.19999999999998 134.09999999999997 L 55.69999999999998 132.99999999999997 L 55.399999999999984 131.89999999999998 L 55.09999999999999 130.79999999999998 L 54.79999999999999 129.7 L 54.59999999999999 128.5 L 54.499999999999986 127.3 L 54.399999999999984 126.1 L 54.399999999999984 124.89999999999999 L 54.499999999999986 123.6 L 54.69999999999999 122.19999999999999 L 54.89999999999999 120.89999999999999 L 55.19999999999999 119.49999999999999 L 55.59999999999999 117.99999999999999 L 55.999999999999986 116.49999999999999 L 56.59999999999999 115.19999999999999 L 57.09999999999999 113.89999999999999 L 57.79999999999999 112.69999999999999 L 58.39999999999999 111.6 L 59.19999999999999 110.5 L 59.89999999999999 109.4 L 61.599999999999994 107.4 L 63.39999999999999 105.5 L 65.3 103.7 L 67.3 101.9 L 69.7 100.2 L 72.4 98.8 L 75.30000000000001 97.3 L 78.4 96 L 81.9 94.8 L 85.7 93.7 L 89.7 92.7 L 94.10000000000001 91.8 L 96.50000000000001 91.39999999999999 L 99.00000000000001 90.99999999999999 L 101.20000000000002 90.59999999999998 L 103.40000000000002 90.19999999999997 L 105.50000000000001 89.79999999999997 L 107.50000000000001 89.49999999999997 L 109.30000000000001 89.19999999999997 L 111.3 87.9 z" stroke-linecap="round" />
</g>
		<g transform="matrix(1 0 0 1 234.7 -2.6)"  >
<path style="stroke: none; stroke-width: 1; stroke-dasharray: none; stroke-linecap: butt; stroke-dashoffset: 0; stroke-linejoin: miter; stroke-miterlimit: 4; fill: rgb(0,0,0); fill-rule: nonzero; opacity: 1;" vector-effect="non-scaling-stroke"  transform=" translate(-540.85, -97)" d="M 556.7 99.3 L 554.7 100 L 552.6 100.5 L 550.4 101.2 L 548.4 101.8 L 546.3 102.2 L 544.1999999999999 102.8 L 542.0999999999999 103.3 L 539.9999999999999 103.8 L 538.6999999999999 104.1 L 537.5999999999999 104.39999999999999 L 532.8999999999999 105.69999999999999 L 529.1999999999998 106.89999999999999 L 527.4999999999998 107.6 L 526.0999999999998 108.19999999999999 L 524.8999999999997 108.89999999999999 L 523.8999999999997 109.39999999999999 L 522.9999999999998 110.1 L 522.0999999999998 110.8 L 521.2999999999998 111.6 L 520.5999999999998 112.39999999999999 L 519.8999999999997 113.3 L 519.2999999999997 114.1 L 518.8999999999997 115 L 518.5999999999998 115.9 L 518.2999999999998 117 L 518.0999999999998 118 L 518.0999999999998 118.9 L 518.1999999999998 119.9 L 518.3999999999999 120.80000000000001 L 518.6999999999998 121.60000000000001 L 519.0999999999998 122.4 L 519.5999999999998 123.10000000000001 L 520.2999999999998 123.9 L 521.0999999999998 124.60000000000001 L 521.8999999999997 125.2 L 522.7999999999997 125.5 L 523.7999999999997 125.8 L 524.8999999999997 126 L 526.0999999999998 126 L 527.5999999999998 126 L 530.0999999999998 125.8 L 532.3999999999997 125.39999999999999 L 534.7999999999997 124.8 L 536.8999999999997 124.1 L 539.0999999999998 123.19999999999999 L 541.0999999999998 122.19999999999999 L 542.9999999999998 120.99999999999999 L 544.8999999999997 119.79999999999998 L 546.5999999999998 118.39999999999998 L 548.2999999999998 116.79999999999998 L 549.7999999999998 115.09999999999998 L 551.0999999999998 113.29999999999998 L 552.2999999999998 111.39999999999998 L 553.3999999999999 109.39999999999998 L 554.2999999999998 107.29999999999998 L 555.0999999999998 105.19999999999999 L 556.7 99.3 z M 537.5 87.9 L 541 87.2 L 543.9 86.5 L 546.3 85.8 L 548.3 85.39999999999999 L 551.5999999999999 84.6 L 554.9999999999999 83.69999999999999 L 558.3999999999999 82.69999999999999 L 561.9999999999999 81.49999999999999 L 562.3999999999999 80.49999999999999 L 562.7999999999998 79.49999999999999 L 563.0999999999998 78.49999999999999 L 563.2999999999998 77.39999999999999 L 563.3999999999999 76.3 L 563.3999999999999 75 L 563.3999999999999 73.9 L 563.2999999999998 72.80000000000001 L 562.1999999999998 72.20000000000002 L 560.9999999999998 71.70000000000002 L 559.7999999999997 71.30000000000001 L 558.5999999999997 70.9 L 556.0999999999997 70.2 L 553.9999999999997 69.8 L 551.9999999999997 69.7 L 550.0999999999997 69.7 L 548.1999999999997 69.9 L 546.2999999999997 70.2 L 544.4999999999998 70.7 L 542.7999999999997 71.2 L 541.0999999999997 71.9 L 539.4999999999997 72.7 L 538.3999999999996 73.5 L 537.3999999999996 74.2 L 535.7999999999996 75.4 L 534.3999999999996 76.9 L 532.9999999999997 78.7 L 531.3999999999996 80.7 L 497.2999999999996 77 L 498.6999999999996 74.9 L 499.9999999999996 72.9 L 501.1999999999996 71.10000000000001 L 502.4999999999996 69.4 L 503.7999999999996 67.80000000000001 L 505.1999999999996 66.30000000000001 L 506.59999999999957 65.00000000000001 L 507.8999999999996 63.80000000000001 L 509.29999999999956 62.40000000000001 L 510.8999999999996 61.20000000000001 L 512.3999999999996 60.00000000000001 L 513.8999999999996 58.900000000000006 L 515.5999999999997 57.800000000000004 L 517.2999999999997 56.800000000000004 L 518.9999999999998 55.800000000000004 L 520.7999999999997 54.800000000000004 L 522.5999999999997 53.900000000000006 L 524.3999999999996 53.10000000000001 L 526.3999999999996 52.30000000000001 L 528.2999999999996 51.60000000000001 L 530.2999999999996 50.900000000000006 L 532.3999999999996 50.400000000000006 L 534.3999999999996 49.800000000000004 L 536.5999999999997 49.400000000000006 L 538.8999999999996 48.900000000000006 L 541.1999999999996 48.60000000000001 L 543.4999999999995 48.400000000000006 L 545.8999999999995 48.2 L 548.3999999999995 48.1 L 550.6999999999995 48 L 553.1999999999995 48 L 555.4999999999994 48 L 558.8999999999994 48 L 562.0999999999995 48.1 L 565.1999999999995 48.2 L 568.1999999999995 48.400000000000006 L 571.0999999999995 48.60000000000001 L 573.7999999999995 48.900000000000006 L 576.3999999999995 49.2 L 578.7999999999995 49.6 L 581.0999999999995 50 L 583.1999999999995 50.6 L 585.2999999999995 51.4 L 587.3999999999995 52.3 L 589.2999999999995 53.4 L 591.0999999999995 54.8 L 592.7999999999995 56.199999999999996 L 594.3999999999995 57.9 L 595.8999999999995 59.6 L 597.0999999999996 61.4 L 598.1999999999996 63.4 L 599.0999999999996 65.4 L 599.7999999999996 67.5 L 600.3999999999996 69.8 L 600.6999999999996 72.1 L 601 74 L 600.9 75.2 L 600.8 77.10000000000001 L 600.4 79.30000000000001 L 599.9 81.50000000000001 L 598.5 85.50000000000001 L 597.1 90.20000000000002 L 595.4 95.60000000000002 L 593.5 101.70000000000002 L 591.3 108.60000000000002 L 588.8 116.50000000000003 L 586 125.30000000000003 L 582.8 135.3 L 582.5999999999999 136.3 L 582.4999999999999 137.3 L 582.3999999999999 138.4 L 582.3999999999999 139.5 L 582.5999999999999 140.6 L 582.6999999999999 141.6 L 583.0999999999999 142.6 L 583.3999999999999 143.4 L 580.1999999999998 143.4 L 572.7999999999998 143.4 L 554.8999999999999 143.4 L 548.4999999999999 143.4 L 548.4999999999999 143.20000000000002 L 547.9999999999999 142.4 L 547.6999999999999 141.6 L 547.3 140.79999999999998 L 547.0999999999999 139.99999999999997 L 546.8 138.19999999999996 L 546.6999999999999 136.39999999999995 L 546.8 135.29999999999995 L 546.9 134.29999999999995 L 547.1 133.29999999999995 L 547.4 132.19999999999996 L 544.9 134.19999999999996 L 542.4 135.89999999999995 L 539.8 137.39999999999995 L 537.5 138.69999999999996 L 535.8 139.59999999999997 L 534.1999999999999 140.39999999999998 L 532.8 141.09999999999997 L 531.1999999999999 141.59999999999997 L 528.4999999999999 142.59999999999997 L 525.6999999999999 143.49999999999997 L 522.9 144.29999999999998 L 519.9 144.89999999999998 L 516.9 145.49999999999997 L 513.9 145.89999999999998 L 510.79999999999995 145.99999999999997 L 507.79999999999995 145.99999999999997 L 505.29999999999995 145.99999999999997 L 503.19999999999993 145.89999999999998 L 501.0999999999999 145.7 L 499.19999999999993 145.5 L 497.3999999999999 145.2 L 495.7999999999999 144.89999999999998 L 494.2999999999999 144.49999999999997 L 492.9999999999999 143.89999999999998 L 491.5999999999999 143.39999999999998 L 490.4999999999999 142.7 L 489.39999999999986 142.1 L 488.39999999999986 141.29999999999998 L 487.4999999999999 140.49999999999997 L 486.5999999999999 139.59999999999997 L 485.7999999999999 138.69999999999996 L 484.8999999999999 137.79999999999995 L 484.19999999999993 136.79999999999995 L 483.5999999999999 135.89999999999995 L 483.0999999999999 134.89999999999995 L 482.4999999999999 133.89999999999995 L 482.0999999999999 132.79999999999995 L 481.5999999999999 131.69999999999996 L 481.2999999999999 130.59999999999997 L 481.0999999999999 129.49999999999997 L 480.8999999999999 128.29999999999998 L 480.7999999999999 127.09999999999998 L 480.6999999999999 125.89999999999998 L 480.6999999999999 124.69999999999997 L 480.7999999999999 123.39999999999998 L 480.8999999999999 121.99999999999997 L 481.19999999999993 120.69999999999997 L 481.3999999999999 119.29999999999997 L 481.8999999999999 117.79999999999997 L 482.49999999999994 116.29999999999997 L 483.09999999999997 114.99999999999997 L 483.7 113.69999999999997 L 484.2 112.49999999999997 L 484.9 111.39999999999998 L 485.59999999999997 110.29999999999998 L 486.4 109.19999999999999 L 488.09999999999997 107.19999999999999 L 489.79999999999995 105.29999999999998 L 491.69999999999993 103.49999999999999 L 493.79999999999995 101.69999999999999 L 496.19999999999993 99.99999999999999 L 498.69999999999993 98.59999999999998 L 501.5999999999999 97.09999999999998 L 504.7999999999999 95.79999999999998 L 508.2999999999999 94.59999999999998 L 511.9999999999999 93.49999999999999 L 516.0999999999999 92.49999999999999 L 520.4999999999999 91.59999999999998 L 522.8999999999999 91.19999999999997 L 525.1999999999998 90.79999999999997 L 527.4999999999998 90.39999999999996 L 529.6999999999998 89.99999999999996 L 531.6999999999998 89.59999999999995 L 533.6999999999998 89.29999999999995 L 535.5999999999998 88.99999999999996 L 537.5 87.9 z" stroke-linecap="round" />
</g>
</g>
</g>
</svg>