<?xml version="1.0" standalone="no"?>
<!DOCTYPE svg PUBLIC "-//W3C//DTD SVG 20010904//EN"
 "http://www.w3.org/TR/2001/REC-SVG-20010904/DTD/svg10.dtd">
<svg version="1.0" xmlns="http://www.w3.org/2000/svg"
 width="166.000000pt" height="64.000000pt" viewBox="0 0 166.000000 64.000000"
 preserveAspectRatio="xMidYMid meet">

<g transform="translate(0.000000,64.000000) scale(0.100000,-0.100000)"
fill="#000000" stroke="none">
<path d="M373 511 c-23 -14 -34 -30 -39 -55 -10 -56 1 -79 48 -103 l43 -20 49
44 c45 41 48 46 40 75 -18 61 -89 91 -141 59z"/>
<path d="M257 472 c-25 -27 -21 -39 13 -44 17 -3 30 0 30 6 0 6 3 21 6 34 5
17 2 22 -13 22 -11 0 -27 -8 -36 -18z"/>
<path d="M814 340 c0 -58 1 -81 3 -52 2 28 2 76 0 105 -2 28 -3 5 -3 -53z"/>
<path d="M1148 398 c-8 -47 6 -151 22 -155 11 -4 12 -2 2 4 -8 7 -12 34 -11
87 1 76 -5 108 -13 64z"/>
<path d="M215 393 c-24 -23 -27 -53 -11 -78 9 -14 20 -25 24 -25 4 0 25 18 47
40 31 32 36 42 26 53 -16 21 -70 27 -86 10z"/>
<path d="M487 347 c-46 -39 -42 -62 11 -72 30 -6 39 -3 54 15 21 25 22 43 8
71 -15 27 -29 24 -73 -14z"/>
<path d="M708 373 c7 -3 16 -2 19 1 4 3 -2 6 -13 5 -11 0 -14 -3 -6 -6z"/>
<path d="M883 373 c9 -2 25 -2 35 0 9 3 1 5 -18 5 -19 0 -27 -2 -17 -5z"/>
<path d="M1043 373 c9 -2 25 -2 35 0 9 3 1 5 -18 5 -19 0 -27 -2 -17 -5z"/>
<path d="M1316 358 c-18 -26 -20 -56 -6 -92 8 -22 15 -26 47 -25 l38 2 -35 6
c-26 4 -37 13 -44 34 -15 41 3 80 39 88 30 7 30 7 3 8 -17 1 -32 -7 -42 -21z"/>
<path d="M670 351 c-14 -27 -13 -74 3 -95 10 -13 23 -16 52 -13 l40 4 -42 1
c-24 1 -44 5 -44 10 -7 34 -6 79 2 94 5 10 7 18 5 18 -3 0 -10 -9 -16 -19z"/>
<path d="M946 307 c1 -34 6 -63 11 -64 9 -3 2 112 -8 121 -2 3 -4 -23 -3 -57z"/>
<path d="M1253 305 c0 -38 2 -53 4 -32 2 20 2 52 0 70 -2 17 -4 1 -4 -38z"/>
<path d="M1004 330 c1 -8 10 -16 21 -17 15 -1 15 0 3 3 -9 3 -19 11 -21 17 -2
7 -3 5 -3 -3z"/>
<path d="M283 298 c-49 -51 -49 -83 -1 -123 34 -29 55 -31 102 -11 26 11 35
22 44 56 14 57 1 84 -52 104 -23 9 -44 16 -47 16 -3 0 -23 -19 -46 -42z"/>
<path d="M864 296 c-9 -23 -1 -49 16 -53 12 -4 13 -3 1 5 -8 6 -12 20 -9 36 6
28 1 35 -8 12z"/>
<path d="M1068 300 c37 -16 24 -44 -23 -51 l-40 -6 36 -2 c44 -1 69 21 52 47
-5 10 -19 18 -29 19 -14 2 -13 0 4 -7z"/>
<path d="M460 236 c0 -8 -3 -22 -6 -31 -6 -13 -1 -16 21 -13 35 4 57 34 35 48
-22 14 -50 12 -50 -4z"/>
</g>
</svg>
