<?xml version="1.0" standalone="no"?>
<!DOCTYPE svg PUBLIC "-//W3C//DTD SVG 20010904//EN"
 "http://www.w3.org/TR/2001/REC-SVG-20010904/DTD/svg10.dtd">
<svg version="1.0" xmlns="http://www.w3.org/2000/svg"
 width="2859.000000pt" height="982.000000pt" viewBox="0 0 2859.000000 982.000000"
 preserveAspectRatio="xMidYMid meet">

<g transform="translate(0.000000,982.000000) scale(0.100000,-0.100000)"
fill="#000000" stroke="none">
<path d="M5640 9813 c-398 -38 -678 -113 -1005 -267 -372 -176 -749 -481 -993
-803 -30 -40 -55 -73 -57 -73 -1 0 -40 25 -86 57 -151 101 -335 178 -530 220
-120 26 -458 26 -579 0 -301 -64 -538 -193 -755 -411 -129 -129 -206 -235
-280 -383 -56 -112 -109 -271 -132 -393 -24 -132 -24 -402 0 -525 16 -77 47
-198 63 -240 3 -7 -25 -24 -73 -44 -798 -332 -1295 -1162 -1202 -2009 66 -612
392 -1130 914 -1457 90 -57 229 -126 318 -160 35 -13 46 -22 43 -34 -43 -144
-57 -674 -23 -891 88 -565 299 -1026 661 -1447 333 -387 817 -697 1311 -839
278 -81 482 -108 790 -108 244 0 359 12 586 60 628 132 1231 518 1617 1035
l42 56 96 -63 c155 -104 330 -179 514 -219 101 -22 392 -31 502 -16 475 68
886 359 1107 782 167 320 211 699 119 1048 -16 64 -31 124 -31 134 -2 13 25
29 108 65 498 215 896 652 1069 1173 218 654 85 1346 -363 1880 -179 215 -449
412 -716 524 -49 21 -92 39 -94 41 -2 1 4 53 13 115 65 444 23 907 -119 1320
-162 468 -461 905 -834 1217 -457 383 -973 598 -1561 651 -106 10 -358 12
-440 4z m500 -409 c151 -19 385 -77 534 -133 647 -244 1164 -756 1420 -1409
118 -301 176 -680 155 -1013 -7 -115 -34 -329 -42 -335 -9 -6 -2128 -1862
-2148 -1881 l-26 -24 -1079 492 -1079 492 -205 438 c-113 241 -206 449 -208
461 -2 18 329 1769 353 1863 9 36 138 197 260 323 208 216 416 368 680 497
439 215 890 290 1385 229z m-3265 -804 c103 -15 211 -45 304 -84 82 -34 218
-114 239 -139 8 -10 -30 -229 -149 -848 -89 -459 -162 -835 -163 -836 -4 -4
-1470 347 -1476 354 -5 4 -17 42 -28 83 -163 602 167 1222 755 1420 163 54
355 73 518 50z m-545 -2109 l792 -187 189 -403 c156 -333 187 -407 177 -419
-18 -22 -2049 -1856 -2059 -1860 -15 -6 -216 95 -307 154 -613 398 -886 1164
-661 1857 41 126 144 334 220 442 95 134 291 326 423 413 59 40 131 85 160 99
98 50 231 101 252 96 12 -2 378 -89 814 -192z m6246 -361 c442 -221 758 -629
863 -1114 107 -491 -31 -1014 -369 -1404 -173 -199 -414 -368 -650 -455 l-65
-24 -803 187 c-441 104 -807 190 -812 192 -6 2 -107 188 -225 413 -201 385
-213 411 -197 427 40 40 2108 1848 2113 1848 3 0 69 -31 145 -70z m-3723
-1403 l1079 -492 238 -457 239 -457 -180 -937 -180 -937 -72 -96 c-89 -119
-292 -329 -412 -426 -509 -413 -1178 -604 -1830 -524 -441 55 -884 243 -1230
524 -126 102 -327 311 -417 432 -259 348 -418 736 -473 1156 -27 209 -16 597
23 763 6 26 208 213 1065 988 582 526 1061 956 1065 956 4 0 492 -222 1085
-493z m2605 -1768 c378 -88 706 -165 729 -171 42 -10 43 -12 63 -78 86 -290
57 -591 -86 -870 -249 -489 -812 -734 -1343 -584 -94 26 -307 128 -358 172
l-33 27 160 830 c88 457 160 831 160 833 0 6 70 -9 708 -159z"/>
<path d="M22657 7154 c-4 -4 -7 -238 -7 -521 l0 -513 -240 0 -240 0 0 -220 0
-220 240 0 240 0 0 -927 c0 -511 5 -1004 10 -1098 25 -414 97 -652 240 -795
212 -211 589 -260 1239 -161 74 12 137 23 139 26 6 6 -26 406 -33 413 -2 3
-147 -5 -322 -17 -344 -23 -409 -21 -516 19 -118 44 -173 123 -208 295 -35
171 -39 312 -39 1288 l0 957 540 0 540 0 0 220 0 220 -540 0 -540 0 -2 518 -3
517 -246 3 c-135 1 -248 -1 -252 -4z"/>
<path d="M14760 4915 l0 -2235 255 0 255 0 0 2235 0 2235 -255 0 -255 0 0
-2235z"/>
<path d="M24940 6845 l0 -295 255 0 255 0 0 295 0 295 -255 0 -255 0 0 -295z"/>
<path d="M12534 6179 c-719 -52 -1123 -481 -1239 -1319 -22 -156 -31 -594 -16
-780 54 -682 240 -1074 604 -1270 289 -156 648 -188 1387 -125 160 14 661 72
666 78 5 6 -12 386 -18 392 -4 4 -58 2 -120 -4 -343 -35 -1039 -60 -1225 -43
-449 40 -666 239 -753 689 -19 100 -43 390 -34 405 3 5 508 8 1123 8 l1118 0
13 204 c41 645 -76 1121 -347 1406 -211 223 -478 333 -865 360 -79 5 -152 9
-163 8 -11 0 -70 -4 -131 -9z m392 -443 c95 -20 192 -57 260 -97 72 -44 170
-148 211 -225 80 -151 130 -377 140 -636 l6 -158 -883 0 -883 0 6 128 c36 694
351 1027 952 1007 67 -3 152 -11 191 -19z"/>
<path d="M16080 5966 l0 -225 728 -4 c627 -3 734 -5 779 -19 194 -60 302 -170
355 -365 18 -66 22 -114 26 -315 l4 -236 -53 -6 c-30 -4 -290 -29 -579 -56
-643 -61 -764 -82 -958 -164 -260 -109 -404 -275 -479 -552 -26 -95 -27 -110
-27 -344 -1 -235 0 -249 27 -355 33 -132 105 -285 174 -370 187 -230 478 -323
922 -296 361 23 651 87 957 212 89 35 93 36 109 19 26 -28 124 -77 192 -94 93
-24 318 -39 479 -31 l141 7 7 106 c3 59 9 160 12 225 l7 117 -66 0 c-135 0
-278 41 -327 94 l-25 28 -5 991 c-5 881 -8 1002 -23 1079 -76 384 -245 596
-564 701 -204 68 -232 69 -1065 74 l-748 5 0 -226z m1890 -2115 l0 -560 -169
-55 c-314 -104 -611 -156 -881 -156 -214 0 -377 87 -456 241 -54 107 -69 190
-68 379 0 161 2 181 26 252 63 188 177 287 389 339 72 17 989 114 1122 118
l37 1 0 -559z"/>
<path d="M20289 6180 c-273 -20 -509 -95 -708 -224 -186 -120 -305 -307 -346
-543 -28 -161 -14 -423 31 -573 95 -321 360 -464 1089 -589 408 -71 661 -141
761 -213 100 -72 154 -208 154 -388 -1 -236 -108 -390 -329 -470 -151 -55
-229 -65 -516 -64 -256 1 -429 12 -954 64 -107 11 -196 18 -197 17 -4 -4 -31
-431 -28 -436 8 -10 776 -84 1059 -101 350 -21 688 23 926 120 368 152 549
446 549 893 0 291 -73 531 -199 658 -137 136 -416 248 -806 323 -706 136 -853
181 -953 291 -60 66 -83 127 -89 240 -17 290 142 465 482 527 139 26 620 12
1373 -38 l92 -6 0 221 c0 169 -3 223 -12 226 -15 4 -572 41 -838 54 -314 17
-431 19 -541 11z"/>
<path d="M27490 6180 c-463 -30 -789 -185 -975 -465 -194 -291 -274 -716 -262
-1389 9 -512 67 -835 199 -1104 226 -462 733 -634 1598 -543 237 25 527 64
535 73 6 6 -13 409 -19 415 -2 2 -177 -10 -389 -27 -436 -34 -508 -36 -660
-15 -310 41 -498 153 -595 355 -110 229 -161 590 -149 1060 10 378 53 623 143
809 135 277 428 394 944 378 163 -6 540 -36 657 -53 l41 -6 6 43 c3 24 7 118
8 208 l3 164 -195 28 c-443 63 -686 82 -890 69z"/>
<path d="M24940 4400 l0 -1720 255 0 255 0 0 1720 0 1720 -255 0 -255 0 0
-1720z"/>
</g>
</svg>
