<?xml version="1.0" encoding="UTF-8"?>
<svg id="Layer_2" data-name="Layer 2" xmlns="http://www.w3.org/2000/svg" viewBox="0 0 92.35 92.33">
  <defs>
    <style>
      .cls-1 {
        fill: #fff;
      }
    </style>
  </defs>
  <g id="Layer_1-2" data-name="Layer 1">
    <g id="CJs9WI">
      <g>
        <path class="cls-1" d="M48.29,0c.6.18,1.22.12,1.82.17,10.62.96,19.82,5.1,27.64,12.34,1.38,1.28,2.66,2.65,3.86,4.09.11.13.21.26.36.45-.64.02-1.2-.1-1.75-.2-2.29-.38-4.57-.81-6.85-1.19-2.18-.37-4.39-.58-6.59-.8-3.18-.32-6.37-.53-9.56-.71-.35-.02-.51.08-.62.42-3.81,11.46-7.63,22.92-11.45,34.37-.11.32-.19.65-.31.96-.1.25-.02.31.23.34,1.73.18,3.46.33,5.18.56,5.66.76,11.26,1.8,16.51,4.15,2.28,1.02,4.39,2.3,6.11,4.13,2.14,2.28,3.14,4.99,2.82,8.1-.25,2.41-1.43,4.4-3.19,6.02-2.32,2.14-5.07,3.16-8.22,3.18-2.13.01-4.2-.25-6.14-1.18-1.78-.85-3.18-2.16-4.27-3.78-1.86-2.77-3.68-5.56-5.52-8.35-.47-.71-.84-.79-1.48-.21-.9.81-1.76,1.67-2.64,2.51-.65.63-1.31,1.25-1.96,1.89-.54.54-.63,1.01-.32,1.72,1.19,2.76,2.39,5.53,3.57,8.29.12.29.3.47.59.59,1.64.69,3.38,1.03,5.11,1.34,3.44.61,6.91.97,10.41.91,7.38-.13,13.96-2.48,19.55-7.36,3.9-3.4,6.21-7.72,7.03-12.83.58-3.62.49-7.2-.62-10.71-1.41-4.45-4.22-7.83-8.05-10.41-3.32-2.24-7-3.6-10.86-4.55-3.85-.94-7.76-1.44-11.71-1.68-.43-.03-.5-.14-.37-.55.66-2.04,1.31-4.09,1.94-6.15.09-.3.21-.41.53-.4,2.92.11,5.84.24,8.75.45,2.21.16,4.42.31,6.62.5,2.68.23,5.35.52,8.02.87.31.04.43,0,.49-.33.38-2.08.79-4.16,1.18-6.24.03-.17.08-.33.14-.61,3.62,5.32,6.02,11.04,7.22,17.26,1.2,6.23,1.15,12.45-.22,18.64-4,18.05-18.29,32.04-36.17,35.46-17.61,3.37-33.72-3.62-43.24-14.49.76.12,1.45.23,2.13.35,2.91.47,5.84.85,8.77,1.17,3.53.39,7.07.67,10.61.87,2,.11,3.99.22,5.99.25.22,0,.29-.03.28-.27-.03-.85-.05-1.69-.05-2.54,0-.31-.12-.37-.41-.39-2.21-.15-4.41-.33-6.56-.91-.31-.08-.61-.2-.92-.29-1.36-.41-2-1.33-2.15-2.73-.24-2.27-.3-4.54-.39-6.81-.15-3.69-.22-7.38-.29-11.07-.08-4.54-.04-9.08-.03-13.61,0-.32.07-.65.03-.97-.07-.51.2-.59.6-.6,1.14,0,2.28-.01,3.42-.03,2.14-.02,4.27-.06,6.41-.08.21,0,.39-.07.57-.15,1.52-.7,3.04-1.41,4.56-2.1.26-.12.37-.26.36-.55-.02-.95-.02-1.91,0-2.86,0-.3-.09-.38-.4-.38-3.77-.01-7.54.09-11.3.14-1.21.02-2.43.03-3.64.11-.42.03-.44-.12-.43-.45.08-1.84.15-3.69.24-5.53.09-2.01.21-4.02.31-6.03.08-1.67.61-3.13,1.93-4.22.65-.54,1.39-.81,2.25-.82,2.28-.02,4.38.69,6.44,1.56,1.77.75,3.48,1.61,5.19,2.48.46.23.92.42,1.43.46.47.04.88-.06,1.2-.44.82-.96,1.65-1.91,2.46-2.88.54-.65.47-1.17-.19-1.68-1.5-1.15-3.02-2.28-4.5-3.46-.98-.79-2.1-1.11-3.32-1.21-3.41-.29-6.75.17-10.06.93-5.05,1.17-9.71,3.21-13.76,6.48-2.77,2.23-4.92,4.93-6.02,8.38-.45,1.42-.61,2.88-.71,4.35-.06.89-.14,1.78-.18,2.67-.01.31-.2.3-.4.32-1.26.11-2.51.22-3.77.33-.66.06-1.32.13-1.97.17-.23.02-.32.09-.33.33-.09,1.53-.18,3.07-.28,4.6-.02.31.04.42.39.4,1.89-.12,3.78-.19,5.66-.3.34-.02.39.07.38.4-.09,3.04-.19,6.09-.12,9.13.03,1.66.05,3.32.1,4.98.14,4.16.37,8.32.78,12.47.12,1.27.24,2.54.36,3.81.04.48,0,.95-.07,1.42-.07.44-.38.69-.76.87-.8.37-1.66.41-2.53.43-.27,0-.35-.23-.47-.39-2.53-3.51-4.54-7.3-6-11.38C1.2,57.55.31,53.23.08,48.78c0-.16.04-.34-.08-.49v-4.25c.12-.15.08-.33.08-.49.21-4.03.95-7.96,2.21-11.79,2.49-7.54,6.63-14.04,12.46-19.42C22.52,5.18,31.69,1.13,42.22.17c.61-.05,1.23,0,1.82-.17h4.25Z"/>
        <path class="cls-1" d="M88.18,84.72c0,1.96-1.52,3.47-3.48,3.47-1.96,0-3.45-1.52-3.44-3.5,0-1.95,1.5-3.43,3.46-3.43,1.99,0,3.47,1.48,3.46,3.47ZM81.71,84.68c0,1.69,1.32,3.05,2.98,3.05,1.66,0,3.03-1.36,3.02-3.02,0-1.64-1.36-3-2.99-3-1.65,0-3,1.33-3.01,2.98Z"/>
        <path class="cls-1" d="M85.54,84.84c.66.31.72.87.7,1.48,0,.23-.08.29-.3.28-.2,0-.33-.04-.31-.28,0-.03,0-.06,0-.09.01-1.21-.6-1.13-1.4-1.13-.22,0-.24.14-.24.3,0,.31-.01.62,0,.92.02.29-.16.27-.36.27-.2,0-.35,0-.35-.28.02-1.08.01-2.15,0-3.23,0-.23.1-.29.31-.28.52.01,1.05,0,1.57.02.64.03.98.29,1.07.76.12.62-.03.91-.7,1.25ZM84,83.98c.04.26-.2.72.47.68.82-.05,1.16-.22,1.16-.73,0-.51-.28-.63-1.12-.69-.63-.04-.5.34-.5.74Z"/>
      </g>
    </g>
  </g>
</svg>