<?xml version="1.0" standalone="no"?>
<!DOCTYPE svg PUBLIC "-//W3C//DTD SVG 20010904//EN"
 "http://www.w3.org/TR/2001/REC-SVG-20010904/DTD/svg10.dtd">
<svg version="1.0" xmlns="http://www.w3.org/2000/svg"
 width="97.000000pt" height="39.000000pt" viewBox="0 0 97.000000 39.000000"
 preserveAspectRatio="xMidYMid meet">

<g transform="translate(0.000000,39.000000) scale(0.100000,-0.100000)"
fill="#000000" stroke="none">
<path d="M0 195 l0 -195 485 0 485 0 0 195 0 195 -485 0 -485 0 0 -195z m60
125 c0 -27 3 -30 30 -30 27 0 30 3 30 30 0 24 4 30 20 30 19 0 21 -5 18 -77
-2 -61 -6 -78 -18 -78 -9 0 -17 12 -20 30 -4 23 -11 31 -32 33 -24 3 -27 -1
-30 -30 -2 -25 -8 -33 -23 -33 -18 0 -20 8 -23 64 -4 76 1 91 28 91 16 0 20
-7 20 -30z m251 10 c20 -16 22 -21 9 -29 -10 -7 -19 -6 -31 5 -32 29 -69 10
-69 -38 0 -21 6 -29 26 -34 14 -4 30 -2 37 5 12 12 47 15 47 4 -1 -30 -52 -56
-91 -48 -56 13 -80 94 -39 135 26 26 81 26 111 0z m79 -40 l0 -60 35 0 c28 0
35 -4 35 -20 0 -17 -7 -20 -39 -20 -68 0 -71 4 -71 86 0 67 2 74 20 74 18 0
20 -7 20 -60z m-276 -121 c14 -7 27 -18 30 -26 8 -19 -22 -29 -45 -15 -23 15
-29 15 -29 2 0 -5 12 -13 28 -16 15 -4 33 -11 40 -17 9 -7 17 -4 28 12 13 18
24 22 65 20 27 -2 50 -1 51 2 2 2 8 13 14 24 9 16 23 20 67 22 51 2 56 0 59
-20 2 -16 12 -23 37 -27 22 -3 37 -12 41 -25 7 -19 7 -19 14 3 10 29 44 29 55
0 8 -23 8 -23 15 -2 6 18 15 21 68 22 34 1 68 -4 75 -10 7 -6 13 -30 13 -54
l0 -44 -50 0 c-55 0 -73 17 -52 50 8 14 8 19 -2 23 -9 4 -18 -9 -26 -34 -10
-30 -18 -39 -35 -39 -15 0 -25 8 -30 22 l-8 23 -4 -22 c-3 -16 -12 -23 -27
-23 -18 0 -26 9 -36 40 -9 28 -19 40 -29 38 -22 -4 -28 -48 -7 -48 9 0 16 -7
16 -16 0 -11 -8 -14 -32 -12 -29 3 -34 7 -38 38 -7 49 -34 47 -38 -3 -3 -32
-7 -37 -28 -37 -21 0 -24 5 -25 38 -1 26 -3 30 -6 12 -2 -14 -12 -31 -21 -37
-25 -20 -79 -16 -95 7 -13 19 -13 19 -30 0 -28 -33 -117 -21 -117 15 0 18 41
20 57 4 8 -8 13 -8 18 0 3 6 -2 14 -12 17 -53 17 -63 25 -63 48 0 25 32 56 57
56 7 0 23 -5 37 -11z m813 -51 c16 -13 17 -70 1 -86 -14 -14 -67 -16 -86 -3
-7 4 -16 20 -20 34 -11 40 -27 37 -30 -5 -3 -30 -7 -38 -23 -38 -16 0 -19 7
-19 48 0 27 3 52 6 55 11 10 158 6 171 -5z"/>
<path d="M356 145 c-19 -15 -19 -15 2 -15 13 0 22 6 22 15 0 18 0 18 -24 0z"/>
<path d="M203 84 c-8 -21 13 -42 28 -27 13 13 5 43 -11 43 -6 0 -13 -7 -17
-16z"/>
<path d="M868 93 c7 -3 16 -2 19 1 4 3 -2 6 -13 5 -11 0 -14 -3 -6 -6z"/>
<path d="M878 53 c7 -3 16 -2 19 1 4 3 -2 6 -13 5 -11 0 -14 -3 -6 -6z"/>
</g>
</svg>
