<?xml version="1.0" standalone="no"?>
<!DOCTYPE svg PUBLIC "-//W3C//DTD SVG 20010904//EN"
 "http://www.w3.org/TR/2001/REC-SVG-20010904/DTD/svg10.dtd">
<svg version="1.0" xmlns="http://www.w3.org/2000/svg"
 width="350.000000pt" height="144.000000pt" viewBox="0 0 350.000000 144.000000"
 preserveAspectRatio="xMidYMid meet">

<g transform="translate(0.000000,144.000000) scale(0.100000,-0.100000)"
fill="#000000" stroke="none">
<path d="M802 1411 c-116 -40 -184 -148 -185 -296 -1 -100 21 -169 73 -228
136 -154 418 -105 470 81 5 19 7 39 4 44 -3 4 -29 8 -59 8 -51 0 -54 -1 -72
-37 -22 -45 -73 -73 -134 -73 -60 0 -107 31 -137 90 -20 38 -23 57 -20 126 2
66 7 87 28 117 56 84 170 99 237 32 18 -18 33 -40 33 -49 0 -13 12 -16 65 -16
75 0 76 2 41 76 -56 120 -203 174 -344 125z"/>
<path d="M2 1108 l3 -313 62 -3 62 -3 3 133 3 133 130 0 130 0 3 -132 3 -133
64 0 65 0 0 315 0 315 -65 0 -65 0 0 -125 0 -125 -135 0 -135 0 0 125 0 125
-65 0 -65 0 2 -312z"/>
<path d="M1250 1151 c0 -148 4 -281 10 -295 20 -54 48 -61 235 -61 l170 0 3
58 3 57 -146 0 -145 0 0 255 0 255 -65 0 -65 0 0 -269z"/>
<path d="M1114 696 c-43 -19 -48 -30 -54 -111 l-5 -70 -52 -3 -53 -3 0 -35 0
-35 -37 29 c-48 37 -92 52 -157 52 -71 0 -114 -14 -160 -52 -52 -42 -76 -98
-76 -176 0 -77 16 -117 66 -166 94 -91 263 -83 351 18 43 48 56 96 51 177 l-5
69 38 0 39 0 0 -165 0 -165 70 0 70 0 0 165 0 165 85 0 85 0 0 -125 c0 -187
16 -205 176 -205 l84 0 0 60 0 59 -57 3 -58 3 -3 103 -3 102 61 0 60 0 0 48
c0 41 10 19 71 -166 l71 -213 61 3 62 3 34 118 c19 64 37 114 40 111 3 -3 20
-56 37 -117 l30 -112 64 0 63 0 69 205 c37 113 71 213 74 223 5 15 -3 17 -68
17 l-73 0 -30 -115 c-16 -63 -32 -115 -35 -115 -3 0 -19 51 -36 113 l-30 112
-66 3 c-57 2 -67 0 -72 -15 -3 -10 -17 -63 -32 -118 -14 -55 -27 -101 -28
-103 -2 -1 -18 52 -36 118 l-33 120 -129 0 -128 0 0 100 0 100 -70 0 -70 0 0
-100 0 -100 -85 0 -85 0 0 40 0 40 60 0 60 0 0 60 0 60 -87 0 c-51 -1 -101 -6
-119 -14z m-299 -320 c68 -68 28 -190 -62 -190 -28 0 -42 7 -65 33 -27 30 -30
39 -25 84 3 39 11 56 31 74 37 31 89 31 121 -1z"/>
<path d="M149 684 c-57 -17 -115 -77 -125 -128 -15 -84 20 -167 85 -201 15 -7
63 -23 107 -34 73 -19 114 -44 114 -72 0 -24 -42 -49 -83 -49 -44 0 -76 22
-90 63 -5 14 -19 17 -81 17 l-74 0 9 -41 c14 -62 36 -96 80 -128 105 -77 283
-59 355 34 23 31 29 50 32 104 6 116 -41 165 -190 197 -43 9 -86 25 -98 36
-48 45 7 100 76 78 20 -7 40 -22 46 -36 10 -22 17 -24 85 -24 82 0 84 3 57 68
-45 109 -172 157 -305 116z"/>
<path d="M2400 498 c-49 -25 -90 -77 -90 -114 0 -23 4 -24 60 -24 33 0 60 4
60 10 0 22 41 50 74 50 42 0 71 -32 55 -62 -7 -13 -21 -18 -55 -18 -121 0
-194 -51 -194 -136 0 -76 36 -123 107 -138 42 -10 97 2 122 25 26 25 31 24 31
-6 0 -24 2 -25 70 -25 l70 0 0 163 c0 149 -2 166 -22 207 -32 61 -88 90 -177
90 -49 0 -78 -6 -111 -22z m162 -273 c-5 -28 -45 -65 -70 -65 -18 0 -52 28
-52 43 0 27 34 47 80 47 45 0 47 -1 42 -25z"/>
<path d="M3150 509 c-13 -6 -39 -21 -57 -35 l-33 -25 0 31 0 32 -126 -4 c-124
-3 -126 -3 -150 -31 -24 -28 -24 -31 -24 -223 l0 -194 70 0 70 0 0 165 0 165
63 0 64 0 -5 -75 c-4 -66 -2 -81 23 -130 32 -65 76 -99 152 -116 100 -23 207
21 249 102 23 45 19 49 -51 49 -52 0 -69 -4 -85 -20 -41 -41 -150 -11 -150 41
0 18 9 19 149 19 169 0 166 -2 151 80 -17 87 -52 135 -122 165 -42 17 -149 19
-188 4z m145 -114 c45 -44 35 -55 -55 -55 -73 0 -80 2 -80 20 0 57 90 81 135
35z"/>
</g>
</svg>
