<?xml version="1.0" encoding="UTF-8"?>
<svg id="Layer_2" data-name="Layer 2" xmlns="http://www.w3.org/2000/svg" viewBox="0 0 251.67 57.05">
  <defs>
    <style>
      .cls-1 {
        fill: #fff;
      }
    </style>
  </defs>
  <g id="Layer_1-2" data-name="Layer 1">
    <g>
      <path class="cls-1" d="M213.18,7.09c-2.51,0-4.84.74-6.8,2v-1.9c-.24-5.04-4.36-6.67-5.44-7.19h-.12v31.39s3.7-.4,5.08-2.43c2.04,1.47,4.55,2.35,7.27,2.35,6.83,0,12.36-5.43,12.36-12.11s-5.54-12.11-12.36-12.11ZM213.18,25.9c-3.79,0-6.85-3.01-6.85-6.71s3.06-6.71,6.85-6.71,6.84,3.01,6.84,6.71-3.07,6.71-6.84,6.71ZM239.31,7.09c-6.83,0-12.37,5.43-12.37,12.11s5.53,12.11,12.37,12.11c2.82,0,5.41-.93,7.5-2.49,1.28,2.1,4.85,2.49,4.85,2.49v-12.11c0-6.69-5.54-12.11-12.36-12.11ZM239.31,25.9c-3.79,0-6.85-3.01-6.85-6.71s3.06-6.71,6.85-6.71,6.84,3.01,6.84,6.71-3.07,6.71-6.84,6.71ZM140.75,7.09c-6.82,0-12.36,5.43-12.36,12.11s5.54,12.11,12.36,12.11c2.83,0,5.42-.93,7.5-2.49,1.28,2.1,4.86,2.49,4.86,2.49v-12.11c0-6.69-5.53-12.11-12.36-12.11ZM140.75,25.9c-3.78,0-6.84-3.01-6.84-6.71s3.07-6.71,6.84-6.71,6.86,3.01,6.86,6.71-3.07,6.71-6.86,6.71ZM167.9,7.09c1.57,0,3.05.29,4.43.81v6.39c-1.18-1.01-2.73-1.63-4.43-1.63-3.74,0-6.75,2.97-6.75,6.62v12.03h-5.68V9.34s2.33.11,3.84,1.14c2.24-2.1,5.26-3.41,8.61-3.41M198.36,19.16c-.03,6.7-5.33,12.14-11.83,12.14s-11.81-5.44-11.84-12.14v-10.35s5.64,1.41,5.69,7.47v2.81c0,3.66,2.76,6.63,6.14,6.63s6.15-2.97,6.15-6.63v-5.88c.24-5.06,4.47-6.67,5.57-7.19h.11v13.15h.02Z"/>
      <path class="cls-1" d="M41.51,6.39v45.6h-11.96v-18.05H11.96v18.05H0V6.39h11.96v17.3h17.6V6.39h11.96ZM71.76,22.43c0,3.42-1.92,5.72-6.24,5.72h-6.91v-11.43h6.91c4.32,0,6.24,2.3,6.24,5.72ZM66.77,38.11c9.88,0,16.57-5.49,16.57-15.68s-6.69-15.75-16.57-15.75h-19.97v45.6h11.81v-14.18h8.16ZM86.77,6.68v45.6h32.6v-10.31h-20.87v-7.89h19.1v-10.03h-19.1v-7.11h20.87V6.68h-32.6Z"/>
      <path class="cls-1" d="M131.77,40.13v1.12c.65-.76,1.85-1.39,3.26-1.39,2.75,0,4.3,1.8,4.3,4.49v7.94h-3.37v-7.24c0-1.28-.65-2.15-1.99-2.15-1.03,0-1.93.63-2.2,1.69v7.7h-3.37v-12.16h3.37ZM144.88,46.98c.27,1.99,1.71,2.8,3.51,2.8,1.33,0,2.28-.3,3.48-1.06v2.77c-1.01.73-2.37,1.06-4,1.06-3.7,0-6.23-2.39-6.23-6.26s2.39-6.45,5.71-6.45c3.54,0,5.36,2.45,5.36,6.04v1.09h-7.83ZM144.99,44.78h4.6c-.08-1.31-.82-2.23-2.15-2.23-1.12,0-2.07.71-2.45,2.23ZM156.5,52.29v-9.44h-2.31v-2.72h2.31v-3.29h3.37v3.29h2.58v2.72h-2.58v9.44h-3.37ZM177.96,40.13h3.26l-3.7,12.16h-3.1l-1.99-7.45-1.99,7.45h-3.1l-3.7-12.16h3.37l2.18,7.75,1.99-7.75h2.58l2.01,7.75,2.18-7.75ZM188.37,52.56c-3.54,0-5.96-2.61-5.96-6.34s2.42-6.36,5.96-6.36,5.96,2.61,5.96,6.36-2.42,6.34-5.96,6.34ZM188.37,42.71c-1.69,0-2.61,1.47-2.61,3.51s.92,3.48,2.61,3.48,2.61-1.47,2.61-3.48-.92-3.51-2.61-3.51ZM204.12,43.45c-.46-.27-1.06-.41-1.69-.41-1.14,0-2.07.6-2.31,1.71v7.53h-3.37v-12.16h3.37v1.2c.52-.87,1.52-1.47,2.72-1.47.57,0,1.09.11,1.28.22v3.37ZM214.32,52.29l-4.38-5.6v5.6h-3.37v-17.68h3.37v10.34l4.16-4.81h4.05l-5.06,5.58,5.17,6.58h-3.94ZM221.69,38.55c-1.09,0-2.01-.79-2.01-1.93s.92-1.93,2.01-1.93,1.99.82,1.99,1.93-.92,1.93-1.99,1.93ZM220.01,52.29v-12.16h3.37v12.16h-3.37ZM229.96,40.13v1.12c.65-.76,1.85-1.39,3.26-1.39,2.75,0,4.3,1.8,4.3,4.49v7.94h-3.37v-7.24c0-1.28-.65-2.15-1.99-2.15-1.03,0-1.93.63-2.2,1.69v7.7h-3.37v-12.16h3.37ZM248.29,50.9c-.54.63-1.6,1.22-2.96,1.22-3.51,0-5.49-2.83-5.49-6.12s1.99-6.15,5.49-6.15c1.36,0,2.42.6,2.96,1.22v-.95h3.37v10.83c0,4.46-3.29,6.09-6.61,6.09-1.66,0-3.21-.41-4.19-1.03v-3.32c1.25,1.09,2.56,1.5,4.13,1.5,1.82,0,3.29-.92,3.29-2.91v-.38ZM248.29,43.94c-.38-.68-1.25-1.25-2.26-1.25-1.8,0-2.83,1.39-2.83,3.32s1.03,3.29,2.83,3.29c1.01,0,1.88-.54,2.26-1.25v-4.11Z"/>
    </g>
  </g>
</svg>