<?xml version="1.0" encoding="UTF-8"?>
<svg id="Layer_2" data-name="Layer 2" xmlns="http://www.w3.org/2000/svg" viewBox="0 0 240.18 100.33">
  <defs>
    <style>
      .cls-1 {
        fill: #fff;
      }
    </style>
  </defs>
  <g id="Layer_1-2" data-name="Layer 1">
    <g>
      <path id="element" class="cls-1" d="M0,0v23.61h82.19V0H0ZM77.05,18.47H5.14V5.14h71.91v13.33Z"/>
      <path class="cls-1" d="M5.14,62.63H0v-23.61h5.14v9.33h9.18v-9.33h5.14v23.61h-5.14v-9.78H5.14v9.78ZM31.12,63c-5.21,0-8.76-3.29-8.76-8.69s3.48-8.88,8.08-8.88c5.02,0,7.52,3.36,7.52,8.39v1.89h-10.73c.61,2.61,2.64,3.28,4.68,3.28,1.77,0,3.06-.38,4.65-1.36h.19v3.89c-1.36.98-3.29,1.47-5.63,1.47ZM27.23,52.28h6.12c-.11-1.74-.83-2.95-2.83-2.95-1.51,0-2.83.64-3.29,2.95ZM51.37,52.73l-2.64,9.9h-4.49l-5.14-16.62v-.19h4.91l2.8,9.93,2.64-9.93h4l2.68,9.93,2.83-9.93h4.72v.19l-5.14,16.62h-4.5l-2.68-9.9ZM72.03,63c-4.08,0-5.74-1.62-5.74-5.44v-18.55h4.99v18.21c0,1.17.45,1.59,1.44,1.59.34,0,.83-.11,1.13-.23h.08v4.12c-.41.15-1.13.3-1.89.3ZM84.08,63c-5.21,0-8.76-3.29-8.76-8.69s3.47-8.88,8.08-8.88c5.02,0,7.52,3.36,7.52,8.39v1.89h-10.73c.6,2.61,2.64,3.28,4.68,3.28,1.78,0,3.06-.38,4.65-1.36h.19v3.89c-1.36.98-3.29,1.47-5.63,1.47ZM80.19,52.28h6.12c-.11-1.74-.83-2.95-2.83-2.95-1.51,0-2.83.64-3.29,2.95ZM111.39,45.82h3.7v4h-3.7v6.84c0,1.47.57,2.15,2.08,2.15.42,0,.94-.04,1.51-.23h.11v3.93c-.64.23-1.62.49-3.06.49-4.04,0-5.63-1.85-5.63-6.12v-7.06h-6.38v6.84c0,1.47.57,2.15,2.08,2.15.42,0,.94-.04,1.51-.23h.11v3.93c-.64.23-1.62.49-3.06.49-4.04,0-5.63-1.85-5.63-6.12v-7.06h-2.57v-4h2.57v-4.61h4.99v4.61h6.38v-4.61h4.99v4.61ZM140.96,47.03c0,5.14-3.44,7.93-8.65,7.93h-3.66v7.67h-5.14v-23.61h8.8c5.21,0,8.65,2.79,8.65,8.01ZM131.89,50.61c2.61,0,3.85-1.47,3.85-3.59s-1.25-3.66-3.85-3.66h-3.25v7.25h3.25ZM152.06,60.96c-1.1,1.32-2.72,1.96-4.46,1.96-3.29,0-5.97-2-5.97-5.55,0-3.29,2.68-5.48,6.53-5.48,1.21,0,2.46.19,3.74.57v-.3c0-1.81-1.02-2.61-3.7-2.61-1.7,0-3.32.49-4.72,1.28h-.19v-4c1.28-.76,3.55-1.4,5.78-1.4,5.06,0,7.82,2.42,7.82,6.65v10.54h-4.84v-1.66ZM151.91,57.34v-1.44c-.76-.41-1.74-.57-2.76-.57-1.62,0-2.61.6-2.61,1.96s.98,2,2.45,2c1.4,0,2.45-.72,2.91-1.97ZM159.43,54.24c0-5.4,3.82-8.8,8.8-8.8,1.78,0,3.44.38,4.68,1.28v4.27h-.19c-1.1-.83-2.38-1.32-3.85-1.32-2.49,0-4.38,1.7-4.38,4.57s1.89,4.53,4.38,4.53c1.47,0,2.76-.49,3.85-1.32h.19v4.27c-1.25.91-2.91,1.28-4.68,1.28-4.99,0-8.8-3.36-8.8-8.76ZM181.03,55v7.63h-4.98v-23.61h4.98v13.45l5.03-6.65h5.66v.19l-6.04,7.63,6.04,8.8v.19h-5.7l-4.99-7.63ZM203.05,60.96c-1.1,1.32-2.72,1.96-4.46,1.96-3.29,0-5.97-2-5.97-5.55,0-3.29,2.68-5.48,6.54-5.48,1.21,0,2.45.19,3.74.57v-.3c0-1.81-1.02-2.61-3.7-2.61-1.7,0-3.33.49-4.72,1.28h-.19v-4c1.28-.76,3.55-1.4,5.78-1.4,5.06,0,7.82,2.42,7.82,6.65v10.54h-4.83v-1.66ZM202.9,57.34v-1.44c-.76-.41-1.74-.57-2.76-.57-1.62,0-2.61.6-2.61,1.96s.98,2,2.45,2,2.46-.72,2.91-1.97ZM216.27,48.54c.9-1.85,2.23-2.91,4.08-2.91.68,0,1.36.15,1.62.3v4.76h-.19c-.57-.23-1.25-.38-2.19-.38-1.55,0-2.76.91-3.17,2.64v9.67h-4.99v-16.81h4.84v2.72ZM235.35,60.89c-1.06,1.36-2.72,2.11-4.98,2.11-4.31,0-7.06-3.93-7.06-8.76s2.76-8.8,7.06-8.8c2.19,0,3.78.68,4.83,1.93v-8.35h4.99v23.61h-4.84v-1.74ZM235.19,56.92v-5.4c-.83-1.21-1.92-1.74-3.17-1.74-2.19,0-3.66,1.59-3.66,4.46s1.47,4.42,3.66,4.42c1.25,0,2.34-.53,3.17-1.74ZM0,70.33h14.58v2.87H3.29v7.21h10.24v2.8H3.29v7.86h11.29v2.87H0v-23.61ZM26.63,76.98c3.74,0,5.82,2.45,5.82,6.5v10.46h-3.13v-10.39c0-2.15-1.1-3.7-3.47-3.7-1.96,0-3.63,1.25-4.19,3.02v11.07h-3.14v-16.62h3.14v2.42c.98-1.55,2.64-2.76,4.99-2.76ZM40.87,77.32h4.27v2.68h-4.27v8.95c0,1.89.98,2.53,2.76,2.53.49,0,1.02-.07,1.4-.23h.11v2.68c-.45.19-1.09.34-1.96.34-3.89,0-5.44-1.78-5.44-5.02v-9.25h-2.87v-2.68h2.87v-4.42h3.14v4.42ZM55.34,94.28c-4.87,0-8.2-3.25-8.2-8.46s3.1-8.84,7.59-8.84,6.95,3.29,6.95,8.16v1.44h-11.41c.34,3.36,2.49,4.99,5.48,4.99,1.85,0,3.17-.41,4.65-1.51h.11v2.76c-1.36,1.06-3.14,1.47-5.18,1.47ZM50.39,84.01h8.27c-.11-2.45-1.32-4.34-3.89-4.34-2.38,0-3.93,1.77-4.38,4.34ZM68.52,79.89c.72-1.77,2.3-2.83,4.12-2.83.72,0,1.36.11,1.62.26v3.1h-.11c-.45-.23-1.21-.34-1.96-.34-1.7,0-3.13,1.13-3.66,3.02v10.84h-3.14v-16.62h3.14v2.57ZM84.91,76.98c4.95,0,7.59,4.04,7.59,8.65s-2.64,8.65-7.59,8.65c-2.04,0-3.78-1.06-4.65-2.19v8.24h-3.14v-23h3.14v1.89c.87-1.17,2.61-2.23,4.65-2.23ZM84.38,91.45c3.1,0,4.91-2.45,4.91-5.82s-1.81-5.82-4.91-5.82c-1.7,0-3.29,1.02-4.12,2.64v6.39c.83,1.62,2.42,2.61,4.12,2.61ZM99.34,79.89c.72-1.77,2.3-2.83,4.12-2.83.72,0,1.36.11,1.62.26v3.1h-.11c-.45-.23-1.21-.34-1.96-.34-1.7,0-3.14,1.13-3.66,3.02v10.84h-3.14v-16.62h3.14v2.57ZM109.61,70.6c1.1,0,2,.87,2,1.96s-.91,1.96-2,1.96-2-.87-2-1.96.94-1.96,2-1.96ZM108.06,77.32h3.14v16.62h-3.14v-16.62ZM122.38,84.23c2.38.75,5.02,1.74,5.02,4.91,0,3.4-2.79,5.14-6.38,5.14-2.19,0-4.38-.53-5.63-1.51v-2.98h.15c1.4,1.28,3.47,1.85,5.44,1.85,1.78,0,3.36-.68,3.36-2.12s-1.32-1.81-3.93-2.68c-2.34-.76-4.95-1.62-4.95-4.76s2.64-5.1,6.01-5.1c1.96,0,3.7.41,5.1,1.36v3.02h-.11c-1.36-1.1-2.95-1.74-4.91-1.74s-3.06.87-3.06,2.04c0,1.32,1.21,1.7,3.89,2.57ZM138.32,94.28c-4.87,0-8.2-3.25-8.2-8.46s3.1-8.84,7.59-8.84,6.95,3.29,6.95,8.16v1.44h-11.41c.34,3.36,2.49,4.99,5.48,4.99,1.85,0,3.17-.41,4.65-1.51h.11v2.76c-1.36,1.06-3.14,1.47-5.17,1.47ZM133.37,84.01h8.27c-.11-2.45-1.32-4.34-3.89-4.34-2.38,0-3.93,1.77-4.38,4.34Z"/>
    </g>
  </g>
</svg>