<?xml version="1.0" encoding="UTF-8"?>
<svg id="Layer_2" data-name="Layer 2" xmlns="http://www.w3.org/2000/svg" viewBox="0 0 596.36 49.74">
  <defs>
    <style>
      .cls-1 {
        fill: #fff;
      }
    </style>
  </defs>
  <g id="Layer_1-2" data-name="Layer 1">
    <g>
      <path class="cls-1" d="M301.75,39.06c-.35,0-.65-.11-.88-.35-.23-.23-.35-.52-.35-.88v-11.05h-10.89c-.35,0-.65-.11-.88-.35-.23-.23-.35-.52-.35-.88v-1.7c0-.35.11-.65.35-.88s.52-.35.88-.35h10.89v-10.73c0-.35.11-.65.35-.88.23-.23.52-.35.88-.35h1.86c.35,0,.65.12.88.35.23.23.35.52.35.88v10.73h10.95c.35,0,.65.12.88.35.23.23.35.52.35.88v1.7c0,.35-.12.65-.35.88s-.52.35-.88.35h-10.95v11.05c0,.35-.12.65-.35.88s-.52.35-.88.35h-1.86Z"/>
      <g id="_8TBqSI.tif" data-name="8TBqSI.tif">
        <g>
          <path class="cls-1" d="M89.25,49.3c.04-.26.28-.22.46-.29,1.08-.41,2.29-.67,3.4-1.06,3.75-1.33,7.53-3.06,10.87-5.22l-4.86-18.4-12.98,3.38,2.69,10.43c-.07.28-1.08.65-1.4.77-11.56,4.42-17.06-11.78-9.41-18.43,4.54-3.94,11.59-4.28,17.31-3.85l-1.57-5.79.17-.26,27.84-.15c7.22.29,14.48,3.37,13.73,11.81-.3,3.36-2.58,6.14-5.59,7.52-1.21.55-2.51.79-3.74,1.26.93.51,2.07.65,3.07,1.12,1.13.54,2.04,1.35,2.89,2.25l1.14,1.42,9.09-25.35,20.41-.04,9.05,24.17.06-24.24,22.04-.18,5.43,21.17,4.88-21.18c5.2-.07,10.42.07,15.62,0,.35,0,.68-.14,1.07-.15,1.83-.03,3.66.04,5.49,0l.13,38.74h-13.33s-.26-30.37-.26-30.37l-7.9,30.31-12.44.18-8.06-30.36.07,30.5h-23.67l-2.32-8.35c-4.28-.13-8.54.19-12.82.13l-2.18,8.12-.26.17-22.24.04-.2-.2c-.34-2.48-.54-5.04-1.01-7.5-.43-2.25-1.33-5.37-4.22-5.37h-4.6c-.15,0-.19.33-.21.47-.36,3.09.03,7.74.15,10.93.02.61-.03,1.22,0,1.83h-21.78ZM156.61,31.48l-4.18-12.49-.35-.33-4.26,12.82h8.79ZM110.89,27.43h5.75c.28,0,1.52-.44,1.83-.6,2.38-1.2,2.98-4.7.94-6.49-.6-.53-2.27-1.28-3.04-1.28h-5.48v8.37Z"/>
          <path class="cls-1" d="M63.42,16.57c-.04.13-1.24,1.45-1.46,1.78-4.99,7.19-4.49,16.66.54,23.7,2.58,3.61,5.37,5.41,9.42,7.08.2.08.37-.08.3.3l-30.7.13-7.78-28.07-.14,28.07h-12.44l-.14-38.74h22.05l7.64,27.26V10.7h12.51s.2.19.2.2v5.67Z"/>
          <path class="cls-1" d="M14.86,10.83l.12,38.52c-.05.18-.16.19-.32.22-.74.14-2.02-.04-2.85,0-.32.01-.62.14-.94.15-3.51.1-7.03-.07-10.54-.02L0,11.19l.11-.16,14.75-.19Z"/>
          <path class="cls-1" d="M244.93,39.85v1.75h-6.76c-.07.38.09.22.3.3,1.97.79,4.33,1.13,6.33,1.92.26.22.09.87.14,1.2l-6.77,2.24h6.76c-.02.27.11,1.48-.2,1.48h-7.84s-.2-.19-.2-.2v-2.77c.59-.22,4.79-1.18,4.87-1.42.1-.29-.18-.17-.32-.22-1.25-.4-3.05-.74-4.18-1.24-.11-.05-.37-.23-.37-.3v-2.56s.19-.2.2-.2h8.05Z"/>
          <path class="cls-1" d="M244.8,17.99v2.02c-.67.34-2.63.74-3.11,1.15-.29.24-.07,1.16-.13,1.55h3.04c.34,0,.16,1.6.2,1.89h-8.25v-4.25c0-.31.45-1.36.67-1.62.81-.94,2.61-.98,3.46-.07.16.18.41.79.53.8.4.03,2.88-1.48,3.59-1.47ZM240.2,22.71v-1.96c0-.19-.58-.75-.81-.82-1.54-.48-1.6,1.8-1.49,2.78h2.3Z"/>
          <path class="cls-1" d="M239.49,9.52c2.02-.29,4.66.12,5.27,2.37,1.58,5.85-9.2,6.07-8.31.4.22-1.42,1.66-2.56,3.05-2.76ZM239.49,11.41c-1.12.19-2.13,1.21-1.32,2.33s4.96,1.1,5.25-.58c.33-1.94-2.68-1.96-3.93-1.76Z"/>
          <path class="cls-1" d="M239.66,26.62v1.89c0,.09-1.06-.16-1.54.69-1.63,2.84,6.57,3.33,5.23.02-.31-.77-1.3-.77-1.37-.86-.1-.12.04-1.44-.01-1.74,2.14-.03,3.15,1.76,2.98,3.72-.37,4.31-8.03,4.17-8.4.13-.21-2.27.75-3.77,3.12-3.85Z"/>
          <path class="cls-1" d="M250.31.07c5.72-.89,6.39,7.22,1.31,7.78-5.24.58-5.88-7.07-1.31-7.78ZM250.44.74c-3.14.53-3.23,5.88.14,6.41,4.79.76,4.92-7.27-.14-6.41Z"/>
          <path class="cls-1" d="M244.93,35.53c-.26.56-.15,1.19,0,1.75h-8.25c.03-.3-.13-1.75.2-1.75h8.05Z"/>
          <path class="cls-1" d="M249.67,1.79c1.05-.14,3.26-.44,3.26,1.15,0,1.19-1.22,1.13-1.23,1.35l1.21,1.82c-1.46.27-1.22-2.13-2.57-1.89-.08.41.13,1.47-.06,1.76s-.61.06-.61-.07V1.79ZM252.08,2.49c-.14-.22-1.34-.42-1.61-.23-.19.13-.19,1.13-.07,1.3.18.26,1.34.12,1.57-.07.17-.15.21-.82.11-.99Z"/>
        </g>
      </g>
      <g id="j98cht.tif">
        <g>
          <path class="cls-1" d="M425.71,24.41c.6-9.43,9.54-11.7,17.54-10.64,4.28.56,8.16,2.63,8.29,7.43h-7c-.21-3.35-4.34-3.77-6.93-3.25-3.18.64-4.91,3.12-5.11,6.27-.47,7.39,4.3,9.43,10.89,8.26.56-.1,1.1-.26,1.66-.34v-3.87h-5.76v-4.19s.1-.11.11-.11h12.15v11.64c-1.16.44-2.47.73-3.71.96-8.5,1.57-21.4,1.39-22.12-9.9-.04-.66-.04-1.6,0-2.26Z"/>
          <path class="cls-1" d="M472.34,43.09c-.15,0-.43-.05-.62-.07-3.3-.34-6.63-1.71-6.68-5.54h6.02c.18.41.15.76.44,1.16,1.14,1.57,4.99,1.15,6.37.04.66-.53,1.39-1.92,1.39-2.77v-2.3c-2.24,2.4-6,3.09-9.12,2.37-4.58-1.05-6.67-5.19-5.73-9.67.99-4.7,5.65-6.46,10.04-5.73,1.94.32,3.57,1.33,5.03,2.59-.03-.79.02-1.56.15-2.33h5.98l-.22,3.1c-.14,3.63.19,7.41,0,11.02-.29,5.71-3.94,7.8-9.27,8.13-1.11.07-2.69.07-3.79,0ZM474.37,23.92c-2.86.25-4.07,2.41-3.86,5.12.36,4.56,7.74,4.98,8.71.61.78-3.52-1.2-6.05-4.86-5.73Z"/>
          <g>
            <path class="cls-1" d="M374.15,2.49c4.83-.19,9.75.11,14.59-.02,9.3.24,16.86,8.17,18.57,16.98.06.32.26.73-.18.84h-8.15c-.1-.03-.16-.1-.23-.18-.27-.33-.56-.91-.83-1.29-4.5-6.34-12.69-8.62-19.65-4.8-5.9,3.24-9.17,10.19-8.49,16.83-.05.24-.3.39-.49.18-.13-.15-.33-1.29-.38-1.56-1.53-8.37,1.22-17.5,7.91-22.9.22-.17,1.54-1.1,1.59-1.19.09-.2-.11-.4-.3-.39-.06,0-.14.05-.2.07-.56.21-1.36.7-1.9,1.01-7.71,4.52-12.46,12.82-11.08,21.9,1.47,9.71,9.84,16.94,19.22,18.77.27.13.2.45-.06.53-3.04-.04-6.09.09-9.13.01-11.42-.3-22.57-7.44-24.37-19.31-2.15-14.18,10.12-24.98,23.54-25.5Z"/>
            <path class="cls-1" d="M379.55,43.64c.13-.13.86.03,1.07.04,2.9.1,5.54-.7,7.77-2.56,5.18-4.35,5.27-12.38.11-16.78-.25-.22-.9-.63-1.06-.84-.11-.16-.09-.26.04-.4h22.46s.09.03.11.07c.04.08.03.92.02,1.08-.55,14.23-14.68,24.23-28.38,20.52-.46-.13-1.7-.45-2.06-.68-.15-.09-.2-.33-.08-.45Z"/>
          </g>
          <path class="cls-1" d="M542.32,36.81h-6.06v-10.1c0-1.35-1.17-2.49-2.46-2.64-3.03-.36-4.43,1.38-4.54,4.25v8.5h-5.98v-10.03c0-1.45-1.2-2.61-2.59-2.73-2.96-.27-4.31,1.47-4.41,4.27v8.5h-5.98c-.1-4.36.13-8.74,0-13.1,0-.17-.07-.33-.08-.5-.03-.79.02-1.59-.14-2.37h6.06c.12.74.14,1.49.22,2.23,0,.07.04.25.11.25.08,0,.99-.95,1.21-1.12,2.09-1.6,5-2.15,7.56-1.51,1.66.42,2.88,1.42,3.57,3,1.32-1.82,3.22-2.95,5.47-3.21,4.2-.48,7.78,1.44,8.07,5.94v10.4Z"/>
          <path class="cls-1" d="M507.58,36.81h-5.69c-.25-.72-.38-1.49-.37-2.26-1.79,2.1-4.76,2.68-7.42,2.67-3.48-.01-6.69-1.38-6.37-5.41.26-3.31,2.98-4.63,5.95-4.93,2.54-.25,5.14-.1,7.7-.15.29-2.42-1.36-3.26-3.54-3.14-1.31.08-2.69.47-2.88,1.97h-6.2c.3-3.9,4.47-4.87,7.7-5.11,4.05-.29,10.46-.02,10.84,5.29.21,2.95-.16,6.15,0,9.12.03.65.16,1.3.29,1.93ZM501.38,29.66c-1.28.02-2.63.01-3.9.15s-3.42.5-3.4,2.15c.03,1.88,2.93,1.93,4.25,1.7,2.1-.36,3.21-1.88,3.05-3.99Z"/>
          <path class="cls-1" d="M554.27,20.42c6.27-.36,12.66,1.67,12.2,9.13-.38,6.17-5.86,7.67-11.13,7.66-5.22-.01-10.25-1.76-10.62-7.73-.38-6.15,3.99-8.74,9.54-9.06ZM555.14,23.63c-3.67.28-4.61,4.17-3.67,7.2,1.17,3.79,6.95,3.77,8.24,0,1.18-3.44-.46-7.52-4.57-7.2Z"/>
          <path class="cls-1" d="M588.43,36.81h-6.13v-9.96c0-1.66-1.42-2.7-2.95-2.81-3.3-.23-4.63,1.45-4.79,4.56-.14,2.69.11,5.51,0,8.21h-6.13l-.15-15.98h6.13c.18.82.11,1.65.18,2.48.72-.65,1.39-1.28,2.25-1.76,3.34-1.86,9.1-1.65,10.93,2.22.23.49.64,1.77.64,2.28v10.76Z"/>
          <rect class="cls-1" x="455.19" y="20.84" width="6.13" height="15.98"/>
          <rect class="cls-1" x="454.97" y="13.83" width="6.57" height="4.52"/>
          <path class="cls-1" d="M592.94,15.41c4.25-.29,4.71,6.24.46,6.55-4.35.32-4.8-6.25-.46-6.55ZM592.67,16c-3.3.45-2.82,5.74.73,5.42,3.57-.32,3.15-5.95-.73-5.42Z"/>
          <path class="cls-1" d="M593.61,17c.86.14,1.1,1.28.36,1.75l-.5.22c.19.05.31.25.45.38l.72,1.17c-.15-.03-.58.05-.68-.01-.05-.03-.47-.85-.58-1-.36-.51-.49-.53-1.14-.49v1.49h-.53v-3.52c.58.06,1.34-.09,1.89,0ZM592.25,18.49h1.15c.32,0,.49-.48.34-.77-.03-.06-.24-.25-.29-.25h-1.2v1.01Z"/>
        </g>
      </g>
    </g>
  </g>
</svg>