<?xml version="1.0" encoding="UTF-8"?>
<svg id="Layer_2" data-name="Layer 2" xmlns="http://www.w3.org/2000/svg" viewBox="0 0 257.75 33.15">
  <defs>
    <style>
      .cls-1 {
        fill: #fff;
      }
    </style>
  </defs>
  <g id="Layer_1-2" data-name="Layer 1">
    <path class="cls-1" d="M115.24,6.84h-12.93s-.02,0-.02.02v25.16c0,.27-.22.48-.48.48h-6.25c-.27,0-.48-.22-.48-.48V6.86s0-.02-.02-.02h-12.9c-.27,0-.48-.22-.48-.48V.72c0-.27.22-.48.48-.48h33.08c.27,0,.48.22.48.48v5.63c0,.27-.22.48-.48.48ZM207.11.24h-6.25c-.27,0-.48.22-.48.48v31.3c0,.27.22.48.48.48h6.25c.27,0,.48-.22.48-.48V.72c0-.27-.22-.48-.48-.48ZM257.6,31.73c.14.12.19.32.13.49s-.23.29-.42.29h-9.62c-.11,0-.21-.04-.29-.11l-10.57-9.15c-.1-.08-.15-.21-.15-.34s.06-.25.15-.34l4.81-4.16c.17-.15.42-.15.58,0l15.38,13.31ZM241.63,14.33c.08.07.19.11.29.11s.21-.04.29-.11l15.38-13.31c.14-.12.19-.32.13-.49-.07-.17-.23-.29-.42-.29h-9.62c-.11,0-.21.04-.29.11l-10.57,9.15c-.1.08-.15.21-.15.34s.06.25.15.34l4.81,4.17ZM239.62,16.37c0-.13-.06-.25-.15-.34L221.33.35c-.08-.07-.18-.11-.29-.11h-9.62c-.19,0-.35.12-.42.29-.07.17-.01.37.13.49l17.72,15.34s0,.02,0,.03l-17.72,15.34c-.14.12-.19.32-.13.49s.23.29.42.29h9.62c.11,0,.21-.04.29-.11l18.13-15.69c.1-.09.15-.21.15-.34ZM7.21,10.73s.02-.03.03-.02c.95.85,22.54,20.18,23.58,21,.92.72,1.98,1.17,3.37.97,1.79-.22,3.76-1.75,3.76-4.32V.72c0-.27-.22-.48-.48-.48h-6.25c-.27,0-.48.22-.48.48v21.28s-.02.03-.03.02C29.76,21.17,8.17,1.83,7.13,1.01,6.21.29,5.15-.15,3.76.05,1.97.27,0,1.8,0,4.37v27.65c0,.27.22.48.48.48h6.25c.27,0,.48-.22.48-.48V10.73ZM165.78,10.73s.02-.03.03-.02c.95.85,22.54,20.18,23.58,21,.92.72,1.98,1.17,3.37.97,1.79-.22,3.76-1.75,3.76-4.32V.72c0-.27-.22-.48-.48-.48h-6.25c-.27,0-.48.22-.48.48v21.28s-.02.03-.03.02c-.95-.85-22.54-20.18-23.58-21-.92-.72-1.98-1.17-3.37-.97-1.79.22-3.76,1.75-3.76,4.32v27.65c0,.27.22.48.48.48h6.25c.27,0,.48-.22.48-.48V10.73ZM61.89,33.15c3.89,0,8.23-.23,10.89-1.8,3.54-2.09,5.27-5,5.27-8.88V.72c0-.27-.22-.48-.48-.48h-6.31c-.27,0-.48.22-.48.48v21.33c-.06,4.25-5.32,4.29-9.12,4.29h-3.45c-3.8,0-9.05-.04-9.11-4.29V.72c0-.27-.22-.48-.49-.48h-6.31c-.27,0-.48.22-.48.48v21.75c0,3.88,1.73,6.78,5.27,8.88,2.66,1.57,7,1.79,10.89,1.8h3.91ZM155.59,31.78c.1.14.11.32.03.48-.08.15-.23.25-.41.25h-7.71c-.15,0-.3-.08-.39-.2l-4.5-6.43s0,0-.02,0h-23.13s-.01,0-.02,0l-4.52,6.44c-.08.12-.23.2-.37.2h-7.71c-.17,0-.33-.1-.41-.25s-.07-.34.03-.48c0,0,19.62-28,20.83-29.67C128.52.44,129.73,0,131.04,0c1.44,0,2.56.54,3.64,1.98l20.91,29.8ZM137.92,19.23l-6.86-9.72s-.02-.01-.03,0l-6.87,9.72s0,.03.02.03h13.73s.03-.02.02-.03Z"/>
  </g>
</svg>