<?xml version="1.0" encoding="UTF-8"?>
<svg id="Layer_2" data-name="Layer 2" xmlns="http://www.w3.org/2000/svg" viewBox="0 0 340.48 59.53">
  <defs>
    <style>
      .cls-1 {
        fill: #fff;
      }
    </style>
  </defs>
  <g id="Layer_1-2" data-name="Layer 1">
    <g id="RJgrF8">
      <g>
        <path class="cls-1" d="M46.68,0c2.14.52,4,1.53,5.5,3.16.95,1.02,1.51,2.29,2.2,3.47,3.58,6.13,7.24,12.23,10.65,18.45,1.72,3.14,1.65,6.52-.25,9.68-.84,1.4-1.86,2.7-2.71,4.1-1.77,2.94-4.43,4.23-7.77,4.26-4.61.03-9.22.01-13.83,0-.78,0-.82-.08-.41-.78,2.4-4.11,4.79-8.22,7.21-12.32.25-.42.25-.72,0-1.14-2.24-3.74-4.46-7.49-6.66-11.25-.27-.47-.59-.62-1.12-.62-4.41.02-8.82.02-13.23,0-.51,0-.79.16-1.05.6-2.19,3.74-4.4,7.47-6.63,11.19-.27.45-.29.79-.02,1.26,5.35,9.4,10.69,18.82,16.02,28.23.14.25.27.51.42.76.18.3.11.45-.25.44-.07,0-.13,0-.2,0-4.72,0-9.44.08-14.16-.04-2.8-.07-5.17-1.21-6.68-3.7-1.05-1.72-2.02-3.48-3.03-5.22-3.14-5.42-6.28-10.84-9.43-16.25-.5-.87-.89-1.78-1.25-2.71v-3.72c.33-.89.7-1.76,1.18-2.59C5.34,18.12,9.5,10.95,13.66,3.77c.58-1,1.35-1.79,2.32-2.42,1.1-.71,2.32-1.06,3.58-1.36h27.13Z"/>
        <path class="cls-1" d="M130.96,30.85c0-4.16,0-8.32,0-12.47,0-.89,0-.89.89-.89,3.1,0,6.2-.02,9.31,0,1.7.01,3.35.33,4.89,1.08,2.87,1.4,4.21,3.81,4.38,6.91.17,3.04-.99,5.52-3.34,7.44-.45.37-.56.65-.14,1.11.95,1.05,1.54,2.3,2.03,3.61.74,1.96,1.56,3.9,2.33,5.85.26.67.22.73-.47.73-2.06,0-4.12,0-6.18.01-.45,0-.67-.17-.82-.58-.77-2.05-1.59-4.08-2.35-6.13-.36-.98-1.11-1.62-1.87-2.18-.53-.39-1.33-.18-2-.09-.31.04-.21.4-.21.63,0,2.46,0,4.91,0,7.37q0,.98-.99.98c-1.53,0-3.06-.03-4.59.01-.67.02-.88-.19-.87-.86.03-4.18.01-8.36.01-12.54ZM137.94,26.31c0,1.01.02,2.03,0,3.04-.01.46.16.61.62.61.67,0,1.33-.05,1.98-.16,1.88-.33,2.91-1.61,2.92-3.59.01-1.9-.9-2.98-2.85-3.38-.66-.14-1.32-.05-1.98-.1-.51-.04-.72.13-.7.67.04.97.01,1.94.01,2.91Z"/>
        <path class="cls-1" d="M126.07,26.99c0,2.79.01,5.57,0,8.36,0,1.47-.24,2.9-.95,4.23-1.14,2.14-2.98,3.43-5.25,4.09-3.01.88-6.04.82-9.03-.11-3.17-.99-5.1-3.53-5.29-6.84-.27-4.79-.05-9.59-.12-14.39-.02-1.33.02-2.65-.01-3.98-.02-.64.16-.91.85-.89,1.59.05,3.19.04,4.78,0,.66-.02.82.23.82.85-.02,5.31-.01,10.61,0,15.92,0,.42-.01.85.06,1.25.48,2.53,3.55,3.84,5.78,2.48.79-.48,1.11-1.25,1.25-2.1.1-.65.14-1.32.14-1.98.01-5.17,0-10.35,0-15.52,0-.88,0-.88.87-.89,1.75,0,3.5.02,5.25-.01.64-.01.85.19.85.83-.03,2.9-.01,5.79-.01,8.69Z"/>
        <path class="cls-1" d="M155.41,30.85c0-4.18.01-8.36-.01-12.54,0-.62.15-.85.81-.84,5.38.02,10.77.02,16.15,0,.62,0,.81.2.8.8-.03,1.41-.03,2.83,0,4.25.01.58-.19.77-.77.76-3.08-.02-6.16,0-9.24-.02-.62,0-.81.2-.79.8.04.93.05,1.86,0,2.79-.03.65.15.89.85.87,2.48-.04,4.96,0,7.45-.03.62,0,.81.2.79.8-.03,1.41-.03,2.83,0,4.25.01.58-.18.77-.77.76-2.53-.02-5.05,0-7.58-.02-.54,0-.76.15-.74.71.03.93.04,1.86,0,2.79-.03.66.18.89.86.88,2.95-.03,5.89-.01,8.84-.01q1.08,0,1.08,1.05c0,1.5-.02,3.01.01,4.51.01.61-.16.85-.82.85-5.38-.02-10.77-.02-16.15,0-.61,0-.8-.18-.79-.79.02-4.2.01-8.41.01-12.61Z"/>
        <path class="cls-1" d="M81.62,30.83c0-4.14,0-8.27,0-12.41,0-.94,0-.94.96-.94,3.15,0,6.29-.01,9.44.01,1.4.01,2.78.23,4.11.69,3.08,1.06,4.98,3.14,5.39,6.42.38,3.03-.16,5.79-2.52,7.94-1.57,1.43-3.52,2.08-5.6,2.4-1.34.21-2.69.31-4.04.25-.63-.03-.79.2-.78.8.03,2.48,0,4.96.02,7.43,0,.64-.2.84-.84.83-1.79-.04-3.59-.04-5.38,0-.63.01-.79-.22-.78-.81.02-4.2,0-8.41,0-12.61ZM88.6,26.3v1.92q0,1.8,1.8,1.73c2.12-.08,3.34-1.07,3.64-3.12.33-2.18-.41-3.75-2.77-4.04-.68-.09-1.37-.02-2.05-.06-.51-.04-.65.19-.63.66.03.97,0,1.94,0,2.91Z"/>
        <path class="cls-1" d="M259.11,33.34c.94.24,1.37.86,1.68,1.6,1.12,2.64,2.25,5.29,3.37,7.94.33.77.29.82-.53.83-.66,0-1.33-.03-1.99.01-.53.03-.8-.19-1.01-.65-1.15-2.46-2.53-4.81-3.54-7.35-.46-1.17-1.34-1.7-2.59-1.69-1.57,0-3.15.02-4.72-.01-.56-.01-.67.21-.66.71.02,2.79.01,5.57,0,8.36,0,1.28.1,1.15-1.2,1.16-.58,0-1.15-.02-1.73,0-.47.02-.65-.18-.62-.63,0-.11,0-.22,0-.33,0-8.27,0-16.54,0-24.81q0-.98.99-.99c2.95,0,5.89,0,8.84,0,1.33,0,2.64.23,3.91.66,2.68.91,4.39,3.23,4.53,6.18.05,1.15.08,2.3-.17,3.43-.45,2.03-1.57,3.58-3.27,4.74-.38.26-.78.5-1.3.83ZM249.13,25.79c0,1.75,0,3.49,0,5.24,0,.37.04.65.52.65,1.99,0,3.99.09,5.96-.27,2.15-.39,3.88-1.36,4.53-3.64.24-.84.24-1.7.2-2.56-.14-2.9-1.47-4.48-4.31-5.04-2.14-.42-4.32-.18-6.49-.22-.43,0-.4.32-.4.61,0,1.75,0,3.49,0,5.24Z"/>
        <path class="cls-1" d="M311.03,35.44c0,1.66-.02,3.32.01,4.98.01.66-.18,1.11-.76,1.48-3.53,2.26-7.32,2.95-11.37,1.88-3.28-.87-5.41-3.08-6.65-6.18-.83-2.07-1.15-4.25-1.24-6.47-.1-2.52.09-4.99.97-7.37,1.51-4.11,4.43-6.59,8.77-7.28,3.43-.55,6.3.75,8.81,2.97,1.6,1.41,1.58,1.43-.12,2.71-.78.58-.79.59-1.44-.14-2.59-2.93-6.38-3.35-9.28-1.77-2.16,1.18-3.21,3.2-3.71,5.49-.74,3.42-.67,6.86.26,10.24.93,3.42,3.42,5.36,6.83,5.26,1.7-.05,3.33-.65,5-1.01.28-.06.32-.27.32-.51,0-2.26,0-4.51,0-6.77,0-.46-.25-.55-.63-.55-1.42,0-2.84-.02-4.25.01-.61.01-.84-.22-.8-.82.03-.53.02-1.06,0-1.59-.01-.44.17-.65.63-.65,2.68,0,5.36,0,8.04,0,.52,0,.62.28.62.72,0,1.79,0,3.58,0,5.37Z"/>
        <path class="cls-1" d="M219.5,30.91c0-3.71.39-6.51,1.74-9.11,2.01-3.87,5.89-5.67,9.94-5.43,5.16.31,8.39,3.57,9.44,8.31,1.01,4.52.93,9.02-.85,13.35-2.97,7.22-11.16,7.4-15.32,4.51-2.05-1.43-3.27-3.45-4.01-5.78-.69-2.17-.96-4.4-.94-5.84ZM237.62,30.38c.03-2.18-.23-4.38-.95-6.52-1.84-5.43-8.06-5.46-10.9-2.84-1.08,1-1.82,2.21-2.33,3.58-1.04,2.76-1.13,5.61-.72,8.49.26,1.83.81,3.56,1.8,5.15,2.48,3.98,9.42,4.39,11.77-.76,1.03-2.24,1.37-4.6,1.33-7.1Z"/>
        <path class="cls-1" d="M278.86,35.75c-1.55,0-3.1.02-4.65-.01-.51-.01-.74.17-.9.65-.78,2.4-1.6,4.78-2.37,7.18-.16.5-.39.73-.94.69-.55-.04-1.11-.02-1.66,0-.47.01-.59-.15-.43-.6.48-1.38.94-2.76,1.41-4.14,2.41-7.07,4.83-14.14,7.23-21.21.2-.6.47-.86,1.12-.82.84.06,1.68.04,2.52,0,.53-.02.79.16.97.66,2.28,6.34,4.58,12.68,6.88,19.02.77,2.12,1.54,4.24,2.3,6.36.25.68.22.72-.48.72-.69,0-1.38-.04-2.06.01-.61.05-.84-.22-1.02-.76-.76-2.36-1.58-4.69-2.33-7.05-.17-.54-.44-.72-.99-.7-1.53.03-3.06.01-4.59.01ZM278.63,20.77c-.1.16-.13.19-.14.23-1.2,3.92-2.4,7.85-3.61,11.77-.17.55.16.53.51.53,2.3,0,4.6-.01,6.9,0,.59,0,.66-.18.47-.7-1-2.81-1.97-5.63-2.95-8.44-.38-1.1-.77-2.2-1.2-3.4Z"/>
        <path class="cls-1" d="M316.5,30.87c0-4.16,0-8.31,0-12.47,0-.91,0-.92.93-.92,4.36,0,8.73,0,13.09,0,.9,0,.9,0,.91.93,0,.42-.03.84,0,1.26.07.66-.23.82-.84.82-3.23-.02-6.47,0-9.7-.02-.61,0-.8.18-.79.79.03,2.23.04,4.47,0,6.7-.01.7.24.85.88.84,2.64-.03,5.27,0,7.91-.02.64,0,.88.2.83.84-.04.48-.04.97,0,1.46.04.56-.19.72-.73.71-2.64-.02-5.27,0-7.91,0q-.96,0-.96.92c0,2.54,0,5.09,0,7.63q0,.93.96.93c3.17,0,6.34.02,9.5-.01.67,0,.93.19.86.87-.05.46-.04.93,0,1.39.05.59-.19.76-.77.75-3.63-.02-7.27-.01-10.9-.01-.82,0-1.64-.04-2.46.01-.66.04-.83-.23-.83-.84.02-4.18.01-8.36.01-12.54Z"/>
        <path class="cls-1" d="M186.69,44.25c-2.82-.06-5.47-.71-7.86-2.27-.82-.53-.82-.56-.37-1.41.27-.5.34-1.26.87-1.42.48-.14.99.4,1.49.63,1.99.92,4.04,1.56,6.27,1.47.71-.03,1.41-.14,2.08-.36,1.86-.62,2.95-2.07,3.07-4.07.13-2.17-.56-3.37-2.52-4.29-1.59-.74-3.29-1.18-4.96-1.7-.87-.27-1.72-.57-2.54-.97-1.94-.95-3.19-2.44-3.48-4.62-.33-2.5.07-4.82,2-6.65,1.35-1.29,3.02-1.92,4.84-2.14,3.62-.43,6.82.61,9.67,2.83.46.35.59.65.15,1.12-.36.39-.67.83-.96,1.27-.29.44-.54.44-.96.14-1.46-1.06-3.01-1.95-4.81-2.31-1.35-.27-2.69-.2-3.98.32-1.35.54-2.31,1.45-2.47,2.94-.17,1.65.23,3.12,1.68,4.14.96.68,2.07.97,3.21,1.21,1.7.36,3.34.9,4.85,1.75,3.45,1.95,4.09,4.53,3.74,7.67-.36,3.27-2.42,5.48-5.62,6.3-1.12.29-2.26.44-3.42.42Z"/>
        <path class="cls-1" d="M206.48,32.32c0-3.67-.02-7.34.02-11.02,0-.69-.21-.86-.87-.84-2.1.04-4.21,0-6.32.02-.59,0-.87-.15-.81-.78.04-.51.03-1.02,0-1.53-.03-.51.16-.71.69-.7,1.33.03,2.66,0,3.99,0,4.45,0,8.91.01,13.36-.01.66,0,.95.17.88.85-.04.46-.03.93,0,1.39.03.56-.18.78-.77.77-2.08-.03-4.17-.01-6.25-.01q-.93,0-.93.96c0,7.21,0,14.42,0,21.63,0,.24,0,.49-.01.73,0,.3-.16.44-.46.44-.69,0-1.37,0-2.06,0-.52,0-.45-.38-.45-.7,0-2.39,0-4.78,0-7.17,0-1.35,0-2.7,0-4.05Z"/>
        <path class="cls-1" d="M340.48,19.83c0,2.09-1.38,3.44-3.53,3.44-2.21,0-3.39-1.18-3.41-3.4-.02-2.02,1.52-3.58,3.5-3.54,2.06.04,3.44,1.45,3.44,3.5ZM338.38,22.24c-.44-.19-.56-.62-.83-.93-.25-.28-.32-.9-.78-.76-.41.12-.14.67-.21,1.02,0,.02,0,.04,0,.07-.03.24-.03.51-.38.52-.35,0-.38-.27-.38-.51,0-1.02,0-2.03,0-3.05,0-.22,0-.5.29-.53.8-.09,1.6-.11,2.29.4.47.35.47.73.07,1.16q-.75.79-.14,1.7c.07.11.16.22.22.33.19.34.38.29.61.03.53-.61.64-1.33.61-2.11-.06-1.4-.9-2.28-2.42-2.51-1.24-.19-2.52.54-2.88,1.73-.33,1.12-.24,2.2.65,3.07.77.75,2.13.9,3.28.36ZM336.57,19.23c.01.23,0,.53.36.48.32-.04.8-.17.8-.44,0-.35-.49-.43-.82-.49-.3-.06-.33.21-.34.44Z"/>
      </g>
    </g>
  </g>
</svg>