<?xml version="1.0" encoding="UTF-8"?>
<svg id="Layer_2" data-name="Layer 2" xmlns="http://www.w3.org/2000/svg" viewBox="0 0 308.52 60.78">
  <defs>
    <style>
      .cls-1 {
        fill: #fff;
      }
    </style>
  </defs>
  <g id="Layer_1-2" data-name="Layer 1">
    <g id="SzZi5y.tif">
      <g>
        <path class="cls-1" d="M21.58,0l31,11.55v13.07l-29.79-11.4c-.37-.13-.82-.22-1.21-.15V0Z"/>
        <path class="cls-1" d="M195.96,16.19c9.68-1.17,16.75,4.98,15.53,14.92-1.1,9.01-12.46,12.79-19.92,8.75-10.57-5.73-7.37-22.24,4.39-23.67ZM196.86,22.26c-4.32.75-5.83,6.27-3.93,9.87,2.69,5.1,10.97,3.96,11.61-1.89.55-5.02-2.37-8.9-7.68-7.98Z"/>
        <polygon class="cls-1" points="30.7 47.71 31 60.78 0 48.47 0 35.86 30.7 47.71"/>
        <path class="cls-1" d="M304.83,31.3h-17.02c1.13,4.28,5.54,5.51,9.32,3.7.65-.31,1.96-1.58,2.38-1.58.3,0,4.1,3.24,4.1,3.51-4.66,6.06-14.91,6.17-19.9.46-5.98-6.83-2.6-20.12,7.03-21.24,9.98-1.17,14.72,5.91,14.1,15.16ZM297.84,26.74c-.53-6.73-9.41-6.73-10.03,0h10.03Z"/>
        <path class="cls-1" d="M221.56,16.41v14.74c0,.47.93,2.51,1.36,2.9,1.67,1.49,5.01,1.09,6.19-.81.12-.19.65-1.39.65-1.47v-15.35h7.29v24.62h-7.29c-.15,0,.23-3.03-.15-3.04-3.17,4.89-11.49,4.69-14.19-.7-.14-.28-.86-2.07-.86-2.18v-18.69h6.99Z"/>
        <path class="cls-1" d="M134.03,41.03h-6.69c-.12,0,.09-2.09,0-2.43-6.01,5.33-17.12,3.16-15.72-6.45,1-6.91,10.57-6.84,15.72-5.4-.69-6.58-7.77-4.25-12.13-3.37-.14-.87-1.93-4.97-1.53-5.42,6.12-2.21,16.4-3.71,19.49,3.73.21.51.86,2.4.86,2.79v16.56ZM127.3,31.04c-.68-1.07-10.53-1.74-8.94,3.31,1.09,3.46,8.27,2.6,8.97-1.4.07-.38.13-1.68-.02-1.91Z"/>
        <path class="cls-1" d="M160.47,41.03h-6.99v-14.43c0-.54-.77-2.58-1.21-3.05-1.74-1.87-5.46-1.3-6.63.98-.1.21-.67,1.95-.67,2.06v14.43h-6.99v-24.62h6.99c.15,0-.11,2.68,0,3.04,3.85-4.64,12.28-4.92,14.73,1.22.17.42.76,2.3.76,2.58v17.78Z"/>
        <path class="cls-1" d="M10.94,21.88c4.75,1.73,9.54,3.39,14.28,5.17v12.76L.05,30.34l-.05-12.41c3.71,1.14,7.3,2.63,10.94,3.95Z"/>
        <path class="cls-1" d="M180.49,23.67c-.78.49-6.29-3.52-8.76-1.62-1.39,1.07-.21,2.12.88,2.73,3.33,1.88,10.05,2.29,10.66,7.27,1.16,9.42-8.54,10.89-15.5,8.21-.67-.26-3.87-1.86-4.13-2.27-.43-.69,2.25-4.12,2.79-4.84,2.62,1.35,6.17,3.52,9.25,2.58,1.48-.45,1.67-1.93.39-2.85-3.27-2.38-10.47-1.37-11.32-7.52-1.45-10.49,11.9-11.22,18.18-6.36-.58.55-2.21,4.54-2.43,4.68Z"/>
        <path class="cls-1" d="M81.12,23.68c-.55.4-6.37-3.48-8.77-1.63-1.39,1.07-.22,2.13.88,2.73,4.23,2.34,11.08,2.16,10.93,9.05-.2,9.74-14.7,9-19.9,3.85l2.62-4.55c2.23.79,4.1,2.4,6.54,2.68,1.58.19,4.72.14,4.02-2.18-.38-1.27-6.77-2.73-8.47-3.7-2.85-1.64-4-3.88-3.56-7.22,1.09-8.27,12.92-7.86,18.12-3.73l-2.42,4.7Z"/>
        <path class="cls-1" d="M267.68,16.19c2.95-.4,6.52-.11,9.17,1.31.54.29,2.91,2.01,3.03,2.47.16.61-3.74,4.55-4.11,4.62-.47.08-1.77-1.25-2.33-1.55-6.6-3.57-11.54,4.51-7.94,9.77,2.65,3.88,7.52,2.79,10.58.04l4.14,4.08c-1.75,2-4.01,3.67-6.66,4.27-18.63,4.21-21.79-22.86-5.87-25.01Z"/>
        <path class="cls-1" d="M97.18,16.19c4.58-.62,9.26.3,12.22,4.02-1.09.68-3.16,4.11-4.16,4.37-.6.16-2.4-1.85-3.79-2.19-9.76-2.38-10.72,14.55-.11,12.84,1.51-.24,2.93-1.71,4.23-2.39.27.05,3.56,3.65,3.71,3.93.38.74-1.99,2.46-2.63,2.86-5.65,3.54-14.26,2.1-17.85-3.67-4.71-7.58-.84-18.53,8.38-19.77Z"/>
        <path class="cls-1" d="M31,60.78l-.3-13.07c2.77-2,5.4-4.22,8.05-6.39.98-.8,2.01-2.01,2.89-2.73.27-.22,1.12-.47,1.66-.92,3.03-2.47,6-5.06,8.97-7.59.31.16.29.44.32.73.15,1.34.17,12.39-.17,12.95l-21.42,17.02Z"/>
        <path class="cls-1" d="M255.9,15.8v7.6c-2.47-.1-5.17.94-6.45,3.13-.26.44-1.15,2.76-1.15,3.1v11.4h-7.29v-24.62h7.29c.04,1.06-.06,2.14,0,3.2.02.34-.2.83.3.75,1.01-3.04,4.23-4.45,7.3-4.56Z"/>
        <path class="cls-1" d="M52.27,30.09c-2.98,2.53-5.94,5.12-8.97,7.59-.55.45-1.4.7-1.66.92l-11.85-4.56v-12.76l22.49,8.81Z"/>
        <path class="cls-1" d="M21.58,13.07c-.56.11-7.83,6.09-8.95,7-.59.48-1.58,1.02-1.68,1.81-3.64-1.33-7.23-2.81-10.94-3.95C7.06,11.82,14.25,5.74,21.58,0v13.07Z"/>
        <path class="cls-1" d="M304.75,12.83c3.51-.68,5.26,4.39,2.18,6.14-4.44,2.52-6.89-5.22-2.18-6.14ZM304.22,14.28c.59.06,1.94-.22,2.3.28.6.84-.82,2.34.29,3.06,1.07.23,1.28-3.25-.44-3.81-4.32-1.42-4.6,5.72-.01,4.58l-.92-1.98c-1.32-.35.16,1.7-1.21,1.52v-3.65ZM306.04,14.89h-1.21v.91h1.21v-.91Z"/>
      </g>
    </g>
  </g>
</svg>