<?xml version="1.0" encoding="UTF-8"?>
<svg id="Layer_2" data-name="Layer 2" xmlns="http://www.w3.org/2000/svg" viewBox="0 0 342.24 65.92">
  <defs>
    <style>
      .cls-1 {
        fill: #fff;
      }
    </style>
  </defs>
  <g id="Layer_1-2" data-name="Layer 1">
    <g id="FQIj3q">
      <g>
        <path class="cls-1" d="M30.72,65.92c-.88-.11-1.77-.21-2.65-.34-5.97-.93-11.31-3.28-15.97-7.14-6.14-5.08-9.97-11.56-11.51-19.37-.46-2.31-.66-4.65-.57-7,.29-7.56,2.78-14.3,7.63-20.13C11.67,7.11,16.67,3.69,22.62,1.68c2.67-.9,5.43-1.42,8.25-1.61,5.2-.35,10.2.51,14.99,2.52,3.33,1.39,6.34,3.32,9.05,5.71,3.23,2.87,5.82,6.23,7.74,10.09,1.7,3.43,2.76,7.05,3.19,10.85.75,6.74-.47,13.1-3.6,19.1-1.45,2.77-3.29,5.26-5.47,7.51-2.69,2.79-5.77,5.04-9.25,6.74-3.46,1.69-7.12,2.76-10.96,3.16-.39.04-.8,0-1.19.15h-4.64ZM62.43,33c.13-15.93-12.9-29.28-29.11-29.41-16.41-.13-29.64,13.01-29.7,29.26-.06,16.67,13.44,29.31,28.99,29.52,16.66.23,29.96-13.39,29.83-29.37Z"/>
        <path class="cls-1" d="M342.24,48.7c-2.11,0-4.23,0-6.34.02-.33,0-.47-.21-.63-.42-1.73-2.4-3.45-4.81-5.18-7.21-1.01-1.4-2.01-2.8-3.01-4.2-.3-.42-.3-.42-.6,0-2.48,3.46-4.96,6.91-7.43,10.37-.27.37-.55.74-.8,1.13-.16.25-.36.35-.66.35-1.92,0-3.84,0-5.76,0-.14,0-.33.06-.4-.1-.07-.15.09-.27.18-.38,2.93-4.01,5.87-8.01,8.8-12.02.81-1.1,1.61-2.21,2.43-3.31.19-.25.2-.44,0-.71-3.49-4.8-6.96-9.61-10.44-14.41-.03-.04-.06-.07-.08-.11-.07-.12-.24-.23-.17-.39.07-.16.26-.09.4-.09,1.9,0,3.81,0,5.71,0,.34,0,.54.12.73.39,2.48,3.54,4.97,7.08,7.46,10.62.33.47.33.47.65.02,2.48-3.54,4.96-7.09,7.44-10.64.19-.27.39-.4.73-.39,1.92.01,3.84,0,5.76,0,.14,0,.33-.07.41.09.07.15-.09.27-.17.38-3.22,4.46-6.45,8.92-9.67,13.37-.27.37-.52.76-.81,1.12-.19.24-.19.42,0,.67,2.44,3.34,4.86,6.68,7.29,10.03,1.28,1.77,2.57,3.54,3.86,5.3.1.13.21.24.32.36v.18Z"/>
        <path class="cls-1" d="M238.38,39.32v-.67c0-6.9,0-13.79,0-20.69q0-.76.74-.77c1.41,0,2.83,0,4.24,0,.66,0,.66,0,.66.68,0,9.33,0,18.67,0,28,0,.79-.01,1.58,0,2.36,0,.37-.14.49-.5.49-1.5-.01-3.01-.01-4.51,0-.32,0-.52-.11-.71-.36-2.64-3.7-5.29-7.4-7.94-11.1-2.61-3.64-5.21-7.27-7.82-10.91-.07-.09-.11-.21-.25-.24-.09.17-.04.35-.04.52,0,7.12,0,14.24,0,21.36q0,.73-.74.73c-1.46,0-2.92-.01-4.37,0-.42,0-.54-.15-.54-.55,0-10.15,0-20.3,0-30.45,0-.4.13-.55.54-.54,1.56.02,3.12.02,4.69,0,.4,0,.65.13.89.45,2.68,3.73,5.37,7.46,8.06,11.18,2.43,3.36,4.85,6.73,7.28,10.09.08.11.16.2.33.41Z"/>
        <path class="cls-1" d="M272.6,39.17c.13-.24.08-.43.08-.62,0-6.87,0-13.73,0-20.6q0-.75.76-.75c1.41,0,2.83,0,4.24,0,.64,0,.64,0,.64.65,0,7.39,0,14.77,0,22.16,0,2.71,0,5.41,0,8.12,0,.59-.01.6-.6.6-1.43,0-2.86-.01-4.29,0-.39,0-.63-.14-.85-.44-2.73-3.82-5.47-7.64-8.21-11.46-2.46-3.43-4.92-6.86-7.38-10.29-.09-.13-.2-.25-.32-.41-.12.23-.07.42-.07.6,0,7.05,0,14.09,0,21.14,0,.16,0,.33,0,.49,0,.23-.1.36-.35.36-1.65,0-3.3,0-4.95,0-.25,0-.35-.12-.34-.36,0-.13,0-.27,0-.4,0-10,0-20.01,0-30.01,0-.13,0-.27,0-.4,0-.24.1-.35.35-.35,1.71,0,3.42,0,5.13,0,.25,0,.37.14.5.32,2.59,3.59,5.19,7.18,7.78,10.78,2.53,3.51,5.06,7.02,7.6,10.52.08.11.16.21.28.36Z"/>
        <path class="cls-1" d="M111.86,32.95c0-5.04,0-10.08,0-15.12,0-.63,0-.64.65-.63,4.02,0,8.04-.08,12.05.03,4.53.13,8.53,1.67,11.66,5.07,2,2.17,3.17,4.76,3.65,7.66.51,3.06.33,6.09-.8,8.99-1.92,4.98-5.63,7.93-10.74,9.23-1.51.38-3.04.54-4.59.55-3.74,0-7.47,0-11.21,0q-.67,0-.67-.66c0-5.04,0-10.08,0-15.12ZM117.51,32.97c0,3.42,0,6.84,0,10.25,0,.43.13.56.56.56,1.71-.02,3.42-.01,5.13,0,.82,0,1.64-.05,2.44-.18,3.52-.59,6.13-2.41,7.66-5.67,1.01-2.15,1.24-4.41.94-6.75-.23-1.78-.79-3.45-1.85-4.92-2.04-2.84-4.93-4-8.32-4.11-1.98-.06-3.96-.01-5.94-.01-.62,0-.63,0-.63.61,0,3.4,0,6.81,0,10.21Z"/>
        <path class="cls-1" d="M285.28,32.94c0-5.01,0-10.02,0-15.03q0-.71.71-.71c6.76,0,13.51,0,20.27,0q.73,0,.73.74c0,1.2,0,2.41,0,3.61,0,.58-.02.6-.61.6-4.93,0-9.85,0-14.78,0q-.68,0-.68.68c0,2.24,0,4.49,0,6.73,0,.58,0,.59.6.59,4.81,0,9.61,0,14.42,0q.69,0,.69.69c0,1.2,0,2.41,0,3.61q0,.7-.72.7c-4.76,0-9.52,0-14.28,0q-.7,0-.7.71c0,2.45,0,4.91,0,7.36,0,.43.12.56.55.56,4.94-.01,9.88,0,14.82,0q.7,0,.7.68c0,1.25,0,2.5,0,3.75,0,.38-.11.53-.51.53-6.9,0-13.81-.01-20.71,0-.51,0-.49-.29-.49-.63,0-5.05,0-10.11,0-15.16Z"/>
        <path class="cls-1" d="M169.85,49.26c-2.94.04-5.58-.43-8.1-1.54-1.64-.72-3.09-1.71-4.39-2.94-.23-.22-.27-.4-.08-.68.82-1.26,1.63-2.52,2.43-3.8.18-.28.28-.37.58-.08,3.34,3.22,7.3,4.58,11.92,3.81,1.15-.19,2.17-.69,3-1.55,1.21-1.24,1.56-3.77-.56-5.08-1.21-.75-2.54-1.14-3.89-1.53-2.02-.57-4.08-.98-6.06-1.68-1.51-.53-2.95-1.19-4.19-2.22-1.71-1.42-2.56-3.26-2.65-5.44-.16-3.94,1.95-7.15,5.67-8.7,2.19-.92,4.48-1.22,6.85-1.1,2.1.11,4.13.48,6.08,1.28,1.48.6,2.84,1.43,4.07,2.46.26.22.29.4.11.68-.8,1.25-1.59,2.51-2.37,3.78-.19.31-.34.33-.61.08-2.19-2.02-4.8-3.01-7.74-3.25-1.31-.11-2.59-.03-3.82.45-1.33.52-2.23,1.43-2.45,2.92-.15,1.02.22,1.81,1,2.43.84.67,1.83,1.05,2.85,1.34,1.86.52,3.74.99,5.6,1.52,2.05.59,4.06,1.3,5.77,2.63,1.97,1.53,2.95,3.55,3.04,6.04.08,2.28-.43,4.37-1.85,6.19-1.36,1.74-3.19,2.78-5.28,3.38-1.67.48-3.38.68-4.92.63Z"/>
        <path class="cls-1" d="M195.36,42.06c0-1.98,0-3.95,0-5.93,0-.34-.09-.63-.28-.91-3.2-4.8-6.39-9.6-9.59-14.4-.71-1.06-1.41-2.13-2.11-3.2-.07-.11-.21-.22-.13-.35.07-.11.22-.06.33-.06,1.86,0,3.72,0,5.58,0,.37,0,.52.2.69.46,2.41,3.75,4.82,7.5,7.24,11.25.27.42.55.85.82,1.27.27.42.28.42.54.02,1.39-2.18,2.78-4.36,4.17-6.54,1.29-2.03,2.59-4.06,3.87-6.1.17-.28.39-.36.7-.36,1.8.01,3.6,0,5.4,0,.15,0,.36-.09.44.1.06.15-.1.27-.18.39-2.53,3.83-5.07,7.66-7.61,11.49-1.33,2.01-2.65,4.02-3.99,6.02-.19.29-.27.57-.27.92,0,3.98,0,7.96,0,11.95,0,.66,0,.66-.67.67-1.47,0-2.95-.01-4.42,0-.43,0-.57-.14-.56-.57.02-2.04,0-4.07,0-6.11Z"/>
        <path class="cls-1" d="M98.33,35.42c0,4.21,0,8.41,0,12.62q0,.68-.66.68c-1.44,0-2.89,0-4.33,0-.66,0-.66,0-.66-.68,0-4.09,0-8.17,0-12.26,0-4.33,0-8.65,0-12.98q0-.66-.67-.66c-2.74,0-5.48,0-8.21,0-.6,0-.6,0-.61-.59,0-1.28.01-2.56,0-3.83,0-.42.15-.53.54-.53,7.87,0,15.74,0,23.61,0,.42,0,.54.15.53.55-.02,1.29-.02,2.59,0,3.88,0,.41-.14.54-.55.54-2.8-.01-5.59,0-8.39,0-.61,0-.61,0-.61.62,0,4.22,0,8.44,0,12.66Z"/>
        <path class="cls-1" d="M17.45,16.38c-.23.38-.44.73-.65,1.08-1.39,2.37-2.22,4.91-2.43,7.66-.38,5.15,1.11,9.69,4.51,13.57,3.04,3.46,6.89,5.45,11.45,6.05,1.69.22,3.38.12,5.07-.07,2.03-.23,3.68.53,4.91,2.14,2.52,3.28.57,8.09-3.52,8.74-3.78.6-7.5.33-11.13-.92-3.81-1.3-7.05-3.45-9.73-6.46-3.16-3.55-5.07-7.68-5.62-12.38-.77-6.56.98-12.41,5.19-17.51.46-.56.97-1.09,1.46-1.62.11-.12.22-.28.49-.28Z"/>
        <path class="cls-1" d="M30.22,41.42c-3.86-.52-9.1-3.76-11.33-9.34-2.51-6.27-.81-13.31,4.31-17.72,4.8-4.14,11.04-4.33,14.33-3.1-6.67,1.9-10.86,6.24-12.4,12.91-1.52,6.61.29,12.38,5.09,17.25Z"/>
        <path class="cls-1" d="M29.67,34.55c-1.82-2.59-2.66-7.53-.68-11.82,2.52-5.46,7.98-8.16,13.12-7.8,6.11.42,9.96,4.66,11.07,7.46-4.98-3.15-10.11-3.38-15.23-.7-5.11,2.68-7.84,7.04-8.27,12.86Z"/>
      </g>
    </g>
  </g>
</svg>