<?xml version="1.0" encoding="UTF-8"?>
<svg id="Layer_2" data-name="Layer 2" xmlns="http://www.w3.org/2000/svg" xmlns:xlink="http://www.w3.org/1999/xlink" viewBox="0 0 539.98 55.78">
  <defs>
    <style>
      .cls-1 {
        clip-path: url(#clippath-1);
      }

      .cls-2 {
        fill: #fff;
      }

      .cls-3 {
        clip-path: url(#clippath);
      }
    </style>
    <clipPath id="clippath">
      <path class="cls-2" d="M398.83,46.41s.01.02.02.03c0,0-.01-.02-.02-.03Z"/>
    </clipPath>
    <clipPath id="clippath-1">
      <path class="cls-2" d="M353.87,54h11.07c2.14-9.34,9.64-16.24,18.57-16.24.26,0,.52,0,.78.02.09,0,.17.01.25.02.18.01.35.02.52.04.1,0,.2.02.3.03.16.02.32.04.47.06.1.01.21.03.31.05.15.02.3.05.46.08.1.02.2.04.31.06.15.03.3.07.46.1.1.02.2.04.29.07.16.04.33.09.49.13.08.02.16.04.24.07.24.07.47.15.71.23.07.02.13.05.19.07.17.06.34.12.51.19.1.04.19.08.29.12.14.06.27.11.41.17.1.05.21.09.31.14.12.06.25.12.37.18.11.05.21.11.32.16.12.06.24.13.35.19.1.06.21.11.31.18.11.07.23.13.34.2.1.06.21.12.31.19.11.07.23.15.34.22.1.06.2.13.29.19.2.13.39.27.58.41.11.08.21.16.31.24.09.07.19.15.28.22.11.09.21.18.32.27.09.07.17.15.26.22.11.09.21.19.32.28.08.07.16.15.24.23.11.1.21.2.31.3.08.08.15.15.23.23.1.11.21.21.31.32.07.07.14.15.2.22.11.12.21.23.32.35.04.05.09.1.13.15.39.45.76.93,1.12,1.42.05.07.09.13.14.19.1.14.19.28.29.42,0,0,0,0,0,.01,0,0,.01.02.02.03,0,0,0,0,0,0-4.49-6.97-12.14-11.57-20.83-11.57-11.55,0-21.26,8.11-24.15,19.13"/>
    </clipPath>
  </defs>
  <g id="Layer_1-2" data-name="Layer 1">
    <g>
      <g>
        <path class="cls-2" d="M414.51,54l-29.68-51.32c-.48-.81-1.37-1.35-2.39-1.35s-1.92.54-2.4,1.35l-7.38,12.92s12.49,7.35,22.16,22.72c-4.48-4.38-10.51-7.07-17.16-7.07-16.34,0-27.31,22.75-27.31,22.75h14.58c2.14-9.34,9.64-16.24,18.57-16.24.26,0,.52,0,.78.02.09,0,.17.01.25.02.18.01.35.02.52.04.1,0,.2.02.3.03.16.02.32.04.47.06.1.01.21.03.31.05.15.02.3.05.46.08.1.02.2.04.31.06.15.03.3.07.46.1.1.02.2.04.29.07.16.04.33.09.49.13.08.02.16.04.24.07.24.07.47.15.71.23.07.02.13.05.19.07.17.06.34.12.51.19.1.04.19.08.29.12.14.06.27.11.41.17.1.05.21.09.31.14.12.06.25.12.37.18.11.05.21.11.32.16.12.06.24.13.35.19.1.06.21.11.31.18.11.07.23.13.34.2.1.06.21.12.31.19.11.07.23.15.34.22.1.06.2.13.29.19.2.13.39.27.58.41.11.08.21.16.31.24.09.07.19.15.28.22.11.09.21.18.32.27.09.07.17.15.26.22.11.09.21.19.32.28.08.07.16.15.24.23.11.1.21.2.31.3.08.08.15.15.23.23.1.11.21.21.31.32.07.07.14.15.2.22.11.12.21.23.32.35.04.05.09.1.13.15.39.45.76.93,1.12,1.42.05.07.09.13.14.19.1.14.19.28.29.42.05.07.1.15.15.23.09.14.18.28.27.42.05.08.1.16.14.24.09.14.17.29.26.44.04.08.09.15.13.23.08.15.17.31.25.47.03.07.07.13.1.2.3.6.58,1.21.84,1.84,0,.02.02.04.02.06h0c.41,1.04.76,2.11,1.03,3.22.03.1.05.19.07.27h12.43Z"/>
        <g>
          <path class="cls-2" d="M398.83,46.41s.01.02.02.03c0,0-.01-.02-.02-.03Z"/>
          <g class="cls-3">
            <rect class="cls-2" x="398.83" y="46.41" width=".02" height=".03"/>
          </g>
        </g>
        <g>
          <path class="cls-2" d="M353.87,54h11.07c2.14-9.34,9.64-16.24,18.57-16.24.26,0,.52,0,.78.02.09,0,.17.01.25.02.18.01.35.02.52.04.1,0,.2.02.3.03.16.02.32.04.47.06.1.01.21.03.31.05.15.02.3.05.46.08.1.02.2.04.31.06.15.03.3.07.46.1.1.02.2.04.29.07.16.04.33.09.49.13.08.02.16.04.24.07.24.07.47.15.71.23.07.02.13.05.19.07.17.06.34.12.51.19.1.04.19.08.29.12.14.06.27.11.41.17.1.05.21.09.31.14.12.06.25.12.37.18.11.05.21.11.32.16.12.06.24.13.35.19.1.06.21.11.31.18.11.07.23.13.34.2.1.06.21.12.31.19.11.07.23.15.34.22.1.06.2.13.29.19.2.13.39.27.58.41.11.08.21.16.31.24.09.07.19.15.28.22.11.09.21.18.32.27.09.07.17.15.26.22.11.09.21.19.32.28.08.07.16.15.24.23.11.1.21.2.31.3.08.08.15.15.23.23.1.11.21.21.31.32.07.07.14.15.2.22.11.12.21.23.32.35.04.05.09.1.13.15.39.45.76.93,1.12,1.42.05.07.09.13.14.19.1.14.19.28.29.42,0,0,0,0,0,.01,0,0,.01.02.02.03,0,0,0,0,0,0-4.49-6.97-12.14-11.57-20.83-11.57-11.55,0-21.26,8.11-24.15,19.13"/>
          <g class="cls-1">
            <rect class="cls-2" x="353.87" y="34.87" width="44.98" height="19.13"/>
          </g>
        </g>
        <path class="cls-2" d="M427.77,54c-8.09,0-12.73-5.55-12.73-13.8s4.53-14.41,12.62-14.41c2.14,0,4.28.41,5.35.82v-13.08h3v38.59c-1.48.92-4.94,1.88-8.25,1.88M433.02,29.06c-.91-.35-3.31-.76-5.19-.76-6.41,0-9.77,5.04-9.77,11.86s3.41,11.35,9.67,11.35c1.93,0,4.43-.56,5.29-1.07v-21.38Z"/>
        <path class="cls-2" d="M445.85,19.95c-1.17,0-2.14-.92-2.14-2.09s.97-2.09,2.14-2.09,2.09.92,2.09,2.09-.91,2.09-2.09,2.09M444.32,26.06h3v27.44h-3v-27.44Z"/>
        <path class="cls-2" d="M461.84,54c-2.75,0-5.91-.76-7.84-1.88l1.17-2.34c1.53.92,4.38,1.73,6.62,1.73,4.02,0,6.72-1.99,6.72-5.09,0-3.31-2.65-4.53-6.21-5.86-4.07-1.53-7.58-3.21-7.58-7.94,0-3.97,3.16-7.08,8.7-7.08,2.9,0,5.5.81,7.23,1.88l-1.17,2.24c-1.27-.87-3.61-1.68-5.85-1.68-3.72,0-5.86,2.09-5.86,4.63,0,3.31,2.49,4.38,5.86,5.65,4.28,1.63,7.99,3.21,7.99,8.2,0,4.53-3.72,7.53-9.77,7.53"/>
        <path class="cls-2" d="M487.14,53.75c-4.07,0-6.97-2.24-6.97-6.87v-18.53h-4.27v-2.29h4.27v-6.82l2.9-1.12v7.94h6.21v2.29h-6.21v18.43c0,3.05,2.09,4.33,4.53,4.33.61,0,1.27-.1,1.68-.25v2.6c-.46.2-1.17.31-2.14.31"/>
        <path class="cls-2" d="M515.95,38.53l-19.24,2.85c.41,6.72,4.18,10.13,9.98,10.13,2.75,0,5.7-.71,7.43-1.73l1.02,2.34c-1.83,1.07-5.09,1.88-8.55,1.88-7.84,0-12.78-4.94-12.78-14.25,0-8.45,4.43-14.2,11.61-14.2,6.36,0,10.59,4.12,10.59,11.35,0,.51,0,1.02-.05,1.63M505.41,27.94c-5.39,0-8.71,4.43-8.86,11.15l16.54-2.39c-.05-5.96-3.1-8.76-7.69-8.76"/>
        <path class="cls-2" d="M533.47,54c-5.55,0-11.56-4.02-11.56-14.25s6.01-14.2,11.56-14.2c2.54,0,4.94.81,6.52,1.88l-1.07,2.24c-1.32-.92-3.31-1.58-5.24-1.58-4.18,0-8.7,3.05-8.7,11.66s4.58,11.66,8.7,11.66c1.93,0,3.92-.66,5.24-1.58l1.07,2.29c-1.68,1.12-3.97,1.88-6.52,1.88"/>
      </g>
      <path class="cls-2" d="M301.97,41.85c-.35,0-.65-.11-.88-.35-.23-.23-.35-.52-.35-.88v-11.05h-10.89c-.35,0-.65-.11-.88-.35-.23-.23-.35-.52-.35-.88v-1.7c0-.35.11-.65.35-.88s.52-.35.88-.35h10.89v-10.73c0-.35.11-.65.35-.88.23-.23.52-.35.88-.35h1.86c.35,0,.65.12.88.35.23.23.35.52.35.88v10.73h10.95c.35,0,.65.12.88.35.23.23.35.52.35.88v1.7c0,.35-.12.65-.35.88s-.52.35-.88.35h-10.95v11.05c0,.35-.12.65-.35.88s-.52.35-.88.35h-1.86Z"/>
      <g id="_2EFV4u" data-name="2EFV4u">
        <g>
          <path class="cls-2" d="M255.04,17.42c-.28.83-.75,1.47-1.62,1.75-1.17.38-2.44-.1-2.98-1.14-.51-.99-.24-2.23.64-2.91,1.36-1.05,3.34-.44,3.88,1.2.02.06.06.11.08.17v.94ZM252.61,15.07c-1.1,0-1.89.79-1.89,1.89,0,1.09.81,1.89,1.9,1.89,1.11,0,1.9-.8,1.9-1.89,0-1.1-.8-1.88-1.9-1.88Z"/>
          <path class="cls-2" d="M179.1,27.07c0-7.14,0-14.27,0-21.41,0-.86.22-1.08,1.09-1.08,1.85,0,3.7,0,5.55,0,.92,0,1.14.22,1.14,1.12,0,4.41,0,8.83,0,13.24,0,.1,0,.21,0,.31,0,.12,0,.24.14.29.14.05.22-.04.3-.13.25-.25.48-.51.74-.75,1.71-1.55,3.75-2.31,6.03-2.43,2.38-.12,4.71.16,6.91,1.14,2.7,1.21,4.62,3.23,6,5.82,1.01,1.9,1.5,3.96,1.77,6.07.4,3.09.36,6.18-.29,9.24-.58,2.69-1.57,5.21-3.41,7.31-2.04,2.33-4.62,3.67-7.68,4.1-1.66.23-3.33.27-4.97-.1-2-.46-3.67-1.5-5.05-3.01-.1-.11-.17-.31-.36-.23-.18.08-.12.27-.12.42,0,.53,0,1.07,0,1.6,0,.71-.29.99-1,.99-1.93,0-3.86,0-5.79,0-.71,0-.99-.28-.99-1,0-7.18,0-14.35,0-21.53ZM187,33.06c.01,1.83.12,3.59.61,5.29.43,1.53,1.11,2.94,2.35,3.98,1.88,1.58,4.04,1.66,6.27.92,2.08-.69,3.27-2.28,3.98-4.27.76-2.14.92-4.37.85-6.62-.05-1.7-.28-3.37-.92-4.96-1.02-2.56-2.64-4.41-5.58-4.7-1.83-.18-3.51.19-4.86,1.52-.87.86-1.45,1.9-1.85,3.04-.67,1.91-.82,3.89-.83,5.81Z"/>
          <path class="cls-2" d="M58.06,32.58c-.02,1.23-.43,2.32-1.25,3.24-5.46,6.11-10.91,12.22-16.37,18.32-1.24,1.38-2.82,1.88-4.64,1.53-6.91-1.33-13.82-2.69-20.73-4.03-1.16-.23-2.33-.43-3.48-.69-1.76-.4-2.98-1.47-3.57-3.17-1.51-4.41-2.99-8.84-4.48-13.26-1.08-3.21-2.18-6.43-3.25-9.65-.61-1.85-.26-3.52,1.03-4.98C6.74,13.82,12.17,7.75,17.59,1.68c1.26-1.41,2.85-1.93,4.7-1.57,7.07,1.36,14.13,2.75,21.19,4.12.96.19,1.92.36,2.87.57,1.87.41,3.13,1.53,3.75,3.34,1.46,4.3,2.9,8.6,4.35,12.9,1.11,3.29,2.21,6.58,3.32,9.86.19.55.29,1.11.29,1.68ZM46.49,27.92c0-2.94,0-5.89,0-8.83,0-.86-.36-1.5-1.1-1.93-5.09-2.95-10.19-5.89-15.28-8.83-.72-.41-1.44-.41-2.15,0-5.09,2.94-10.19,5.89-15.28,8.83-.73.42-1.09,1.06-1.09,1.9,0,5.87,0,11.74,0,17.62,0,.86.36,1.5,1.1,1.93,5.08,2.94,10.16,5.88,15.24,8.82.74.43,1.48.42,2.22,0,5.06-2.93,10.12-5.85,15.18-8.78.78-.45,1.16-1.11,1.16-2.02-.01-2.9,0-5.81,0-8.71ZM11.65,39.99s-.03.04-.05.06c.07.12.14.24.21.35,1.61,2.54,3.23,5.07,4.83,7.62.64,1.03,1.53,1.52,2.74,1.45,1.7-.1,3.41-.18,5.11-.26.89-.05,1.78-.09,2.67-.14,0-.03.02-.06.03-.09-5.18-3-10.36-5.99-15.54-8.99ZM30.89,6.72s-.01.05-.02.08c5.19,3,10.37,6,15.56,8.99.02-.11,0-.16-.03-.2-1.7-2.68-3.4-5.37-5.11-8.04-.56-.87-1.38-1.28-2.42-1.23-1.68.08-3.36.16-5.03.25-.98.05-1.96.1-2.94.16ZM3.35,28.47c.14-.55.29-1.07.55-1.56,2.82-5.35,5.64-10.7,8.46-16.05.27-.51.53-1.02.8-1.54-.59.55-1.12,1.13-1.65,1.72-2.99,3.35-5.99,6.7-8.98,10.05-.69.78-1,1.71-.75,2.72.4,1.59,1.02,3.11,1.56,4.65ZM44.91,46.45s.06.05.09.07c.06-.08.11-.16.18-.24,3.46-3.88,6.92-7.75,10.38-11.63.5-.56.77-1.23.79-1.99,0-.22.01-.45-.05-.66-.45-1.6-1.04-3.15-1.59-4.84-.14.64-.25,1.15-.5,1.63-2.68,5.08-5.36,10.17-8.04,15.25-.42.8-.84,1.6-1.26,2.4ZM48.22,18.47v17.97c.07-.11.11-.15.13-.19,1.44-2.72,2.87-5.45,4.31-8.17.5-.96.46-1.9-.13-2.81-.7-1.1-1.39-2.2-2.09-3.29-.72-1.14-1.45-2.28-2.22-3.5ZM9.86,37.23v-17.88c-.06.07-.09.09-.1.12-1.47,2.79-2.96,5.58-4.41,8.39-.46.89-.35,1.79.18,2.63,1.34,2.12,2.69,4.24,4.04,6.36.08.13.13.28.3.37ZM15.93,50.07c-3.73-5.87-7.48-11.77-11.22-17.66-.03.09-.02.15,0,.21,1.65,4.89,3.28,9.78,4.95,14.67.37,1.07,1.17,1.75,2.28,2,1.35.3,2.7.53,3.99.78ZM53.32,23.31c.08-.22-.03-.35-.07-.49-.56-1.68-1.13-3.35-1.69-5.02-1.02-3.02-2.03-6.04-3.05-9.06-.42-1.25-1.27-2.03-2.58-2.29-.64-.12-1.28-.25-1.92-.37-.65-.13-1.3-.25-1.87-.36,3.71,5.84,7.43,11.7,11.17,17.6ZM11.8,15.58s.05.05.07.07c4.98-2.88,9.95-5.76,14.93-8.63-.01-.03-.02-.07-.04-.1-.56.03-1.11.06-1.67.09-2.42.12-4.84.25-7.25.35-1.22.05-2.08.61-2.63,1.71-.6,1.2-1.24,2.37-1.87,3.56-.52.99-1.04,1.97-1.56,2.96ZM46.28,40.17s-.04-.04-.06-.06c-4.99,2.89-9.98,5.77-14.97,8.66.13.08.23.08.33.08,2.89-.15,5.77-.31,8.66-.44,1.26-.05,2.08-.65,2.64-1.75.67-1.34,1.39-2.65,2.08-3.97.44-.84.88-1.67,1.32-2.51ZM21.49,51.06s0,.06,0,.09c.25.05.51.1.76.15,4.66.91,9.33,1.82,13.99,2.72,1.14.22,2.12-.14,2.9-.99.91-.98,1.79-2,2.68-3,.05-.06.09-.13.08-.11-3.36.4-6.77.41-10.17.62-3.41.21-6.83.35-10.24.52ZM16.17,5.85c3.38-.37,6.8-.41,10.21-.6,3.39-.2,6.79-.35,10.19-.53-4.87-1.04-9.73-1.99-14.59-2.93-1.25-.24-2.29.12-3.13,1.06-.6.67-1.2,1.34-1.8,2.01-.31.35-.62.69-.88.99Z"/>
          <path class="cls-2" d="M176.02,37.62c0,3.67,0,7.34,0,11.02,0,.66-.28.95-.94.96-1.96,0-3.91,0-5.87,0-.65,0-.93-.28-.93-.92,0-.59,0-1.17,0-1.76,0-.14,0-.31-.16-.37-.15-.05-.24.07-.33.16-2.08,2.13-4.7,3.05-7.6,3.3-2.37.21-4.71.08-6.98-.71-1.65-.57-3.13-1.42-4.3-2.74-1.29-1.45-1.87-3.19-2.01-5.1-.18-2.35.14-4.6,1.47-6.62,1.34-2.03,3.27-3.28,5.53-4.06,2.14-.75,4.36-.99,6.61-1.01,2.4-.02,4.8,0,7.2,0,.52,0,.58-.06.58-.58,0-.83.03-1.67-.12-2.49-.35-1.88-1.44-3.13-3.26-3.66-2.07-.61-4.15-.56-6.18.16-1.34.48-2.33,1.36-2.71,2.79-.13.47-.37.63-.87.57-1.68-.19-3.36-.39-5.04-.59-.48-.06-.96-.11-1.43-.18-.73-.11-.86-.31-.73-1.01.5-2.7,2.11-4.62,4.34-6.07,2.12-1.38,4.47-2.08,6.96-2.35,2.79-.29,5.57-.21,8.29.6,2.7.81,5.05,2.15,6.73,4.48,1.2,1.66,1.78,3.51,1.79,5.55,0,3.54,0,7.08,0,10.63ZM168.03,36.86c0-.46,0-.91,0-1.37,0-.49-.08-.57-.56-.57-1.81,0-3.62,0-5.43,0-1.33,0-2.65.13-3.93.55-1.13.37-2.16.91-2.89,1.89-1.71,2.32-.68,5.5,2.17,6.38,3.07.95,5.98.47,8.58-1.46,1.07-.8,1.78-1.86,1.99-3.2.11-.73.08-1.48.08-2.22Z"/>
          <path class="cls-2" d="M101.29,35.84c-3.4,0-6.8,0-10.21,0-.59,0-.62.02-.56.63.18,1.95.76,3.74,2.19,5.17.68.69,1.5,1.17,2.41,1.48,1.82.62,3.69.78,5.59.46,2.22-.38,3.98-1.54,5.34-3.32.49-.64.8-.68,1.42-.18,1.3,1.03,2.6,2.05,3.89,3.08.53.42.57.71.16,1.25-1.88,2.48-4.38,4.05-7.33,4.93-3.82,1.14-7.67,1.19-11.47,0-4.82-1.52-7.79-4.87-9.15-9.68-.54-1.91-.73-3.88-.81-5.86-.09-2.1-.07-4.19.34-6.26,1.33-6.62,5.94-10.1,11.16-11.03,2.91-.52,5.82-.39,8.67.41,4.3,1.21,7.05,4.06,8.47,8.24.74,2.18,1.06,4.44,1.21,6.74.07,1.07-.04,2.13-.04,3.2,0,.46-.19.66-.65.73-.18.03-.36.03-.54.03-3.36,0-6.73,0-10.09,0ZM97.59,30.31c.83,0,1.67,0,2.5,0,1.37,0,2.74,0,4.1,0,.49,0,.56-.1.51-.59-.05-.6-.13-1.19-.26-1.77-.42-1.82-1.3-3.34-2.95-4.32-1.43-.85-3-1.08-4.63-.97-2.43.16-4.29,1.26-5.39,3.49-.6,1.22-.82,2.54-.95,3.88-.01.15.06.23.19.25.14.02.28.03.43.03,2.15,0,4.3,0,6.45,0Z"/>
          <path class="cls-2" d="M241.38,35.78c-3.43,0-6.86,0-10.29,0-.54,0-.59.05-.55.58.09,1.2.38,2.36.91,3.45.77,1.58,1.99,2.66,3.64,3.24,1.88.67,3.82.82,5.78.46,2.16-.4,3.87-1.55,5.19-3.28.5-.65.81-.69,1.45-.18,1.28,1.01,2.55,2.02,3.83,3.03.61.48.63.74.15,1.36-1.81,2.35-4.19,3.88-6.99,4.77-3.81,1.2-7.68,1.3-11.51.16-4.95-1.47-8.01-4.85-9.4-9.78-.55-1.94-.73-3.93-.81-5.94-.08-2.16-.05-4.32.4-6.45,1.25-5.84,5.49-9.87,11.39-10.79,2.88-.45,5.75-.32,8.55.51,4.21,1.24,6.91,4.06,8.29,8.17.98,2.91,1.36,5.92,1.21,9-.01.29-.02.57-.02.86-.01.61-.24.84-.86.84-1.55,0-3.1,0-4.65,0-1.9,0-3.81,0-5.71,0ZM237.64,30.25c2.21,0,4.43,0,6.64,0,.45,0,.53-.09.47-.54-.06-.48-.1-.96-.19-1.43-.38-2.03-1.29-3.73-3.17-4.77-1.51-.84-3.15-1.03-4.84-.85-2.25.24-3.94,1.32-4.98,3.35-.59,1.16-.86,2.42-.96,3.71-.04.52-.05.52.46.52,2.19,0,4.38,0,6.57,0Z"/>
          <path class="cls-2" d="M115.56,33.15c0-5.11,0-10.21,0-15.32,0-.88.23-1.11,1.12-1.11,1.89,0,3.78,0,5.67,0,.71,0,.97.26.98.96,0,.59,0,1.17,0,1.76,0,.14,0,.32.17.36.14.04.18-.13.25-.21,1.41-1.73,3.26-2.73,5.44-3.12,2.8-.5,5.57-.39,8.21.73,3.64,1.54,5.72,4.34,6.33,8.24.13.86.16,1.73.16,2.61,0,6.82,0,13.65,0,20.47,0,.83-.24,1.07-1.06,1.07-1.88,0-3.75,0-5.63,0-.81,0-1.06-.24-1.06-1.04,0-6.43,0-12.87,0-19.3,0-1.5-.33-2.92-1.24-4.16-1.01-1.38-2.37-2.16-4.06-2.38-1.37-.18-2.72-.08-3.98.52-2.16,1.03-3.25,2.81-3.47,5.14-.05.53-.05,1.07-.05,1.6,0,6.19,0,12.37,0,18.56,0,.83-.23,1.06-1.07,1.06-1.88,0-3.75,0-5.63,0-.79,0-1.06-.26-1.06-1.05,0-5.13,0-10.26,0-15.39Z"/>
          <path class="cls-2" d="M74.2,31.37c0,2.33,0,4.66,0,6.99,0,.6.03,1.2.15,1.79.37,1.79,1.44,2.76,3.28,2.99,1.01.13,2.03.06,3.05.07.69.01.95.26.95.94,0,1.51,0,3.02,0,4.53,0,.66-.26.94-.91.96-1.91.05-3.83.13-5.74-.03-1.3-.11-2.58-.35-3.82-.78-2.28-.78-3.61-2.37-4.1-4.7-.18-.84-.27-1.69-.27-2.56,0-6.02,0-12.03,0-18.05,0-.74-.03-.77-.76-.77-1.09,0-2.19,0-3.28,0-.66,0-.92-.27-.92-.93,0-1.39,0-2.79,0-4.18,0-.64.29-.93.94-.93,1.15,0,2.29,0,3.44,0,.54,0,.59-.05.59-.61,0-2.33,0-4.66,0-6.99,0-.77.23-1.01.99-1.01,1.82,0,3.65,0,5.47,0,.68,0,.94.26.94.95,0,2.33,0,4.66,0,6.99,0,.63.03.67.65.67,2.11,0,4.22,0,6.33,0,.72,0,.99.26.99.99,0,1.35,0,2.71,0,4.06,0,.74-.25.98-.98.98-2.07,0-4.15,0-6.22,0-.75,0-.78.03-.78.76,0,2.62,0,5.23,0,7.85Z"/>
          <path class="cls-2" d="M219.75,27.15c0,7.16,0,14.32,0,21.49,0,.74-.24.98-.98.98-1.96,0-3.91,0-5.87,0-.64,0-.9-.26-.92-.89,0-.1,0-.21,0-.31,0-14.19,0-28.39,0-42.58,0-.16,0-.31,0-.47.04-.44.31-.73.76-.73,2.07-.01,4.15-.01,6.22,0,.5,0,.78.34.78.88,0,3.98,0,7.97,0,11.95,0,3.23,0,6.46,0,9.69Z"/>
          <path class="cls-2" d="M253.7,18.15c-.59.23-.76-.17-.97-.53-.08-.14-.13-.42-.34-.37-.22.06-.07.32-.1.48-.03.15.07.34-.07.44-.09.06-.25.04-.38.02-.14-.02-.1-.16-.1-.26,0-.65,0-1.3,0-1.95,0-.21.05-.32.28-.3.32.02.65,0,.97.04.31.04.57.2.64.54.07.34-.04.63-.37.78-.22.1-.17.21-.06.35.17.24.33.49.5.76ZM252.28,16.53c0,.12-.04.33.28.29.25-.03.5-.07.51-.37,0-.34-.26-.36-.52-.38-.33-.03-.26.2-.27.46Z"/>
        </g>
      </g>
    </g>
  </g>
</svg>