<?xml version="1.0" encoding="UTF-8"?>
<svg id="Layer_2" data-name="Layer 2" xmlns="http://www.w3.org/2000/svg" viewBox="0 0 292.33 62.15">
  <defs>
    <style>
      .cls-1 {
        fill: #fff;
      }
    </style>
  </defs>
  <g id="Layer_1-2" data-name="Layer 1">
    <g>
      <g>
        <path class="cls-1" d="M275.71,46.28l-1.8-.19v.08l1.45.56,3.37,1.93v.57l-3.39,2.03-1.43.57v.06l1.78-.26h4.71v1.68h-9.05v-1.62l4.14-2.42,1.03-.43v-.05l-1.06-.39-4.11-2.29v-1.6h9.05v1.77h-4.69Z"/>
        <path class="cls-1" d="M271.35,41.76v-1.77h9.05v1.77h-9.05Z"/>
        <path class="cls-1" d="M280.03,31.27c.2.28.34.63.42,1.05.09.43.13.86.13,1.31,0,.54-.08,1.06-.25,1.54-.17.49-.44.92-.81,1.29-.37.37-.86.67-1.46.89-.6.22-1.33.33-2.18.33s-1.63-.12-2.23-.37c-.6-.25-1.08-.56-1.45-.96-.37-.39-.63-.83-.79-1.31-.16-.48-.24-.96-.24-1.45,0-.52.03-.95.1-1.31.07-.36.15-.65.25-.89l1.5.35c-.09.2-.16.43-.21.7-.04.27-.06.6-.06.99,0,.72.25,1.29.76,1.73.51.44,1.3.65,2.37.65.47,0,.89-.05,1.28-.16.38-.1.71-.26.98-.47.27-.21.48-.47.63-.79.15-.31.23-.68.23-1.09,0-.39-.04-.71-.12-.98-.08-.27-.18-.5-.3-.7l1.44-.36Z"/>
        <path class="cls-1" d="M271.52,28.9c-.03-.2-.07-.41-.1-.64-.03-.23-.05-.46-.07-.69-.02-.23-.03-.45-.04-.67,0-.22-.01-.41-.01-.59,0-.42.04-.84.12-1.25.08-.41.21-.78.4-1.1.19-.32.45-.58.78-.78.33-.19.75-.29,1.25-.29.74,0,1.34.17,1.81.52.47.34.79.81.97,1.38l.4-.63,3.45-2.07v2.04l-3.54,2.06-.17.93h3.71v1.77h-8.96ZM272.88,26.18c0,.18,0,.36.01.54,0,.18.03.31.05.41h2.62v-.75c0-.49-.11-.88-.34-1.18-.22-.29-.59-.44-1.11-.44-.39,0-.69.12-.91.36-.22.24-.33.59-.33,1.06Z"/>
        <path class="cls-1" d="M275.88,21.04c-1.51,0-2.67-.33-3.48-1-.81-.66-1.22-1.61-1.22-2.84,0-.65.11-1.21.34-1.69.22-.48.54-.88.96-1.2.41-.32.91-.56,1.49-.71.58-.16,1.22-.23,1.93-.23,1.51,0,2.67.33,3.48,1,.81.67,1.22,1.61,1.22,2.84,0,.66-.11,1.22-.34,1.71-.22.48-.54.88-.96,1.2-.41.31-.91.55-1.49.7-.58.16-1.22.23-1.93.23ZM275.88,19.18c.46,0,.88-.04,1.26-.12.38-.08.71-.2.99-.36.28-.16.49-.36.65-.61.16-.25.23-.55.23-.89,0-.63-.25-1.12-.74-1.46-.49-.34-1.29-.52-2.39-.52-.44,0-.85.04-1.23.11-.38.07-.71.19-1,.34-.28.16-.51.36-.67.61-.16.25-.24.56-.24.92,0,.63.25,1.12.76,1.46.5.34,1.29.52,2.37.52Z"/>
      </g>
      <polygon class="cls-1" points="70.09 13.58 102.07 13.58 102.07 20.14 90.31 20.14 90.31 53.07 81.85 53.07 81.85 20.14 70.09 20.14 70.09 13.58"/>
      <polygon class="cls-1" points="151.05 13.58 179.37 13.58 179.37 20.14 159.53 20.14 159.53 29.43 177.79 29.43 177.79 35.99 159.53 35.99 159.53 46.51 179.97 46.51 179.97 53.07 151.05 53.07 151.05 13.58"/>
      <polygon class="cls-1" points="211.14 53.07 196.64 26.81 196.53 26.93 196.53 53.07 188.61 53.07 188.61 13.58 199.1 13.58 213.52 39.39 213.63 39.28 213.63 13.58 221.56 13.58 221.56 53.07 211.14 53.07"/>
      <path class="cls-1" d="M244,13.59h-13.44v39.48h13.44c12.31.11,19.97-6.02,19.97-19.74s-7.65-19.86-19.97-19.74ZM243.41,46.51h-4.39v-26.05h4.39c10.05-.11,11.53,6.58,11.53,12.87s-1.48,13.3-11.53,13.18Z"/>
      <g>
        <polygon class="cls-1" points="287.61 13.88 286.17 13.88 286.17 17.71 285.6 17.71 285.6 13.88 284.17 13.88 284.17 13.37 287.61 13.37 287.61 13.88"/>
        <path class="cls-1" d="M292.33,17.71h-.55v-3.63l-1.26,3.63h-.52l-1.24-3.69v3.69h-.57v-4.34h.86l1.02,3.07s.04.13.12.36c.05.14.08.23.09.28l.25-.7,1.03-3.02h.77v4.34Z"/>
      </g>
      <path class="cls-1" d="M134.45,36.42c4.4-1.61,7.54-5.87,7.54-10.87,0-.6-.04-1.18-.13-1.75-.55-3.65-2.5-6.45-5.79-8.37-.46-.25-2.87-1.78-10.21-1.78h0c-.14,0-.28,0-.42,0h-16.76v39.49h8.47v-15.68h8.96s5.54,12.17,6.25,15.68h10.42l-8.31-16.71ZM117.13,20.34h10.01c3.36.05,5.47,1.26,5.83,4.07,0,.02,0,.03,0,.05.01.1.02.19.02.29,0,.1.01.2.02.29,0,.06,0,.12,0,.17,0,.07,0,.14,0,.21-.03,3.43-2.21,5.25-5.89,5.3h-10.01v-10.38Z"/>
      <g>
        <path class="cls-1" d="M57.44,14.63c2.72,7.78-3.73,20.33-15.88,29.82-12.28,9.59-26.18,12.78-33,8.05,5.66,5.95,13.65,9.65,22.51,9.65,17.16,0,31.07-13.91,31.07-31.07,0-6.04-1.72-11.68-4.71-16.45Z"/>
        <path class="cls-1" d="M8.64,31.05h-3.63l.86-2.01s6.51-1.31,13.08-7.28c.01-.01,2.64-.02,2.64-.02l-3.27,7.07h5.37l-1.02,2.13-5.28-.03c-4.51,8.83-3.91,11.63-3.13,13.82,2.09,5.88,13.4,4.23,24.55-4.47,11.14-8.71,16.24-20.79,11.4-27-4.22-5.4-14.72-4.44-24.63,1.6,10.94-7,22.38-8.95,28.38-4.84C48.26,3.86,40.12,0,31.07,0,13.91,0,0,13.91,0,31.07c0,6.37,1.92,12.29,5.2,17.21-1.87-4.56-.63-10.85,3.43-17.24Z"/>
      </g>
    </g>
  </g>
</svg>