<?xml version="1.0" encoding="UTF-8"?>
<svg id="Layer_2" data-name="Layer 2" xmlns="http://www.w3.org/2000/svg" viewBox="0 0 307.01 51.12">
  <defs>
    <style>
      .cls-1 {
        fill: #fff;
      }
    </style>
  </defs>
  <g id="Layer_1-2" data-name="Layer 1">
    <g id="ynaSGD">
      <g>
        <path class="cls-1" d="M280.31,51.12c.08-.05.16-.1.29-.18-.15-.03-.24-.07-.34-.07-1.36-.07-2.39-1.18-2.45-2.89-.05-1.36,1.03-2.6,2.4-2.83.53-.09,1.06-.09,1.59-.09,5.15,0,10.3,0,15.44,0,.6,0,1.2,0,1.77-.23.97-.41,1.51-1.12,1.57-2.16.03-.51.06-1.03-.09-1.53-.37-1.26-1.38-1.91-3.04-1.92-3.5,0-7,0-10.5,0-.87,0-1.73-.1-2.57-.29-3.48-.79-5.54-2.97-6.35-6.39-.49-2.07-.26-4.09.55-6.03,1.17-2.83,3.43-4.29,6.38-4.81.46-.08.93-.1,1.39-.1,5.6,0,11.2,0,16.79,0,1.18,0,2.12.45,2.6,1.51.56,1.23.46,2.47-.44,3.54-.51.61-1.26.77-2.03.82-.32.02-.63.01-.95.01-4.9,0-9.8,0-14.69,0-.4,0-.8,0-1.2.07-1.43.28-2.23,1.22-2.25,2.67,0,.56,0,1.12.29,1.64.51.87,1.22,1.37,2.26,1.37,3.25,0,6.5-.02,9.75,0,1.65.01,3.31.08,4.89.61,2.97,1,4.73,3.08,5.37,6.12.04.19,0,.41.22.53v3.08c-.1.17-.16.36-.19.56-.2,1.19-.61,2.3-1.25,3.32-1.23,1.97-3.17,2.83-5.35,3.29-.49.1-1.01.11-1.51.16.33.16.69.04,1,.23h-19.39Z"/>
        <path class="cls-1" d="M197.94,51.12c.32-.18.69-.02,1.17-.21-.6-.06-1.06-.1-1.52-.16-4.84-.61-8.56-2.87-10.77-7.29-1.5-2.99-1.8-6.19-1.42-9.48.23-1.97.78-3.82,1.74-5.55,1.73-3.12,4.41-5.08,7.79-6.11,1.61-.49,3.27-.75,4.97-.71,1.8.04,3.6-.1,5.39.09,6.62.69,11.11,4.7,12.43,11.18.66,3.25.4,6.47-.74,9.58-1.43,3.86-4.27,6.3-8.14,7.62-1.35.46-2.73.72-4.15.77-.1,0-.2.01-.3.03-.02,0-.04.04-.07.08.34.11.7-.01,1.02.17h-7.4ZM201.73,45.05c1.03-.02,2.06.09,3.09-.1,3.15-.57,5.4-2.23,6.46-5.3.49-1.42.48-2.89.44-4.37-.09-3.29-2.13-6.17-5.28-7.17-2.97-.95-6.02-.93-9.02-.18-2.78.69-4.57,2.53-5.42,5.26-.57,1.84-.6,3.7-.2,5.58.63,2.97,2.47,4.81,5.29,5.81,1.51.53,3.07.52,4.64.47Z"/>
        <path class="cls-1" d="M149.35,36.32c0-3.44,0-6.89,0-10.33,0-.59.03-1.19.07-1.78.12-1.52,1.27-2.59,2.82-2.6,2.38-.01,4.76,0,7.15,0,3.6,0,7.2,0,10.79,0,4.24,0,7.34,2.54,8.13,6.68.48,2.51.38,5-.45,7.44-.63,1.87-1.8,3.25-3.58,4.13-.55.27-.56.33-.21.84,1.3,1.88,2.59,3.77,3.91,5.64.54.76.66,1.57.53,2.45-.16,1.07-.79,1.79-1.82,2-1.21.25-2.12.17-2.93-.96-1.32-1.85-2.58-3.74-3.87-5.61-.7-1.02-1.41-2.05-2.11-3.08-.14-.2-.28-.35-.56-.33-1.6.14-3.2.05-4.79.06-1.92.01-3.83,0-5.75,0-1.01,0-1.01-.02-1.02,1.02,0,2.09.02,4.17-.02,6.26-.02,1.21-.66,2.17-1.79,2.52-2.29.71-4.5-.07-4.53-2.98-.03-3.29,0-6.59,0-9.88,0-.5,0-.99,0-1.49h0ZM162.86,27.49c-2.17,0-4.33,0-6.5,0-.62,0-.64,0-.64.63-.01,1.87-.02,3.74-.04,5.61-.01,1.41-.17,1.18,1.16,1.18,4.06,0,8.13,0,12.19,0,.98,0,1.91-.2,2.57-.99.87-1.04,1.15-2.25.87-3.58-.42-1.99-1.48-2.85-3.53-2.86-2.03,0-4.06,0-6.1,0Z"/>
        <path class="cls-1" d="M125.08,44.78c-3.11,0-6.23,0-9.34,0-.44,0-.68.14-.92.51-.89,1.34-1.81,2.66-2.73,3.97-.18.26-.4.48-.61.72-1.18,1.33-3.1,1.06-4.21.19-1.3-1.03-1.63-2.58-.71-3.97,1.5-2.27,3.06-4.5,4.6-6.74,3.69-5.37,7.38-10.74,11.07-16.11.23-.33.46-.65.74-.93,1.28-1.25,3.31-1.16,4.4.26,1,1.3,1.9,2.67,2.83,4.03,3.42,4.97,6.83,9.95,10.24,14.93.99,1.45,1.97,2.91,2.97,4.36.62.9.93,1.87.52,2.91-.49,1.22-1.52,1.79-2.79,1.97-1.28.18-2.22-.39-2.92-1.42-.94-1.38-1.9-2.76-2.82-4.16-.25-.38-.52-.52-.97-.51-3.11.02-6.23,0-9.34,0ZM130.97,39.49c.35.09.39-.07.22-.32-.32-.47-.65-.92-.97-1.38-1.61-2.35-3.22-4.7-4.83-7.05-.27-.4-.38-.4-.62.02-.4.71-.9,1.35-1.36,2.02-1.37,2-2.73,3.99-4.1,5.99-.15.23-.49.44-.37.7.1.21.45.02.69.02,3.78,0,7.56,0,11.34,0Z"/>
        <path class="cls-1" d="M255.93,41c0,2.75,0,4.93,0,7.12,0,1.6-.99,2.65-2.59,2.74-.27.02-.53.06-.8.04-1.86-.11-2.81-1.13-2.81-3.09-.01-3.82,0-7.65,0-11.47,0-.33,0-.66-.02-.99-.23-5-3.6-7.39-7.61-7.85-1.79-.2-3.59-.22-5.37.13-3.67.72-5.83,2.89-6.58,6.57-.13.67-.19,1.34-.19,2.02,0,3.89,0,7.78,0,11.67,0,.97-.23,1.86-1.06,2.45-1.12.8-2.38.72-3.57.27-1.14-.44-1.52-1.46-1.59-2.6-.01-.2,0-.4,0-.6,0-3.97-.05-7.95.02-11.92.05-3.07.84-5.95,2.69-8.48,2.09-2.85,4.98-4.42,8.4-5.11.93-.19,1.87-.31,2.83-.29,2,.03,4-.15,5.99.1,3.86.49,7.17,2.03,9.54,5.19,1.57,2.09,2.4,4.49,2.65,7.08.24,2.53.02,5.06.1,7.03Z"/>
        <path class="cls-1" d="M76.69,21.59c1.08,0,1.84.55,2.41,1.38,1.85,2.67,3.68,5.36,5.51,8.04,2.47,3.6,4.93,7.19,7.4,10.79.3.43.4.45.64.1,1.64-2.4,3.27-4.79,4.91-7.19,2.64-3.84,5.27-7.68,7.92-11.52.99-1.43,2.08-1.91,3.48-1.46,1.85.59,3.41,2.6,1.81,4.94-3.93,5.75-7.88,11.49-11.82,17.23-1.2,1.75-2.4,3.5-3.61,5.24-.62.89-1.35,1.63-2.53,1.76-1.24.14-2.23-.26-2.94-1.29-1.62-2.34-3.25-4.69-4.87-7.04-3.09-4.49-6.18-8.99-9.26-13.49-.61-.89-1.22-1.78-1.82-2.67-.64-.97-.83-2-.22-3.04.66-1.11,1.65-1.74,2.98-1.77Z"/>
        <path class="cls-1" d="M263.5,36.15c0-3.79,0-7.58,0-11.37,0-1.28.45-2.35,1.67-2.87,1.24-.54,2.51-.48,3.63.39.83.64,1.02,1.57,1.03,2.53.02,1.85,0,3.71,0,5.56,0,5.68,0,11.36,0,17.03,0,.33-.01.66-.07.99-.32,1.75-1.46,2.62-3.26,2.5-1.95-.14-2.99-1.22-3-3.19-.01-3.86,0-7.71,0-11.57h0Z"/>
        <g>
          <path class="cls-1" d="M46.49,19.53c-.37-.54-.75-1.08-1.12-1.62-2.63-3.83-5.24-7.66-7.87-11.49-1.32-1.93-2.66-3.85-3.96-5.79-.26-.39-.53-.58-1-.58-1.7.02-3.4,0-5.1,0,0,0,0-.01,0-.02-1.75,0-3.5,0-5.25,0-.14,0-.31-.11-.4.09-.07.16.05.29.13.41.36.5.74.98,1.08,1.49,1.5,2.19,3,4.38,4.5,6.56,2.16,3.14,4.33,6.28,6.49,9.42,2.19,3.19,4.38,6.38,6.57,9.56l5.92-8.04Z"/>
          <path class="cls-1" d="M63.86,45.98c0-.11-.02-.21-.04-.32-.05-.34-.15-.68-.29-1.02-.25-.62-.61-1.18-.98-1.73-3.13-4.57-6.29-9.12-9.39-13.71-.52-.77-1.05-1.54-1.57-2.31-.77-1.12-1.54-2.24-2.32-3.36l-5.93,8.05c2.6,3.78,5.2,7.56,7.8,11.34,1.41,2.05,2.82,4.1,4.26,6.13.67.95,1.55,1.62,2.77,1.76.73.08,1.41.03,2.03-.15,1.03-.3,1.92-.93,2.67-1.84.64-.77.98-1.61,1-2.5,0,0,0,0,0-.01,0-.11,0-.22-.01-.32Z"/>
        </g>
        <g>
          <path class="cls-1" d="M29.73,43.57l5.93-8.04c-1.19-1.73-2.37-3.45-3.56-5.18-4.21-6.14-8.42-12.28-12.62-18.42-2.61-3.82-5.23-7.63-7.84-11.45-.21-.31-.44-.44-.82-.44-1.72.02-3.43,0-5.15,0,0,0,0-.01,0-.02-1.73,0-3.46,0-5.19,0-.16,0-.36-.08-.45.11-.08.17.07.31.17.44,1.07,1.36,1.98,2.82,2.96,4.24,3.53,5.12,7.03,10.25,10.55,15.38,2.27,3.31,4.54,6.62,6.81,9.92,2.15,3.13,4.3,6.26,6.45,9.39.93,1.35,1.84,2.71,2.76,4.07Z"/>
          <path class="cls-1" d="M40.82,43.06c-.8-1.17-1.6-2.34-2.41-3.51l-5.9,8c.05.08.11.16.16.25.42.62.85,1.24,1.37,1.79.54.58,1.17,1.03,1.98,1.16.5.08.99.1,1.45.06,1.17-.1,2.21-.59,3.13-1.47h0c.77-.73,1.23-1.59,1.35-2.61.02-.17.03-.34.04-.52.01-1.22-.54-2.21-1.18-3.16Z"/>
        </g>
      </g>
    </g>
  </g>
</svg>