<?xml version="1.0" encoding="UTF-8" standalone="no" ?>
<!DOCTYPE svg PUBLIC "-//W3C//DTD SVG 1.1//EN" "http://www.w3.org/Graphics/SVG/1.1/DTD/svg11.dtd">
<svg xmlns="http://www.w3.org/2000/svg" xmlns:xlink="http://www.w3.org/1999/xlink" version="1.1" width="1080" height="300" viewBox="0 0 1080 300" xml:space="preserve">
<desc>Created with Fabric.js 5.2.4</desc>
<defs>
</defs>
<g transform="matrix(1 0 0 1 540 150)" id="79d0f1a2-a4b3-477c-94a1-d4ce2089ce10"  >
<rect style="stroke: none; stroke-width: 1; stroke-dasharray: none; stroke-linecap: butt; stroke-dashoffset: 0; stroke-linejoin: miter; stroke-miterlimit: 4; fill: rgb(255,255,255); fill-rule: nonzero; opacity: 1; visibility: hidden;" vector-effect="non-scaling-stroke"  x="-540" y="-150" rx="0" ry="0" width="1080" height="300" />
</g>
<g transform="matrix(Infinity NaN NaN Infinity 0 0)" id="df99b686-d254-43a4-bc3c-383850a77888"  >
</g>
<g transform="matrix(44.12 0 0 44.12 540 150)" id="09c61002-7df7-4f4c-9f23-3df9f97c77c6"  >
<path style="stroke: rgb(0,0,0); stroke-width: 0; stroke-dasharray: none; stroke-linecap: butt; stroke-dashoffset: 0; stroke-linejoin: miter; stroke-miterlimit: 4; fill: rgb(0,0,0); fill-rule: nonzero; opacity: 1;" vector-effect="non-scaling-stroke"  transform=" translate(-12, -12)" d="M 0 9.746 L 1.248 13.6172 C 1.3533 13.9415 1.6552 14.150400000000001 1.9824000000000002 14.150400000000001 C 2.3164870865146536 14.150783129965435 2.6125392430873737 13.935251985939527 2.7148000000000003 13.6172 L 3.9628000000000005 9.7461 L 3.2695000000000007 9.7461 L 2.086 13.412 C 2.071984961686905 13.457378304648607 2.029993188966625 13.488293986593394 1.9825 13.4882 C 1.9358 13.4882 1.8943999999999999 13.4602 1.8771 13.412 L 0.6934 9.7461 L 0 9.7461 z M 5.3125 9.746 C 4.7044 9.746 4.2129 10.2399 4.2129 10.8477 L 4.2129 13.0488 C 4.2129 13.6566 4.704400000000001 14.1504 5.3125 14.1504 L 7.4043 14.1504 L 7.4043 13.488299999999999 L 5.3125 13.488299999999999 C 5.195896667007059 13.488432881420637 5.084030899003736 13.442171223011322 5.001579837996206 13.359720162003793 C 4.919128776988678 13.277269100996262 4.872867118579362 13.16540333299294 4.873 13.048799999999998 L 4.873 12.273399999999999 L 6.9648 12.273399999999999 L 6.9648 11.623 L 4.873 11.623 L 4.873 10.8477 C 4.873 10.6046 5.0694 10.4063 5.3125 10.4063 L 7.4043 10.4063 L 7.4043 9.746 L 5.3125 9.746 z M 9.0723 9.746 C 8.809615442721206 9.74586727067476 8.557651637105632 9.850159526153515 8.371905581629573 10.035905581629574 C 8.186159526153515 10.221651637105632 8.081867270674758 10.473615442721206 8.082 10.7363 L 8.082 14.1503 L 8.7422 14.1503 L 8.7422 10.7363 C 8.7422 10.5538 8.889700000000001 10.4063 9.0722 10.4063 L 10.5039 10.4063 C 10.731797522788426 10.406442433631895 10.936045420063374 10.546994568509632 11.0176 10.7598 C 11.069975338164468 10.896024188633522 11.066059999084526 11.047479853270202 11.006716153624355 11.180815945993453 C 10.947372308164182 11.314152038716703 10.83746637100251 11.41843450707675 10.7012 11.4707 L 9.5918 11.878900000000002 C 9.1893 12.017900000000001 8.976799999999999 12.456900000000001 9.1152 12.8594 C 9.184092302507896 13.0615219422524 9.334177981625471 13.225742713100441 9.5293 13.3125 L 11.603499999999999 14.2539 L 11.603499999999999 13.5313 L 9.789099999999998 12.7285 C 9.75576523800068 12.713457884725962 9.730264693681102 12.685127977025262 9.718799999999998 12.650400000000001 C 9.707459423757332 12.61751936606422 9.70974617195271 12.581468135514998 9.725150413505222 12.550283939201377 C 9.740554655057734 12.519099742887756 9.76779564578311 12.495375306841304 9.800799999999999 12.4844 L 10.937499999999998 12.087900000000001 C 11.561799999999998 11.848300000000002 11.874099999999999 11.1477 11.634799999999998 10.5234 C 11.449699999999998 10.0419 10.990599999999999 9.7461 10.503899999999998 9.7461 L 9.0723 9.7461 z M 12.3809 9.746 L 12.3809 14.150400000000001 L 13.042900000000001 14.150400000000001 L 13.042900000000001 9.746 L 12.3809 9.746 z M 13.591800000000001 9.746 L 13.591800000000001 10.4062 L 14.869100000000001 10.4062 L 14.869100000000001 14.150400000000001 L 15.529300000000001 14.150400000000001 L 15.529300000000001 10.406300000000002 L 16.8066 10.406300000000002 L 16.8066 9.746 L 13.5918 9.746 z M 18.2988 9.746 C 17.96467571000917 9.745599058583554 17.668598463955657 9.96118889381067 17.5664 10.279300000000001 L 16.3164 14.150300000000001 L 17.0117 14.150300000000001 L 18.1953 10.482400000000002 C 18.209287121702985 10.437001862669163 18.251296163987824 10.406073466320326 18.2988 10.406200000000002 C 18.3455 10.406200000000002 18.387 10.434500000000002 18.4043 10.482400000000002 L 19.5859 14.150400000000001 L 20.281299999999998 14.150400000000001 L 19.031299999999998 10.279300000000001 C 18.928542965212657 9.961564098597414 18.632738753110328 9.746242861883475 18.298799999999996 9.7461 z M 21.6328 9.746 C 20.9336 9.746 20.3672 10.3125 20.3672 11.011700000000001 C 20.3672 11.711000000000002 20.933600000000002 12.2773 21.6328 12.2773 L 22.7344 12.279300000000001 C 23.0688 12.279300000000001 23.3398 12.5486 23.3398 12.882800000000001 C 23.33982652451116 13.043379388362581 23.276055203084198 13.19739093880322 23.162517804548763 13.310947091451396 C 23.048980406013328 13.424503244099572 22.894979390553242 13.48830000219066 22.7344 13.4883 L 20.5879 13.4883 L 20.5879 14.150300000000001 L 22.7344 14.150300000000001 C 23.433600000000002 14.150300000000001 24 13.582 24 12.882800000000001 C 24 12.183600000000002 23.4336 11.6172 22.7344 11.6172 L 21.6328 11.6172 C 21.472203283890806 11.617226529564615 21.318176574955853 11.553441482137258 21.2046175464093 11.439882453590704 C 21.09105851786274 11.326323425044148 21.027273470435386 11.172296716109194 21.0273 11.011700000000001 C 21.0273 10.6773 21.2983 10.406300000000002 21.6328 10.406300000000002 L 23.7793 10.406300000000002 L 23.7793 9.746 L 21.6328 9.746 Z" stroke-linecap="round" />
</g>
</svg>