<?xml version="1.0" encoding="UTF-8"?>
<svg id="Layer_2" data-name="Layer 2" xmlns="http://www.w3.org/2000/svg" viewBox="0 0 252.52 52.77">
  <defs>
    <style>
      .cls-1 {
        fill: #fff;
      }
    </style>
  </defs>
  <g id="Layer_1-2" data-name="Layer 1">
    <path class="cls-1" d="M84.2,26.85c1.37,8.44-5.9,13.2-13.26,13.74-4.68,9.71-21.19,16.27-35.51,9.21-6.12.93-9.48-.61-12.07-3.56,5.24-6.8,21.08-19.03,40.45-12.71,10.33,3.37,13.01-4.55,10.42-7.52-9.75-11.17-31.77-1.12-32.56-.28,8.65-13.35,39.59-17.09,42.54,1.11M54.55,11.51c.05-.02-7.03-2.54-16.94,1.78-.4-.15-.79-.32-1.17-.51,9.53-6.39,17.88-9.1,25.03-8.04C57.14-.29,36.36-3.98,24.45,8.06,9.73,5.13-.56,17.72.02,29.21c.59,11.49,13.01,18.64,20.09,16.71.17-.02.34-.02.51,0,1.57-7.59,7.98-25.26,33.92-34.4M113.83,22.01l1.32-5.85h-22.17l-.5,2.27c-.58,2,.99,3.42,2.68,3.38h10.27l-18.2,16.22-1.23,5.44h23.48l1.35-5.96h-14.85l17.85-15.49ZM128.62,26.72c-1.04-.27-6.87-1.16-6.51-3.18.41-2.28,3.17-2.5,4.52-2.46,2.77.08,3.64,1.31,3.78,1.74.38,1.16,1.27,1.74,2.56,1.74h4.37c.48-2.73.61-9.03-9.55-9.03-3.26,0-7.6.83-10.48,4.17-1.53,1.79-4.19,6.24-1.48,9.58,1.42,1.69,5.12,3.01,9.09,3.79,2.57.51,3.93,1.54,3.64,2.77-.17.82-1.19,2.67-4.97,2.67-1.69,0-5.36-.27-4.66-4.1h-6.91c-.81,3.47-1.11,9.54,9.43,9.54,4.06,0,12.34-.52,14.49-9.24,1.55-6.26-5.45-7.5-7.34-7.98h0ZM153.05,36.38c-.6.56-1.3.99-2.06,1.27-.76.28-1.57.41-2.38.38-5.22.05-4.63-5.16-3.92-8.31.71-3.15,2.39-8.22,7.36-8.2,3.52,0,3.92,2.3,4.1,2.97h7.11c-.25-7.57-6.01-9.02-10.08-8.92-11.15.28-14.38,9.68-15.38,14.05-2.91,12.77,5.18,14.36,9.06,14.36,3.18,0,10.13-.77,14.21-8.93h-5.08c-1.47-.05-2.14.6-2.95,1.32h0ZM182.1,38.99c-2.05,2.44-4.9,4.06-8.04,4.56-6.18,1.03-14.68.77-12.54-8.2.68-2.86,1.75-4.74,3.88-6.15,3.57-2.37,8.31-2.7,9.85-2.87.52-.06,4.41-.35,5.08-2.67.65-2.26-2.92-2.44-3.92-2.46-3.06-.03-4.1,1.2-4.59,1.93h-6.81c2.75-7.3,10.33-7.59,12.4-7.59,2.3,0,11.5,0,9.75,7.7-2.69,11.76-2.8,12.93-5.06,15.76M179.04,29.73c-1.09.61-3.83,1.2-4.26,1.33-1.4.42-4.08.6-5.38,1.83-1.11,1.06-3.08,5.45,1.59,5.54,2.89.05,6.51-1.59,7.53-6.35.21-1.08.54-2.35.54-2.35h-.02ZM196.57,8.17h-3.67l-7.98,35.28h7.11l7.21-31.9c.31-1,.11-3.29-2.67-3.39M215.01,35.04h5.09c-1.6,3.26-5.74,8.93-14.22,8.93-10.82,0-10.16-9.74-9.05-14.36,3.06-12.84,11.59-14.05,15.38-14.05,5.06,0,12.99,2.12,8.96,16.1h-17.61c-.43,1.85-.8,6.41,4.06,6.36,2.55-.03,3.51-.96,3.74-1.08.67-.34,1.29-1.85,3.66-1.9M204.62,27.04h10.37c.89-5.02-2.19-5.54-3.93-5.54-1.49,0-5.03.54-6.44,5.54M230.27,19.15c-4.77,3.28-6.34,8.55-6.89,11.08-.44,1.99-3,13.23-3,13.23h7.12s2.7-12.35,3.17-14.05c.56-1.98,2.4-7.34,9.49-7.12l1.64-6.13c-5.74-.18-9.53,1.59-11.55,2.98h0ZM242.69,10.84l.18-.86h3.83l-.19.86h-1.37l-.77,3.78h-1.03l.79-3.78h-1.44ZM248.99,9.99l.35,3.35,1.77-3.35h1.41l-.97,4.63h-.94l.84-3.69-1.94,3.69h-.77l-.44-3.69-.69,3.69h-.95l.96-4.63h1.36Z"/>
  </g>
</svg>