<svg width="92" height="93" viewBox="0 0 92 93" fill="none" xmlns="http://www.w3.org/2000/svg">
<g clip-path="url(#clip0_172_613)">
<path d="M72.0234 65.0404C71.4612 65.0404 70.8911 64.8973 70.3682 64.5913L44.3448 49.4053C42.7603 48.4792 42.2178 46.4325 43.1338 44.8308C44.046 43.2291 46.0786 42.6807 47.6591 43.6067L73.6825 58.7927C75.267 59.7187 75.8096 61.7655 74.8935 63.3672C74.2802 64.4403 73.1636 65.0444 72.0234 65.0444V65.0404Z" fill="white"/>
<path d="M46 6.70077C67.7104 6.70077 85.3713 24.5536 85.3713 46.5C85.3713 68.4464 67.7104 86.2992 46 86.2992C24.2896 86.2992 6.62872 68.4464 6.62872 46.5C6.62872 24.5536 24.2896 6.70077 46 6.70077ZM46 0C20.5938 0 0 20.8177 0 46.5C0 72.1823 20.5938 93 46 93C71.4062 93 92 72.1823 92 46.5C92 20.8177 71.4062 0 46 0Z" fill="white"/>
<path d="M46.0083 80.7868C45.7449 80.7868 45.5011 80.7669 45.2574 80.6993C44.994 80.6556 44.7502 80.588 44.53 80.4768C44.2902 80.3893 44.0661 80.278 43.8695 80.1191C43.6493 79.9839 43.4488 79.8289 43.2758 79.6501C43.0989 79.4713 42.9417 79.2686 42.7883 79.046C42.6586 78.8433 42.5485 78.6009 42.4345 78.3743C42.348 78.1279 42.2575 77.8855 42.2143 77.6391C42.1711 77.3927 42.1475 77.1264 42.1475 76.88C42.1475 76.6336 42.1711 76.3673 42.2143 76.1209C42.2575 75.8745 42.344 75.628 42.4345 75.3856C42.5485 75.1392 42.6586 74.9166 42.7883 74.7139C42.9456 74.4914 43.0989 74.2887 43.2758 74.1138C43.4488 73.935 43.6493 73.776 43.8695 73.621C44.0661 73.4859 44.2902 73.3746 44.53 73.2633C44.7541 73.1759 44.994 73.1083 45.2574 73.0407C45.741 72.9533 46.2521 72.9533 46.7593 73.0407C47.003 73.1083 47.2468 73.1759 47.4866 73.2633C47.7107 73.3746 47.9505 73.4859 48.1511 73.621C48.3476 73.776 48.5481 73.935 48.7251 74.1138C48.9216 74.2927 49.0789 74.4914 49.2087 74.7139C49.3659 74.9166 49.4721 75.1392 49.5625 75.3856C49.6726 75.632 49.7394 75.8745 49.7827 76.1209C49.8495 76.3673 49.8692 76.6336 49.8692 76.88C49.8692 77.1264 49.8495 77.3927 49.7827 77.6391C49.7394 77.8855 49.6726 78.1319 49.5625 78.3743C49.476 78.5969 49.3659 78.8433 49.2087 79.046C49.0789 79.2686 48.9216 79.4713 48.7251 79.6501C48.5481 79.8289 48.3516 79.9839 48.1511 80.1191C47.9505 80.2741 47.7107 80.3854 47.4866 80.4768C47.2468 80.588 47.003 80.6556 46.7593 80.6993C46.5194 80.7669 46.2521 80.7868 46.0083 80.7868Z" fill="white"/>
<path d="M30.9819 76.721C30.7185 76.721 30.4748 76.6972 30.231 76.6336C29.9676 76.5899 29.7199 76.5223 29.5037 76.411C29.2599 76.3236 29.0397 76.1885 28.8431 76.0533C28.619 75.9182 28.4225 75.7433 28.2455 75.5645C27.5182 74.8491 27.1211 73.8436 27.1211 72.8182C27.1211 72.5519 27.1408 72.3055 27.1879 72.0353C27.2312 71.7888 27.3177 71.5424 27.4081 71.3199C27.5182 71.0735 27.6322 70.8509 27.7619 70.6283C27.9192 70.4256 28.0686 70.2269 28.2455 70.0481C28.4225 69.8692 28.619 69.6904 28.8431 69.5592C29.0397 69.4241 29.2599 69.2929 29.5037 69.2015C29.7238 69.1141 29.9676 69.0227 30.231 68.979C30.7146 68.8915 31.2257 68.8915 31.7329 68.979C31.9766 69.0227 32.2204 69.1141 32.4602 69.2015C32.6843 69.289 32.9006 69.4241 33.1207 69.5592C33.3213 69.6904 33.5218 69.8692 33.6987 70.0481C33.8953 70.2269 34.0486 70.4256 34.1823 70.6283C34.312 70.8509 34.4457 71.0735 34.5361 71.3199C34.6462 71.5424 34.7131 71.7888 34.7563 72.0353C34.8231 72.3015 34.8428 72.5479 34.8428 72.8182C34.8428 73.0646 34.8231 73.307 34.7563 73.5773C34.7131 73.8237 34.6462 74.0701 34.5361 74.3126C34.4496 74.5351 34.312 74.7577 34.1823 74.9803C34.0486 75.1829 33.8953 75.3817 33.6987 75.5605C33.5218 75.7394 33.3252 75.9182 33.1207 76.0494C32.9006 76.1845 32.6804 76.3156 32.4602 76.407C32.2204 76.5183 31.9766 76.5859 31.7329 76.6296C31.4931 76.6972 31.2257 76.717 30.9819 76.717V76.721Z" fill="white"/>
<path d="M19.981 65.6007C19.7176 65.6007 19.4699 65.5768 19.2261 65.5133C18.9863 65.4695 18.7425 65.402 18.4987 65.2907C18.2589 65.2033 18.0348 65.092 17.8382 64.933C17.6181 64.7979 17.4215 64.6429 17.2446 64.464C16.5369 63.7288 16.1201 62.7233 16.1201 61.6939C16.1201 60.6685 16.5369 59.663 17.2446 58.9238C17.4215 58.7449 17.6181 58.5899 17.8382 58.4349C18.0348 58.2998 18.2589 58.1885 18.4987 58.0772C18.7425 57.9898 18.9863 57.8984 19.2261 57.8547C20.4842 57.6083 21.8092 58.0097 22.7174 58.9277C22.8943 59.1066 23.0516 59.3053 23.1813 59.5318C23.3386 59.7306 23.4447 59.9571 23.5352 60.1995C23.6452 60.4221 23.7121 60.6685 23.7593 60.9348C23.8222 61.1812 23.8458 61.4276 23.8458 61.6939C23.8458 61.9403 23.8222 62.2066 23.7593 62.453C23.7121 62.6994 23.6452 62.9458 23.5352 63.1883C23.4487 63.4108 23.3386 63.6572 23.1813 63.856C23.0516 64.0785 22.8943 64.2812 22.7174 64.4601C21.99 65.1754 20.9953 65.6007 19.981 65.6007Z" fill="white"/>
<path d="M15.9587 50.4147C14.9207 50.4147 13.926 49.9895 13.2183 49.2781C12.491 48.5428 12.0703 47.5373 12.0703 46.5079C12.0703 46.2417 12.1136 45.9953 12.1568 45.7488C12.2001 45.4826 12.2866 45.2361 12.377 45.0136C12.4635 44.7672 12.5972 44.5446 12.7308 44.3459C12.8606 44.1233 13.0375 43.9206 13.2144 43.7418C14.6495 42.2911 17.2365 42.2911 18.6715 43.7418C18.8484 43.9206 19.0254 44.1194 19.159 44.3459C19.2888 44.5446 19.4225 44.7711 19.5129 45.0136C19.623 45.2361 19.6859 45.4826 19.733 45.7488C19.7763 45.9953 19.8195 46.2377 19.8195 46.5079C19.8195 47.5333 19.3989 48.5388 18.6715 49.2781C17.9677 49.9935 16.973 50.4147 15.9548 50.4147H15.9587Z" fill="white"/>
<path d="M19.981 35.2286C19.7176 35.2286 19.4699 35.2048 19.2261 35.1412C18.9627 35.0975 18.7189 35.0299 18.4987 34.9186C18.2589 34.8312 18.0348 34.7199 17.8382 34.561C17.6181 34.4298 17.4215 34.2708 17.2446 34.092C17.0676 33.9131 16.9104 33.7144 16.761 33.4879C16.6273 33.2653 16.5172 33.0428 16.4071 32.8202C16.3206 32.5738 16.2499 32.3274 16.183 32.0849C16.1398 31.8385 16.1201 31.5722 16.1201 31.3258C16.1201 31.0595 16.1398 30.8131 16.183 30.5667C16.2499 30.3004 16.3167 30.0501 16.4071 29.8315C16.5172 29.5851 16.6273 29.3625 16.761 29.1598C16.9143 28.9372 17.0676 28.7345 17.2446 28.5557C17.4215 28.3769 17.6181 28.2219 17.8382 28.0669C18.0348 27.9317 18.2589 27.8204 18.4987 27.7092C18.7229 27.6217 18.9666 27.5542 19.2261 27.4866C19.7136 27.3992 20.2208 27.3992 20.728 27.4866C20.9678 27.5542 21.2116 27.6217 21.4553 27.7092C21.6755 27.8204 21.8957 27.9317 22.1158 28.0669C22.336 28.2219 22.5326 28.3769 22.7095 28.5557C22.8864 28.7345 23.0437 28.9333 23.1734 29.1598C23.3307 29.3625 23.4369 29.5851 23.5273 29.8315C23.6374 30.054 23.7042 30.3004 23.7514 30.5667C23.8143 30.8131 23.8379 31.0556 23.8379 31.3258C23.8379 31.5722 23.8143 31.8385 23.7514 32.0849C23.7042 32.3313 23.6374 32.5778 23.5273 32.8202C23.4408 33.0428 23.3307 33.2653 23.1734 33.4879C23.0437 33.7104 22.8864 33.9131 22.7095 34.092C22.5326 34.2708 22.336 34.4298 22.1158 34.561C21.8917 34.7199 21.6755 34.8272 21.4553 34.9186C21.2116 35.0299 20.9678 35.0975 20.728 35.1412C20.4842 35.2088 20.2169 35.2286 19.977 35.2286H19.981Z" fill="white"/>
<path d="M30.981 24.1045C29.9666 24.1045 28.9483 23.6792 28.2407 22.9638C28.0637 22.785 27.8868 22.5863 27.7571 22.3597C27.6273 22.161 27.4936 21.9146 27.4032 21.692C27.3167 21.4456 27.2263 21.1992 27.183 20.9568C27.1359 20.7104 27.1162 20.4441 27.1162 20.1977C27.1162 19.9314 27.1359 19.685 27.183 19.4386C27.2263 19.1723 27.3128 18.9259 27.4032 18.7033C27.4897 18.4569 27.6273 18.2343 27.7571 18.0316C27.8868 17.8091 28.0637 17.6064 28.2407 17.4275C29.1449 16.5134 30.4738 16.112 31.7319 16.3545C31.9757 16.422 32.2195 16.4896 32.4593 16.577C32.6834 16.6883 32.8996 16.7996 33.1198 16.9347C33.3203 17.0897 33.5208 17.2447 33.6977 17.4236C33.8943 17.6024 34.0477 17.8011 34.1813 18.0277C34.3111 18.2304 34.4448 18.4529 34.5352 18.6993C34.6453 18.9219 34.7121 19.1683 34.7554 19.4346C34.8222 19.681 34.8419 19.9274 34.8419 20.1937C34.8419 20.4401 34.8222 20.7064 34.7554 20.9528C34.7121 21.1992 34.6453 21.4456 34.5352 21.6881C34.4487 21.9106 34.3111 22.157 34.1813 22.3557C34.0477 22.5783 33.8943 22.781 33.6977 22.9598C33.5208 23.1387 33.3242 23.2977 33.1198 23.4288C32.8996 23.5878 32.6795 23.6951 32.4593 23.8104C32.2195 23.8978 31.9757 23.9654 31.7319 24.0329C31.4921 24.0766 31.2248 24.1005 30.981 24.1005V24.1045Z" fill="white"/>
<path d="M46.0083 20.0387C45.7449 20.0387 45.5011 20.0188 45.2377 19.9513C44.994 19.9076 44.7541 19.84 44.53 19.7287C44.2902 19.6413 44.0661 19.526 43.8695 19.371C43.6493 19.2359 43.4488 19.057 43.2758 18.8782C43.0989 18.6993 42.9417 18.5006 42.7883 18.2979C42.6586 18.0754 42.5485 17.8528 42.4345 17.6302C42.348 17.3838 42.2811 17.1374 42.2143 16.895C42.1711 16.6486 42.1475 16.3823 42.1475 16.1359C42.1475 15.8696 42.1711 15.6232 42.2143 15.3768C42.2811 15.1105 42.344 14.8641 42.4345 14.6415C42.5485 14.3951 42.6586 14.1726 42.7883 13.9738C42.9456 13.7513 43.0989 13.5486 43.2758 13.3697C43.4488 13.1909 43.6493 13.0359 43.8695 12.8769C44.0661 12.7418 44.2902 12.6106 44.53 12.5192C44.7541 12.4318 44.994 12.3404 45.2377 12.2967C45.7449 12.2092 46.2521 12.2092 46.7593 12.2967C47.003 12.3404 47.2468 12.4318 47.4866 12.5192C47.7107 12.6067 47.9269 12.7418 48.1511 12.8769C48.3476 13.0359 48.5481 13.1909 48.7251 13.3697C48.9216 13.5486 49.0789 13.7473 49.2087 13.9738C49.3659 14.1726 49.4721 14.3991 49.5625 14.6415C49.6726 14.8641 49.7394 15.1105 49.7827 15.3768C49.8495 15.6232 49.8692 15.8696 49.8692 16.1359C49.8692 16.3823 49.8495 16.6486 49.7827 16.895C49.7394 17.1414 49.6726 17.3838 49.5625 17.6302C49.476 17.8528 49.3659 18.0754 49.2087 18.2979C49.0789 18.4967 48.9216 18.6993 48.7251 18.8782C48.5481 19.057 48.3516 19.2359 48.1511 19.371C47.9269 19.526 47.7107 19.6373 47.4866 19.7287C47.2468 19.84 47.003 19.9076 46.7593 19.9513C46.5194 20.0188 46.2521 20.0387 46.0083 20.0387Z" fill="white"/>
<path d="M61.0308 24.1044C60.7674 24.1044 60.5236 24.0806 60.2798 24.017C60.0164 23.9733 59.7727 23.9057 59.5525 23.7944C59.3127 23.707 59.0885 23.5957 58.892 23.4368C58.6718 23.3056 58.4752 23.1466 58.2983 22.9678C57.5906 22.2325 57.1699 21.227 57.1699 20.1977C57.1699 19.1683 57.5906 18.1668 58.2983 17.4275C58.4752 17.2487 58.6718 17.0937 58.892 16.9387C59.0885 16.8036 59.3127 16.6923 59.5525 16.581C59.7766 16.4936 60.0164 16.426 60.2798 16.3584C60.7674 16.271 61.2745 16.271 61.7817 16.3584C62.0215 16.426 62.2653 16.4936 62.5091 16.581C62.7292 16.6923 62.9494 16.8036 63.1696 16.9387C63.3662 17.0937 63.5667 17.2487 63.7436 17.4275C64.4709 18.1628 64.8916 19.1683 64.8916 20.1977C64.8916 21.227 64.4749 22.2286 63.7436 22.9678C63.5667 23.1466 63.3701 23.3056 63.1696 23.4368C62.9455 23.5957 62.7292 23.703 62.5091 23.7944C62.2653 23.9057 62.0215 23.9733 61.7817 24.017C61.538 24.0846 61.2706 24.1044 61.0268 24.1044H61.0308Z" fill="white"/>
<path d="M72.0318 35.2287C71.0174 35.2287 70.0227 34.8035 69.2914 34.0881C69.1145 33.8894 68.9376 33.6867 68.8078 33.484C68.6781 33.2614 68.5444 33.0389 68.454 32.8163C68.3675 32.5699 68.2771 32.3235 68.2338 32.081C68.1866 31.8346 68.167 31.5683 68.167 31.3219C68.167 31.0557 68.1866 30.8092 68.2338 30.5628C68.2771 30.2966 68.3636 30.0462 68.454 29.8276C68.5405 29.5812 68.6781 29.3586 68.8078 29.1559C68.9376 28.9333 69.1145 28.7307 69.2914 28.5518C70.1957 27.6377 71.5207 27.2363 72.7827 27.4787C73.0265 27.5224 73.2663 27.6139 73.5101 27.7013C73.7302 27.8126 73.9504 27.9239 74.1706 28.059C74.3672 28.214 74.5716 28.369 74.7485 28.5478C74.9215 28.7267 75.0984 28.9254 75.2321 29.1519C75.3619 29.3546 75.4955 29.5772 75.586 29.8236C75.6961 30.0462 75.7629 30.2926 75.8061 30.5589C75.8533 30.8053 75.8926 31.0477 75.8926 31.318C75.8926 32.3433 75.4719 33.3489 74.7446 34.0881C74.5677 34.2669 74.3672 34.4259 74.1666 34.5571C73.9465 34.716 73.7263 34.8233 73.5061 34.9148C73.2624 35.026 73.0225 35.0936 72.7788 35.1373C72.5154 35.2049 72.2716 35.2248 72.0278 35.2248L72.0318 35.2287Z" fill="white"/>
<path d="M76.0533 50.4147C75.0389 50.4147 74.0442 49.9894 73.3129 49.278C73.136 49.0753 72.9787 48.9004 72.8293 48.6739C72.6957 48.4513 72.5856 48.2288 72.4755 48.0022C72.389 47.7558 72.3182 47.5134 72.2514 47.267C72.2081 47.0206 72.1885 46.7543 72.1885 46.5079C72.1885 45.4825 72.6052 44.477 73.3129 43.7378C74.2172 42.8237 75.5422 42.4183 76.8042 42.6647C77.044 42.7084 77.2878 42.7998 77.5316 42.8872C77.7517 42.9985 77.9955 43.1098 78.1921 43.2449C78.4122 43.4039 78.6128 43.5589 78.7857 43.7378C79.4934 44.473 79.9141 45.4785 79.9141 46.5079C79.9141 46.7543 79.8905 47.0206 79.8276 47.267C79.7804 47.5134 79.7175 47.7558 79.6035 48.0022C79.517 48.2248 79.4069 48.4474 79.2497 48.6739C79.1199 48.8965 78.9627 49.0753 78.7857 49.278C78.6128 49.4569 78.4122 49.6119 78.1921 49.747C77.9955 49.902 77.7517 50.0133 77.5316 50.1047C77.2878 50.216 77.044 50.2835 76.8042 50.3272C76.5604 50.3948 76.2931 50.4147 76.0533 50.4147Z" fill="white"/>
<path d="M61.0308 76.721C60.7674 76.721 60.5236 76.6972 60.2798 76.6336C60.0164 76.5899 59.7727 76.5223 59.5525 76.411C59.3127 76.3236 59.0885 76.2123 58.892 76.0533C58.6718 75.9182 58.4752 75.7632 58.2983 75.5844C58.1214 75.3856 57.9641 75.1829 57.8108 74.9803C57.681 74.7577 57.5709 74.5351 57.4609 74.3126C57.3744 74.0661 57.3036 73.8197 57.2368 73.5773C57.1935 73.3309 57.1699 73.0646 57.1699 72.8182C57.1699 72.5519 57.1935 72.3055 57.2368 72.0591C57.3036 71.7928 57.3704 71.5464 57.4609 71.3238C57.5709 71.0774 57.681 70.8549 57.8108 70.6522C57.968 70.4296 58.1214 70.2269 58.2983 70.0481C58.4752 69.8692 58.6718 69.7142 58.892 69.5592C59.0885 69.4241 59.3127 69.2929 59.5525 69.2015C59.7766 69.1141 60.0164 69.0227 60.2798 68.979C60.7674 68.8915 61.2745 68.8915 61.7817 68.979C62.0215 69.0227 62.2653 69.1141 62.5091 69.2015C62.7292 69.289 62.9494 69.4241 63.1696 69.5592C63.3662 69.7142 63.5667 69.8692 63.7436 70.0481C63.9402 70.2269 64.0974 70.4256 64.2272 70.6522C64.3844 70.8509 64.4906 71.0774 64.581 71.3238C64.6911 71.5464 64.758 71.7928 64.8051 72.0591C64.868 72.3055 64.8916 72.5519 64.8916 72.8182C64.8916 73.0646 64.872 73.3309 64.8051 73.5773C64.758 73.8237 64.6911 74.0701 64.581 74.3126C64.4945 74.5351 64.3844 74.7577 64.2272 74.9803C64.0974 75.1829 63.9402 75.3817 63.7436 75.5844C63.5667 75.7632 63.3701 75.9182 63.1696 76.0533C62.9455 76.2123 62.7292 76.3196 62.5091 76.411C62.2653 76.5223 62.0215 76.5899 61.7817 76.6336C61.538 76.7012 61.2706 76.721 61.0268 76.721H61.0308Z" fill="white"/>
<path d="M45.9999 49.8504C44.1717 49.8504 42.6855 48.3521 42.6855 46.5V29.6011C42.6855 27.749 44.1717 26.2507 45.9999 26.2507C47.8281 26.2507 49.3143 27.749 49.3143 29.6011V46.5C49.3143 48.3521 47.8281 49.8504 45.9999 49.8504Z" fill="white"/>
</g>
<defs>
<clipPath id="clip0_172_613">
<rect width="92" height="93" fill="white"/>
</clipPath>
</defs>
</svg>
