<svg width="91" height="64" viewBox="0 0 91 64" fill="none" xmlns="http://www.w3.org/2000/svg">
<g clip-path="url(#clip0_172_619)">
<path d="M24.8297 28.0357C18.0933 28.0357 12.6074 22.5732 12.6074 15.8569C12.6074 9.14069 18.0895 3.6781 24.8297 3.6781C31.5661 3.6781 37.0519 9.14069 37.0519 15.8569C37.0519 22.5732 31.5699 28.0357 24.8297 28.0357Z" fill="white"/>
<path d="M24.8295 7.36C29.5333 7.36 33.3605 11.1736 33.3605 15.8607C33.3605 20.5478 29.5333 24.3614 24.8295 24.3614C20.1257 24.3614 16.2985 20.5478 16.2985 15.8607C16.2985 11.1736 20.1257 7.36 24.8295 7.36ZM24.8295 0C16.0416 0 8.91602 7.10023 8.91602 15.8569C8.91602 24.6136 16.0416 31.7139 24.8295 31.7139C33.6174 31.7139 40.743 24.6136 40.743 15.8569C40.743 7.10023 33.6174 0 24.8295 0Z" fill="white"/>
<path d="M8.91651 19.5351H3.69514C1.65495 19.5351 0.00390625 17.8899 0.00390625 15.857C0.00390625 13.824 1.65873 12.1788 3.69514 12.1788H8.91651C10.9567 12.1788 12.6077 13.824 12.6077 15.857C12.6077 17.8899 10.9529 19.5351 8.91651 19.5351Z" fill="white"/>
<path d="M87.3085 19.5351H40.7469C38.7067 19.5351 37.0557 17.8899 37.0557 15.857C37.0557 13.824 38.7105 12.1788 40.7469 12.1788H87.3085C89.3487 12.1788 90.9998 13.824 90.9998 15.857C90.9998 17.8899 89.345 19.5351 87.3085 19.5351Z" fill="white"/>
<path d="M66.1664 39.6424C70.8702 39.6424 74.6974 43.456 74.6974 48.1431C74.6974 52.8301 70.8702 56.6438 66.1664 56.6438C61.4626 56.6438 57.6354 52.8301 57.6354 48.1431C57.6354 43.456 61.4626 39.6424 66.1664 39.6424ZM66.1664 32.2861C57.3785 32.2861 50.2529 39.3864 50.2529 48.1431C50.2529 56.8998 57.3785 64 66.1664 64C74.9543 64 82.0799 56.8998 82.0799 48.1431C82.0799 39.3864 74.9543 32.2861 66.1664 32.2861Z" fill="white"/>
<path d="M87.309 51.8212H82.0838C80.0436 51.8212 78.3926 50.176 78.3926 48.1431C78.3926 46.1101 80.0474 44.465 82.0838 44.465H87.309C89.3491 44.465 91.0002 46.1101 91.0002 48.1431C91.0002 50.176 89.3454 51.8212 87.309 51.8212Z" fill="white"/>
<path d="M50.2529 51.8212H3.69123C1.65482 51.8212 0 50.176 0 48.1431C0 46.1101 1.65482 44.465 3.69123 44.465H50.2529C52.2931 44.465 53.9441 46.1101 53.9441 48.1431C53.9441 50.176 52.2893 51.8212 50.2529 51.8212Z" fill="white"/>
</g>
<defs>
<clipPath id="clip0_172_619">
<rect width="91" height="64" fill="white"/>
</clipPath>
</defs>
</svg>
