<svg width="24" height="24" viewBox="0 0 24 24" fill="none" xmlns="http://www.w3.org/2000/svg">
<path d="M19.3268 9.68479C19.0807 6.50774 16.4221 3.99829 13.1895 3.99829C9.95466 3.99829 7.29455 6.51135 7.05173 9.69149C5.07727 9.93281 3.54277 11.623 3.54277 13.6655C3.54277 13.8883 3.561 14.1093 3.59719 14.327H2.832C1.27041 14.327 0 15.5998 0 17.1643C0 18.7287 1.27041 20.0014 2.832 20.0014H18.8257C18.8307 20.0015 18.8356 20.0016 18.8407 20.0016C21.6855 20.0016 24 17.6825 24 14.8318C24 12.1454 21.9446 9.93098 19.3268 9.68479ZM18.8487 18.9919C18.8437 18.9918 18.8389 18.9917 18.834 18.9917H2.832C1.82714 18.9917 1.00969 18.1719 1.00969 17.1642C1.00969 16.1565 1.82719 15.3367 2.832 15.3367H4.24641C4.41019 15.3367 4.5638 15.2572 4.65844 15.1235C4.75308 14.9899 4.77698 14.8186 4.72256 14.664C4.60973 14.3436 4.5525 14.0077 4.5525 13.6655C4.5525 12.0147 5.892 10.6717 7.53844 10.6717C7.81725 10.6717 8.04328 10.4456 8.04328 10.1669C8.04328 7.3222 10.3519 5.00798 13.1895 5.00798C16.0272 5.00798 18.3358 7.32224 18.3358 10.1669C18.3358 10.4456 18.5618 10.6717 18.8407 10.6717C21.1288 10.6717 22.9903 12.5379 22.9903 14.8318C22.9903 17.1231 21.1331 18.9876 18.8487 18.9919Z" fill="white"/>
<path d="M14.1335 7.15564L14.1484 7.16033C14.1978 7.17561 14.2478 7.18283 14.2969 7.18283C14.5124 7.18283 14.7111 7.04314 14.7781 6.8262C14.8602 6.55977 14.7092 6.27664 14.4428 6.19442L14.433 6.19123C14.1669 6.10775 13.8852 6.25606 13.8016 6.52208C13.718 6.78814 13.8675 7.07206 14.1335 7.15564Z" fill="white"/>
<path d="M12.8346 7.03124C13.1117 7.00017 13.3111 6.75037 13.2799 6.47324C13.2489 6.19616 12.9988 5.99662 12.7219 6.02788C11.3621 6.18051 10.1649 6.99609 9.5193 8.20935C9.38829 8.45549 9.48171 8.76121 9.72785 8.89213C9.80341 8.93231 9.8846 8.95138 9.96452 8.95138C10.1452 8.95138 10.3199 8.85417 10.4106 8.68359C10.8997 7.76446 11.8059 7.14674 12.8346 7.03124Z" fill="white"/>
<path d="M15.6934 11.983C15.6934 10.5999 14.5702 9.47461 13.1895 9.47461C11.8088 9.47461 10.6855 10.5998 10.6855 11.983C10.6855 12.756 11.0452 13.4839 11.643 13.9557L11.191 16.916C11.1689 17.0615 11.2112 17.2095 11.3071 17.3211C11.403 17.4328 11.543 17.497 11.6901 17.497H14.6888C14.6892 17.497 14.6895 17.497 14.6899 17.497C14.9686 17.497 15.1947 17.2709 15.1947 16.9921C15.1947 16.9547 15.1906 16.9182 15.1829 16.8831L14.736 13.9557C15.3337 13.484 15.6934 12.756 15.6934 11.983ZM13.9358 13.2818C13.7562 13.386 13.6587 13.5895 13.69 13.7947L14.1011 16.4873H12.278L12.6891 13.7947C12.7204 13.5895 12.6229 13.386 12.4433 13.2818C11.9819 13.0143 11.6953 12.5166 11.6953 11.983C11.6953 11.1567 12.3656 10.4843 13.1896 10.4843C14.0135 10.4843 14.6838 11.1566 14.6838 11.983C14.6837 12.5167 14.3972 13.0143 13.9358 13.2818Z" fill="white"/>
</svg>
