<svg width="22" height="24" viewBox="0 0 22 24" fill="none" xmlns="http://www.w3.org/2000/svg">
<path d="M20.5142 3.8877C19.3085 3.47351 18.3426 2.50214 17.9302 1.28925C17.668 0.518005 16.946 0 16.1334 0H5.66345C4.85101 0 4.12885 0.518005 3.86664 1.28925C3.45428 2.50214 2.4884 3.47351 1.28265 3.8877C0.515442 4.15137 0 4.87555 0 5.68982V8.33844C0 11.7947 1.03564 15.1227 2.99506 17.9626C4.78784 20.5611 7.2583 22.5945 10.1396 23.8433C10.3808 23.9478 10.6395 24 10.8984 24C11.1572 24 11.4159 23.9478 11.657 23.8433C14.5384 22.5947 17.0089 20.5611 18.8016 17.9626C20.761 15.1227 21.7969 11.7946 21.7969 8.33844V5.68982C21.7969 4.87555 21.2814 4.15137 20.5142 3.8877ZM20.3906 8.33844C20.3906 11.508 19.4409 14.5598 17.644 17.1641C16.001 19.5456 13.7373 21.4091 11.0978 22.5529C10.9713 22.6078 10.8257 22.608 10.6989 22.5529C8.0592 21.4091 5.79565 19.5456 4.15265 17.1641C2.35602 14.56 1.40625 11.5082 1.40625 8.33844V5.68982C1.40625 5.47595 1.54028 5.28625 1.73969 5.21777C3.35376 4.66315 4.64667 3.36383 5.198 1.74188C5.2663 1.5412 5.45325 1.40625 5.66345 1.40625H16.1334C16.3434 1.40625 16.5306 1.5412 16.5989 1.74188C17.1502 3.36383 18.4431 4.66315 20.0572 5.21777C20.2566 5.28625 20.3906 5.47595 20.3906 5.68982V8.33844Z" fill="#353D48"/>
</svg>
