<svg width="24" height="24" viewBox="0 0 24 24" fill="none" xmlns="http://www.w3.org/2000/svg">
<path d="M21.4455 13.9804C21.366 13.9586 21.2861 13.9357 21.2063 13.9125C21.7337 12.6763 22.0009 11.3631 22.0009 10.0008C22.0009 4.48631 17.5145 0 12 0C6.48549 0 1.99908 4.48631 1.99908 10.0008C1.99908 15.5153 6.48544 20.0018 12 20.0018C12.0392 20.0018 12.08 20.0013 12.1217 20.0007C12.5651 21.0066 13.1767 21.77 13.7309 22.313C14.9054 23.4638 16.1707 24 16.6561 24C17.1414 24 18.4067 23.4638 19.5813 22.313C20.6011 21.3137 21.8169 19.5697 21.8169 16.9361V14.4674C21.8169 14.2399 21.6648 14.0405 21.4455 13.9804ZM11.4951 1.08675V6.68869C10.3699 6.70613 9.2506 6.78188 8.19601 6.91467C8.41149 5.6437 8.76113 4.48139 9.23021 3.5048C9.86335 2.18648 10.668 1.33622 11.4951 1.08675ZM11.4951 7.69837V12.3032C10.2917 12.2844 9.13247 12.1987 8.06705 12.0519C7.9808 11.2772 7.94424 10.5598 7.94424 10.0008C7.94424 9.30197 7.98108 8.61567 8.05276 7.95159C9.12216 7.8037 10.2864 7.71722 11.4951 7.69837ZM9.3789 1.39983C8.31188 2.65045 7.50994 4.65539 7.14769 7.06945C5.50351 7.35014 4.08741 7.78284 3.15887 8.36245C3.77124 5.05013 6.20494 2.36897 9.3789 1.39983ZM5.42865 8.49703C5.91685 8.35252 6.45071 8.22614 7.02085 8.11903C6.96441 8.72705 6.9346 9.35573 6.9346 10.0008C6.93455 10.5396 6.96427 11.1877 7.03271 11.8849C6.45812 11.7773 5.92023 11.6502 5.42865 11.5046C3.64257 10.9758 3.00882 10.364 3.00882 10.0008C3.00882 9.63759 3.64252 9.02578 5.42865 8.49703ZM3.15882 11.6392C4.08994 12.2205 5.51152 12.654 7.16162 12.9345C7.28419 13.761 7.46185 14.6129 7.70818 15.4035C7.72276 15.4502 7.73762 15.4966 7.75262 15.5429C7.82199 15.7562 8.0199 15.8918 8.23266 15.8918C8.28437 15.8918 8.33696 15.8838 8.3888 15.867C8.65402 15.7807 8.7991 15.4959 8.7129 15.2308C8.69902 15.1881 8.68533 15.1453 8.67207 15.1027C8.47276 14.4628 8.32121 13.771 8.20932 13.0886C9.26007 13.2203 10.3747 13.2956 11.4952 13.3129V14.4673V16.936C11.4952 17.6927 11.5959 18.3756 11.7632 18.9888C7.47043 18.8773 3.91735 15.7421 3.15882 11.6392ZM12.5048 1.08675C13.3321 1.33622 14.1366 2.18648 14.7698 3.50475C15.239 4.48186 15.5889 5.64502 15.8043 6.91683C14.7514 6.78445 13.6299 6.70688 12.5048 6.68892V1.08675ZM12.5048 7.69866C13.6849 7.71811 14.8592 7.80511 15.9474 7.95384C16.0189 8.61727 16.0557 9.30277 16.0557 10.0008C16.0557 10.6937 16.0183 11.3806 15.9455 12.0502C14.8766 12.198 13.7129 12.2843 12.5048 12.3032V7.69866ZM12.5048 13.3129C13.0053 13.3052 13.5046 13.2858 13.9975 13.2551C13.5093 13.4556 13.0128 13.6347 12.5048 13.7932V13.3129ZM20.8072 16.9361C20.8072 19.1896 19.7811 20.6872 18.9203 21.5467C17.9009 22.5644 16.8642 22.9657 16.656 22.9897C16.4479 22.9657 15.4111 22.5643 14.3918 21.5467C13.5309 20.6872 12.5048 19.1896 12.5048 16.9361V14.8486C13.9599 14.4198 15.324 13.8374 16.6562 13.0763C17.9592 13.8182 19.3816 14.4254 20.8072 14.8483V16.9361ZM20.2398 13.6017C19.5063 13.3429 18.7738 13.0329 18.0727 12.6852C19.1945 12.4188 20.1531 12.069 20.8427 11.6382C20.7189 12.3125 20.5176 12.9686 20.2398 13.6017ZM18.5714 11.5047C18.0826 11.6494 17.548 11.7758 16.9771 11.883C17.0353 11.2651 17.0654 10.6351 17.0654 10.0008C17.0654 6.30014 16.0964 3.12905 14.621 1.39983C17.7916 2.36784 20.2234 5.04431 20.839 8.35167C20.5701 8.18541 20.2551 8.02833 19.8936 7.88077C19.6354 7.77534 19.3408 7.89923 19.2354 8.15738C19.13 8.41552 19.2539 8.71017 19.5121 8.81555C20.6027 9.26067 20.9912 9.71967 20.9912 10.0008C20.9912 10.3641 20.3575 10.9759 18.5714 11.5047Z" fill="white"/>
<path d="M9.23312 16.4798C9.10487 16.2322 8.80013 16.1355 8.55263 16.2637C8.30504 16.3919 8.20829 16.6966 8.33649 16.9441L8.34484 16.96C8.43587 17.1287 8.60865 17.2241 8.78762 17.2241C8.8681 17.2241 8.94985 17.2049 9.02598 17.1642C9.27118 17.0334 9.36366 16.7274 9.23396 16.4816L9.23312 16.4798Z" fill="white"/>
<path d="M18.4247 7.40311L18.4096 7.39922C18.1388 7.3321 17.865 7.49743 17.7982 7.76813C17.7312 8.03869 17.8962 8.31235 18.1669 8.37928L18.178 8.38214C18.2195 8.39264 18.2611 8.39771 18.302 8.39771C18.5276 8.39771 18.7329 8.24518 18.7908 8.01633C18.8591 7.74605 18.695 7.47141 18.4247 7.40311Z" fill="white"/>
<path d="M14.5396 17.6481C14.3424 17.451 14.0228 17.451 13.8256 17.6482C13.6284 17.8453 13.6284 18.1649 13.8256 18.3621L15.4672 20.0036C15.5657 20.1022 15.6949 20.1515 15.8242 20.1515C15.9534 20.1515 16.0825 20.1022 16.1812 20.0036L19.4865 16.6983C19.6837 16.5011 19.6837 16.1815 19.4865 15.9843C19.2893 15.7871 18.9698 15.7871 18.7725 15.9843L15.8242 18.9326L14.5396 17.6481Z" fill="white"/>
</svg>
