<svg width="24" height="20" viewBox="0 0 24 20" fill="none" xmlns="http://www.w3.org/2000/svg">
<path d="M23.4952 2.99873H12.48L11.0275 0.267844C10.9399 0.103031 10.7685 0 10.5818 0H0.504844C0.226078 0 0 0.226078 0 0.504844V19.4967C0 19.7754 0.226078 20.0016 0.504844 20.0016H23.4952C23.7739 20.0016 24 19.7754 24 19.4967V3.50358C24 3.22481 23.7739 2.99873 23.4952 2.99873ZM1.00969 18.9919V1.00973H10.2785L11.7309 3.74067C11.8186 3.90544 11.99 4.00842 12.1767 4.00842H22.9903V18.9919H1.00969V18.9919Z" fill="white"/>
<path d="M7.65658 3.00896H7.66853C7.94734 3.00896 8.17337 2.78292 8.17337 2.50411C8.17337 2.22535 7.94734 1.99927 7.66853 1.99927H7.65658C7.37781 1.99927 7.15173 2.22535 7.15173 2.50411C7.15173 2.78297 7.37781 3.00896 7.65658 3.00896Z" fill="white"/>
<path d="M6.22089 1.99927H2.50399C2.22522 1.99927 1.99915 2.22535 1.99915 2.50411C1.99915 2.78292 2.22522 3.00895 2.50399 3.00895H6.22089C6.49966 3.00895 6.72574 2.78292 6.72574 2.50411C6.72574 2.22535 6.49966 1.99927 6.22089 1.99927Z" fill="white"/>
<path d="M16.7894 7.48673C15.2538 7.06602 13.644 6.38329 12.2567 5.56424C12.0983 5.47077 11.9017 5.47077 11.7433 5.56424C10.2954 6.41905 8.8127 7.04788 7.21066 7.48673C6.99123 7.54682 6.83917 7.74623 6.83917 7.97366V10.4424C6.83917 13.076 8.05492 14.82 9.07478 15.8193C10.2494 16.9702 11.5147 17.5063 12 17.5063C12.4854 17.5063 13.7507 16.9702 14.9253 15.8193C15.9451 14.82 17.1609 13.076 17.1609 10.4424V7.97366C17.1608 7.74623 17.0087 7.54687 16.7894 7.48673ZM16.1512 10.4424C16.1512 12.6959 15.125 14.1935 14.2642 15.053C13.2449 16.0707 12.2081 16.472 12 16.4961C11.7919 16.472 10.7552 16.0707 9.73581 15.053C8.875 14.1935 7.84886 12.6959 7.84886 10.4424V8.35495C9.30381 7.92618 10.668 7.3438 12.0002 6.58265C13.3033 7.32468 14.7258 7.9318 16.1512 8.35462L16.1512 10.4424Z" fill="white"/>
<path d="M9.88366 11.1543C9.68645 10.9572 9.36691 10.9572 9.16966 11.1543C8.9725 11.3515 8.9725 11.6711 9.16966 11.8683L10.8113 13.5099C10.9098 13.6085 11.039 13.6578 11.1682 13.6578C11.2974 13.6578 11.4266 13.6085 11.5252 13.5099L14.8305 10.2046C15.0276 10.0075 15.0276 9.68783 14.8305 9.49062C14.6333 9.29347 14.3138 9.29351 14.1165 9.49062L11.1682 12.4389L9.88366 11.1543Z" fill="white"/>
<path d="M17.8428 16.9929H17.8308C17.5521 16.9929 17.326 17.219 17.326 17.4978C17.326 17.7765 17.5521 18.0026 17.8308 18.0026H17.8428C18.1216 18.0026 18.3477 17.7765 18.3477 17.4978C18.3477 17.219 18.1216 16.9929 17.8428 16.9929Z" fill="white"/>
<path d="M21.4959 16.9929H19.2786C18.9998 16.9929 18.7738 17.219 18.7738 17.4978C18.7738 17.7765 18.9999 18.0026 19.2786 18.0026H21.4959C21.7747 18.0026 22.0008 17.7765 22.0008 17.4978C22.0008 17.219 21.7747 16.9929 21.4959 16.9929Z" fill="white"/>
</svg>
