<svg width="79" height="90" viewBox="0 0 79 90" fill="none" xmlns="http://www.w3.org/2000/svg">
<g clip-path="url(#clip0_172_610)">
<path d="M39.5 90.0003C38.9029 90.0003 38.3057 89.8464 37.7702 89.5387L1.72979 68.7618C0.658783 68.1464 0 67.0079 0 65.7733V24.2272C0 22.9926 0.658783 21.8541 1.72979 21.2387L37.7702 0.465644C38.8412 -0.153587 40.1549 -0.153587 41.2259 0.465644L77.2664 21.2387C78.3374 21.8541 78.9961 22.9926 78.9961 24.2272V65.7733C78.9961 67.0079 78.3374 68.1464 77.2664 68.7618L41.2259 89.5349C40.6904 89.8426 40.0933 89.9964 39.4961 89.9964L39.5 90.0003ZM6.91529 63.781L39.5 82.5618L72.0847 63.781V26.2195L39.5 7.43872L6.91529 26.2195V63.781Z" fill="white"/>
<path d="M39.4997 89.9999C37.5927 89.9999 36.0439 88.4538 36.0439 86.5499V3.45378C36.0439 1.54609 37.5927 0.00378418 39.4997 0.00378418C41.4067 0.00378418 42.9554 1.54994 42.9554 3.45378V86.5499C42.9554 88.4576 41.4067 89.9999 39.4997 89.9999Z" fill="white"/>
<path d="M3.45968 69.2269C2.2654 69.2269 1.10193 68.6077 0.462411 67.5C-0.493017 65.85 0.073305 63.7384 1.72604 62.7846L73.8108 21.2384C75.4596 20.2846 77.5785 20.85 78.534 22.5C79.4894 24.15 78.9231 26.2615 77.2703 27.2154L5.18561 68.7615C4.64241 69.0769 4.04526 69.2269 3.45968 69.2269Z" fill="white"/>
<path d="M75.5368 69.2269C74.9473 69.2269 74.354 69.0769 73.8108 68.7615L1.72995 27.2154C0.0772111 26.2615 -0.489111 24.15 0.466317 22.5C1.41789 20.85 3.54064 20.2846 5.18952 21.2384L77.2742 62.7846C78.927 63.7384 79.4933 65.85 78.5379 67.5C77.8983 68.6077 76.7349 69.2269 75.5406 69.2269H75.5368Z" fill="white"/>
</g>
<defs>
<clipPath id="clip0_172_610">
<rect width="79" height="90" fill="white"/>
</clipPath>
</defs>
</svg>
