<svg width="48" height="41" viewBox="0 0 48 41" fill="none" xmlns="http://www.w3.org/2000/svg">
<path d="M47.2969 36.5046H44.2424V13.4768C44.2424 12.0097 42.9157 10.8163 41.2848 10.8163H32.267C31.8787 10.8163 31.5638 11.0995 31.5638 11.4488C31.5638 11.7981 31.8787 12.0813 32.267 12.0813H41.2848C42.1403 12.0813 42.8362 12.7073 42.8362 13.4768V36.5047H40.4295C40.4658 36.2659 40.4848 36.0255 40.4848 35.7852C40.4848 32.8272 37.8095 30.4206 34.5211 30.4206C34.079 30.4206 33.6375 30.4661 33.2023 30.5561C32.4437 29.2412 30.9325 28.3925 29.2606 28.3925C28.7152 28.3925 28.1854 28.482 27.6866 28.6558C27.4818 26.9891 25.9066 25.6885 24 25.6885C22.0934 25.6885 20.5182 26.9891 20.3134 28.6558C19.8146 28.482 19.2848 28.3925 18.7394 28.3925C17.0675 28.3925 15.5562 29.2412 14.7977 30.5561C14.3624 30.466 13.921 30.4206 13.4789 30.4206C10.1904 30.4206 7.51519 32.8272 7.51519 35.7852C7.51519 36.0256 7.53422 36.2659 7.5705 36.5047H5.16384V13.4768C5.16384 12.7072 5.85975 12.0813 6.71522 12.0813H15.7333C16.1216 12.0813 16.4364 11.7981 16.4364 11.4488C16.4364 11.0995 16.1216 10.8163 15.7333 10.8163H6.71522C5.08434 10.8163 3.75759 12.0098 3.75759 13.4768V36.5047H0.703125C0.314812 36.5047 0 36.7879 0 37.1372V38.4892C0 39.5835 0.989719 40.4737 2.20613 40.4737H45.7939C47.0104 40.4737 48 39.5834 48 38.4892V37.1372C48 36.7878 47.6852 36.5046 47.2969 36.5046ZM46.5938 38.4892C46.5938 38.886 46.2349 39.2087 45.7939 39.2087H2.20613C1.76503 39.2087 1.40625 38.8859 1.40625 38.4892V37.7697H10.4725C10.8608 37.7697 11.1757 37.4865 11.1757 37.1372C11.1757 36.7879 10.8608 36.5047 10.4725 36.5047H8.99334C8.94563 36.2663 8.92134 36.0256 8.92134 35.7852C8.92134 33.5247 10.9658 31.6856 13.4788 31.6856C13.9793 31.6856 14.4805 31.7627 14.9685 31.9146C15.1452 31.9697 15.3389 31.9592 15.507 31.8855C15.675 31.8117 15.8034 31.6808 15.864 31.5217C16.2878 30.4067 17.4434 29.6576 18.7395 29.6576C19.4502 29.6576 20.1252 29.8839 20.6917 30.312C20.9308 30.4927 21.2738 30.5099 21.5337 30.3542C21.7937 30.1984 21.9083 29.9071 21.8151 29.639C21.7346 29.4075 21.6971 29.2124 21.6971 29.0251C21.6971 27.8828 22.7302 26.9536 24 26.9536C25.2698 26.9536 26.3029 27.8829 26.3029 29.0251C26.3029 29.2124 26.2654 29.4075 26.1849 29.639C26.0917 29.9072 26.2064 30.1985 26.4663 30.3542C26.7262 30.5098 27.0692 30.4927 27.3083 30.312C27.8748 29.8839 28.5499 29.6576 29.2605 29.6576C30.5566 29.6576 31.7122 30.4067 32.136 31.5217C32.1966 31.6808 32.325 31.8117 32.493 31.8855C32.6611 31.9592 32.8549 31.9698 33.0315 31.9146C33.5195 31.7627 34.0206 31.6856 34.5212 31.6856C37.0343 31.6856 39.0787 33.5247 39.0787 35.7852C39.0787 36.0256 39.0543 36.2663 39.0067 36.5047H13.4791C13.0908 36.5047 12.776 36.7879 12.776 37.1372C12.776 37.4865 13.0908 37.7697 13.4791 37.7697H46.5938V38.4892Z" fill="#D8FF8C"/>
<path d="M14.9648 18.5918C14.5228 19.069 14.2793 19.6739 14.2793 20.2951V22.2649C14.2793 22.4897 14.412 22.6977 14.6279 22.8111C14.7374 22.8686 14.8599 22.8974 14.9824 22.8974C15.1016 22.8974 15.2207 22.8702 15.328 22.8157L20.3352 20.2742C20.526 20.5876 20.7283 20.8959 20.9419 21.1986L20.3125 23.4635C20.2599 23.6525 20.3071 23.8526 20.4404 24.0061C20.5736 24.1597 20.778 24.2494 20.9946 24.2494H27.0067C27.2233 24.2494 27.4276 24.1597 27.561 24.0061C27.6942 23.8527 27.7414 23.6525 27.6888 23.4635L27.0594 21.1986C27.273 20.8959 27.4754 20.5877 27.6661 20.2742L32.6733 22.8157C32.7807 22.8702 32.8997 22.8974 33.0189 22.8974C33.1414 22.8974 33.264 22.8685 33.3735 22.8111C33.5893 22.6977 33.722 22.4898 33.722 22.2649V20.2951C33.722 19.6739 33.4785 19.069 33.0365 18.5918L29.6986 14.9899C29.8744 14.0504 29.9644 13.0925 29.9644 12.1247C29.9644 9.81815 29.468 7.5886 28.489 5.49811C27.5447 3.48191 26.2006 1.69325 24.494 0.181776C24.2204 -0.0605921 23.7811 -0.0605921 23.5075 0.181776C21.8009 1.69316 20.4568 3.48183 19.5125 5.49811C18.5335 7.58868 18.0371 9.81815 18.0371 12.1247C18.0371 13.091 18.1268 14.0475 18.302 14.9856L14.9648 18.5918ZM15.6855 21.1817V20.2951C15.6855 19.9692 15.8132 19.6519 16.0451 19.4016L18.6806 16.5568C18.9439 17.443 19.2862 18.3072 19.7058 19.1412L15.6855 21.1817ZM21.8951 22.9844L22.295 21.5454H25.7061L26.106 22.9844H21.8951ZM31.956 19.4016C32.1878 19.6519 32.3155 19.9692 32.3155 20.2951V21.1817L28.2952 19.1411C28.7147 18.3071 29.0571 17.443 29.3205 16.5567L31.956 19.4016ZM24.0005 1.53968C25.1813 2.68144 26.1552 3.9906 26.8953 5.40813H21.1057C21.8459 3.9906 22.8197 2.68144 24.0005 1.53968ZM20.5198 6.67301H27.4812C28.1842 8.39717 28.5579 10.2456 28.5579 12.1246C28.5579 15.033 27.6881 17.8451 26.0386 20.2803H21.9623C20.3129 17.8451 19.443 15.033 19.443 12.1246C19.443 10.2456 19.8168 8.39725 20.5198 6.67301Z" fill="#D8FF8C"/>
<path d="M26.9582 11.4487C26.9582 9.98166 25.6315 8.78821 24.0006 8.78821C22.3697 8.78821 21.043 9.98175 21.043 11.4487C21.043 12.9156 22.3697 14.1092 24.0006 14.1092C25.6315 14.1092 26.9582 12.9157 26.9582 11.4487ZM22.4492 11.4487C22.4492 10.6792 23.1451 10.0532 24.0006 10.0532C24.8561 10.0532 25.552 10.6793 25.552 11.4487C25.552 12.2181 24.8561 12.8442 24.0006 12.8442C23.1451 12.8442 22.4492 12.2182 22.4492 11.4487Z" fill="#D8FF8C"/>
</svg>
