<svg width="52" height="50" viewBox="0 0 52 50" fill="none" xmlns="http://www.w3.org/2000/svg">
<path d="M44.3848 7.32231C39.4741 2.60048 32.9447 0 26 0C19.0553 0 12.5259 2.60048 7.6152 7.32231C2.7045 12.0441 0 18.3224 0 25C0 31.6776 2.7045 37.9559 7.6152 42.6777C12.5259 47.3995 19.0553 50 26 50C32.9447 50 39.4741 47.3995 44.3848 42.6777C49.2955 37.9559 52 31.6776 52 25C52 18.3224 49.2955 12.0441 44.3848 7.32231ZM11.2841 41.9235C12.1427 34.8206 18.4939 29.3365 26 29.3365C29.957 29.3365 33.6779 30.8189 36.4768 33.5098C38.8413 35.7838 40.3326 38.7527 40.7162 41.9231C36.7291 45.134 31.5955 47.0703 26 47.0703C20.4045 47.0703 15.2713 45.1344 11.2841 41.9235ZM26 26.3191C21.6459 26.3191 18.1031 22.9126 18.1031 18.726C18.1031 14.539 21.6459 11.1328 26 11.1328C30.3541 11.1328 33.8969 14.539 33.8969 18.726C33.8969 22.9126 30.3541 26.3191 26 26.3191ZM43.3386 39.4466C42.5622 36.4368 40.9432 33.6617 38.631 31.4384C36.7585 29.6379 34.5432 28.2871 32.1271 27.4406C35.0315 25.5466 36.9438 22.3469 36.9438 18.726C36.9438 12.9238 32.0342 8.20312 26 8.20312C19.9658 8.20312 15.0562 12.9238 15.0562 18.726C15.0562 22.3488 16.9701 25.5497 19.8769 27.4433C17.654 28.2223 15.597 29.4266 13.8272 31.012C11.2643 33.3069 9.48459 36.2331 8.65939 39.4444C5.16461 35.5705 3.04688 30.5187 3.04688 25C3.04688 12.8304 13.3436 2.92969 26 2.92969C38.6564 2.92969 48.9531 12.8304 48.9531 25C48.9531 30.5199 46.8346 35.5728 43.3386 39.4466Z" fill="#D8FF8C"/>
</svg>
