<svg width="92" height="54" viewBox="0 0 92 54" fill="none" xmlns="http://www.w3.org/2000/svg">
<g clip-path="url(#clip0_172_624)">
<path d="M45.9984 5.93984C61.6581 5.93984 76.3403 13.9276 85.1007 27.0016C76.3403 40.0756 61.6581 48.0633 45.9984 48.0633C30.3387 48.0633 15.6566 40.0756 6.89616 27.0016C15.6566 13.9276 30.3387 5.93984 45.9984 5.93984ZM45.9984 0C26.3376 0 9.18653 10.8637 0 27.0016C9.18653 43.1395 26.3376 54.0032 45.9984 54.0032C65.6592 54.0032 82.8103 43.1395 91.9969 27.0016C82.8135 10.8637 65.6592 0 45.9984 0Z" fill="white"/>
<path d="M45.9986 5.93984C57.4222 5.93984 66.7184 15.3894 66.7184 27.0016C66.7184 38.6169 57.4222 48.0633 45.9986 48.0633C34.5749 48.0633 25.2788 38.6137 25.2788 27.0016C25.2788 15.3894 34.5749 5.93984 45.9986 5.93984ZM45.9986 0C31.3289 0 19.4385 12.0899 19.4385 27.0016C19.4385 41.9133 31.3321 54.0032 46.0017 54.0032C60.6713 54.0032 72.5649 41.9133 72.5649 27.0016C72.5618 12.0899 60.6682 0 45.9986 0Z" fill="white"/>
<path d="M37.7673 21.6764C37.5323 21.6764 37.3193 21.6573 37.1062 21.6159C36.89 21.5777 36.677 21.4981 36.4639 21.4185C36.2477 21.3388 36.0535 21.221 35.878 21.1C35.6837 20.963 35.5083 20.8229 35.3516 20.6636C34.7281 20.0298 34.3584 19.119 34.3584 18.2081C34.3584 17.9915 34.3772 17.7526 34.4148 17.5361C34.4743 17.3195 34.5339 17.0997 34.6122 16.8832C34.7093 16.6857 34.8064 16.4882 34.9255 16.2908C35.0602 16.1124 35.1981 15.9341 35.3548 15.7748C35.5114 15.6187 35.6869 15.4595 35.8811 15.3385C36.0566 15.2206 36.2508 15.0996 36.467 15.02C36.6801 14.9213 36.8963 14.8607 37.1093 14.8225C37.5386 14.7238 38.0054 14.7238 38.4316 14.8225C38.6477 14.8607 38.8608 14.9213 39.0739 15.02C39.2681 15.0996 39.4624 15.2175 39.6566 15.3385C39.8509 15.4563 40.0075 15.6156 40.183 15.7748C40.3365 15.9341 40.4744 16.1124 40.5935 16.2908C40.7282 16.4882 40.8253 16.6857 40.9036 16.8832C41.0039 17.1029 41.0603 17.3195 41.101 17.5361C41.1606 17.7526 41.1794 17.9915 41.1794 18.2081C41.1794 19.119 40.8096 20.0298 40.1861 20.6636C40.0107 20.8229 39.854 20.9598 39.6598 21.1C39.4655 21.2178 39.2712 21.3388 39.077 21.4185C38.8608 21.4981 38.6477 21.5777 38.4347 21.6159C38.2185 21.6541 37.9866 21.6764 37.7736 21.6764H37.7673Z" fill="white"/>
</g>
<defs>
<clipPath id="clip0_172_624">
<rect width="92" height="54" fill="white"/>
</clipPath>
</defs>
</svg>
